<?xml version="1.0" encoding="UTF-8" standalone="no"?>
<!DOCTYPE svg PUBLIC "-//W3C//DTD SVG 1.1//EN"
 "http://www.w3.org/Graphics/SVG/1.1/DTD/svg11.dtd">
<!-- Generated by graphviz version 2.40.1 (20161225.0304)
 -->
<!-- Title: %3 Pages: 1 -->
<svg width="610pt" height="83pt"
 viewBox="0.00 0.00 610.00 83.00" xmlns="http://www.w3.org/2000/svg" xmlns:xlink="http://www.w3.org/1999/xlink">
<g id="graph0" class="graph" transform="scale(1 1) rotate(0) translate(4 79)">
<title>%3</title>
<polygon fill="#ffffff" stroke="transparent" points="-4,4 -4,-79 606,-79 606,4 -4,4"/>
<!-- J -->
<g id="node1" class="node">
<title>J</title>
<g id="a_node1"><a xlink:title="J (Juveniles):&#10;	juvenile individuals">
<path fill="#a020f0" stroke="#000000" stroke-width="2" d="M12,-20C12,-20 42,-20 42,-20 48,-20 54,-26 54,-32 54,-32 54,-44 54,-44 54,-50 48,-56 42,-56 42,-56 12,-56 12,-56 6,-56 0,-50 0,-44 0,-44 0,-32 0,-32 0,-26 6,-20 12,-20"/>
<text text-anchor="middle" x="27" y="-34.2" font-family="Arial" font-size="16.00" fill="#000000">J ◷</text>
</a>
</g>
</g>
<!-- A -->
<g id="node2" class="node">
<title>A</title>
<g id="a_node2"><a xlink:title="A (Adults):&#10;	adult individuals">
<path fill="#b03060" stroke="#000000" d="M263.5,-34C263.5,-34 293.5,-34 293.5,-34 299.5,-34 305.5,-40 305.5,-46 305.5,-46 305.5,-58 305.5,-58 305.5,-64 299.5,-70 293.5,-70 293.5,-70 263.5,-70 263.5,-70 257.5,-70 251.5,-64 251.5,-58 251.5,-58 251.5,-46 251.5,-46 251.5,-40 257.5,-34 263.5,-34"/>
<text text-anchor="middle" x="278.5" y="-48.2" font-family="Arial" font-size="16.00" fill="#000000">A</text>
</a>
</g>
</g>
<!-- J&#45;&gt;A -->
<g id="edge3" class="edge">
<title>J&#45;&gt;A</title>
<path fill="none" stroke="#000000" stroke-width="1.5" d="M54.1812,-36.9648C82.9728,-36.1105 129.7401,-35.4133 170,-38 191.985,-39.4125 216.3219,-42.4192 236.3661,-45.2854"/>
<polygon fill="#000000" stroke="#000000" stroke-width="1.5" points="240.9876,-49.5113 251.3938,-47.5207 242.0176,-42.5875 240.9876,-49.5113"/>
<polyline fill="none" stroke="#000000" stroke-width="1.5" points="241.5026,-46.0494 236.557,-45.3137 "/>
<g id="a_edge3&#45;label"><a xlink:title="proba: 1">
<text text-anchor="middle" x="140" y="-41.8" font-family="Times" font-size="14.00" fill="#000000">proba: 1</text>
</a>
</g>
</g>
<!-- D -->
<g id="node3" class="node">
<title>D</title>
<g id="a_node3"><a xlink:title="D (Deceased):&#10;	decesased individuals (individuals in this state are removed automatically)">
<path fill="#ffffff" stroke="#000000" stroke-dasharray="1,5" d="M560,-1C560,-1 590,-1 590,-1 596,-1 602,-7 602,-13 602,-13 602,-25 602,-25 602,-31 596,-37 590,-37 590,-37 560,-37 560,-37 554,-37 548,-31 548,-25 548,-25 548,-13 548,-13 548,-7 554,-1 560,-1"/>
<text text-anchor="middle" x="575" y="-15.2" font-family="Arial" font-size="16.00" fill="#000000">D</text>
</a>
</g>
</g>
<!-- J&#45;&gt;D -->
<g id="edge4" class="edge">
<title>J&#45;&gt;D</title>
<g id="a_edge4"><a xlink:title="ESCAPE: True">
<path fill="none" stroke="#000000" stroke-width="1.5" d="M58.1867,-10.9402C68.1676,-4.7753 79.7054,0 91.5,0 91.5,0 91.5,0 510.5,0 517.9857,0 525.7683,-1.1921 533.2293,-2.9792"/>
<polyline fill="none" stroke="#000000" stroke-width="1.5" points="45.6636,-19.8903 49.7315,-16.9831 "/>
<polygon fill="none" stroke="#000000" stroke-width="1.5" points="47.6964,-14.1355 57.8673,-11.1685 51.7666,-19.8306 47.6964,-14.1355"/>
<polygon fill="#000000" stroke="#000000" stroke-width="1.5" points="537.3131,-7.8282 547.8943,-7.2916 539.2879,-1.1125 537.3131,-7.8282"/>
<polyline fill="none" stroke="#000000" stroke-width="1.5" points="538.3005,-4.4704 533.5036,-3.0598 "/>
</a>
</g>
<g id="a_edge4&#45;label"><a xlink:title="mortality [parameter]:&#10;	mortality rate, assumed density&#45;dependent &#160;&#160;&#160;&#160;&#160;&#160;&#160;&#160;&#160;&#160;&#160;&#160;&#160;&#160;&#160;&#160;&#160;&#160;&#160;&#160;&#160;&#160;&#160;&#160;&#160;&#160;&#160;&#160;&#160;&#160;&#10;	mu * total_herd / K">
<text text-anchor="middle" x="278.5" y="-3.8" font-family="Times" font-size="14.00" fill="#000000">rate: mortality</text>
</a>
</g>
</g>
<!-- A&#45;&gt;J -->
<g id="edge2" class="edge">
<title>A&#45;&gt;J</title>
<path fill="none" stroke="#000000" stroke-width="1.5" stroke-dasharray="5,2" d="M251.1705,-55.0372C211.3829,-58.7758 135.3454,-63.3373 72,-52 71.0033,-51.8216 69.9979,-51.6278 68.9868,-51.4204"/>
<polygon fill="#000000" stroke="#000000" stroke-width="1.5" points="64.8909,-46.7665 54.3366,-47.6922 63.1645,-53.5503 64.8909,-46.7665"/>
<polyline fill="none" stroke="#000000" stroke-width="1.5" points="64.0277,-50.1584 68.8732,-51.3915 "/>
<g id="a_edge2&#45;label"><a xlink:title="b [parameter]:&#10;	birth rate &#160;&#160;&#160;&#160;&#160;&#160;&#160;&#160;&#160;&#160;&#160;&#160;&#160;&#160;&#160;&#160;&#160;&#160;&#160;&#160;&#160;&#160;&#160;&#160;&#160;&#160;&#160;&#160;&#160;&#160;&#160;&#160;&#160;&#160;&#160;&#160;&#160;&#160;&#160;&#160;&#160;&#160;&#160;&#160;&#160;&#160;&#160;&#160;&#160;&#160;&#160;&#160;&#160;&#160;&#160;&#160;&#160;&#160;&#160;&#160;&#160;&#10;	2 * mu">
<text text-anchor="middle" x="140" y="-63.8" font-family="Times" font-size="14.00" fill="#000000">rate: b</text>
</a>
</g>
</g>
<!-- A&#45;&gt;D -->
<g id="edge1" class="edge">
<title>A&#45;&gt;D</title>
<path fill="none" stroke="#000000" stroke-width="1.5" d="M305.5984,-48.984C357.3034,-43.2293 470.3928,-30.6426 532.3408,-23.7479"/>
<polygon fill="#000000" stroke="#000000" stroke-width="1.5" points="538.0912,-26.6296 547.6426,-22.0448 537.3168,-19.6725 538.0912,-26.6296"/>
<polyline fill="none" stroke="#000000" stroke-width="1.5" points="537.704,-23.151 532.7347,-23.7042 "/>
<g id="a_edge1&#45;label"><a xlink:title="mortality [parameter]:&#10;	mortality rate, assumed density&#45;dependent &#160;&#160;&#160;&#160;&#160;&#160;&#160;&#160;&#160;&#160;&#160;&#160;&#160;&#160;&#160;&#160;&#160;&#160;&#160;&#160;&#160;&#160;&#160;&#160;&#160;&#160;&#160;&#160;&#160;&#160;&#10;	mu * total_herd / K">
<text text-anchor="middle" x="439.5" y="-43.8" font-family="Times" font-size="14.00" fill="#000000">rate: mortality</text>
</a>
</g>
</g>
</g>
</svg>
