<?xml version="1.0" encoding="UTF-8" standalone="no"?>
<!DOCTYPE svg PUBLIC "-//W3C//DTD SVG 1.1//EN"
 "http://www.w3.org/Graphics/SVG/1.1/DTD/svg11.dtd">
<!-- Generated by graphviz version 2.40.1 (20161225.0304)
 -->
<!-- Title: %3 Pages: 1 -->
<svg width="588pt" height="82pt"
 viewBox="0.00 0.00 588.40 82.00" xmlns="http://www.w3.org/2000/svg" xmlns:xlink="http://www.w3.org/1999/xlink">
<g id="graph0" class="graph" transform="scale(1 1) rotate(0) translate(4 78)">
<title>%3</title>
<polygon fill="#ffffff" stroke="transparent" points="-4,4 -4,-78 584.4043,-78 584.4043,4 -4,4"/>
<!-- J -->
<g id="node1" class="node">
<title>J</title>
<g id="a_node1"><a xlink:title="J (Juveniles):&#10;	juvenile individuals">
<path fill="#a020f0" stroke="#000000" d="M12,-20C12,-20 42,-20 42,-20 48,-20 54,-26 54,-32 54,-32 54,-44 54,-44 54,-50 48,-56 42,-56 42,-56 12,-56 12,-56 6,-56 0,-50 0,-44 0,-44 0,-32 0,-32 0,-26 6,-20 12,-20"/>
<text text-anchor="middle" x="27" y="-34.7" font-family="Arial" font-size="16.00" fill="#000000">J</text>
</a>
</g>
</g>
<!-- A -->
<g id="node2" class="node">
<title>A</title>
<g id="a_node2"><a xlink:title="A (Adults):&#10;	adult individuals">
<path fill="#b03060" stroke="#000000" d="M279.8643,-33C279.8643,-33 309.8643,-33 309.8643,-33 315.8643,-33 321.8643,-39 321.8643,-45 321.8643,-45 321.8643,-57 321.8643,-57 321.8643,-63 315.8643,-69 309.8643,-69 309.8643,-69 279.8643,-69 279.8643,-69 273.8643,-69 267.8643,-63 267.8643,-57 267.8643,-57 267.8643,-45 267.8643,-45 267.8643,-39 273.8643,-33 279.8643,-33"/>
<text text-anchor="middle" x="294.8643" y="-47.7" font-family="Arial" font-size="16.00" fill="#000000">A</text>
</a>
</g>
</g>
<!-- J&#45;&gt;A -->
<g id="edge3" class="edge">
<title>J&#45;&gt;A</title>
<path fill="none" stroke="#000000" stroke-width="1.5" d="M54.1439,-37.4567C88.0703,-36.9754 147.8985,-36.778 199.0176,-40 216.6256,-41.1098 235.9708,-43.1687 252.6424,-45.2077"/>
<polygon fill="#000000" stroke="#000000" stroke-width="1.5" points="257.3007,-49.3306 267.6634,-47.125 258.187,-42.387 257.3007,-49.3306"/>
<polyline fill="none" stroke="#000000" stroke-width="1.5" points="257.7439,-45.8588 252.7841,-45.2257 "/>
<g id="a_edge3&#45;label"><a xlink:title="maturation [parameter]:&#10;	maturation rate, i.e. speed at which juveniles become adults &#160;&#160;&#160;&#160;&#160;&#160;&#160;&#160;&#160;&#160;&#160;&#10;	0.05">
<text text-anchor="middle" x="154.5088" y="-42.8" font-family="Times" font-size="14.00" fill="#000000">rate: maturation</text>
</a>
</g>
</g>
<!-- D -->
<g id="node3" class="node">
<title>D</title>
<g id="a_node3"><a xlink:title="D (Deceased):&#10;	decesased individuals (individuals in this state are removed automatically)">
<path fill="#ffffff" stroke="#000000" stroke-dasharray="1,5" d="M538.4043,-1C538.4043,-1 568.4043,-1 568.4043,-1 574.4043,-1 580.4043,-7 580.4043,-13 580.4043,-13 580.4043,-25 580.4043,-25 580.4043,-31 574.4043,-37 568.4043,-37 568.4043,-37 538.4043,-37 538.4043,-37 532.4043,-37 526.4043,-31 526.4043,-25 526.4043,-25 526.4043,-13 526.4043,-13 526.4043,-7 532.4043,-1 538.4043,-1"/>
<text text-anchor="middle" x="553.4043" y="-15.7" font-family="Arial" font-size="16.00" fill="#000000">D</text>
</a>
</g>
</g>
<!-- J&#45;&gt;D -->
<g id="edge4" class="edge">
<title>J&#45;&gt;D</title>
<path fill="none" stroke="#000000" stroke-width="1.5" d="M45.6636,-19.8903C57.7318,-10.103 74.3442,0 91.5,0 91.5,0 91.5,0 488.9043,0 496.39,0 504.1726,-1.1921 511.6336,-2.9792"/>
<polygon fill="#000000" stroke="#000000" stroke-width="1.5" points="515.7174,-7.8282 526.2986,-7.2916 517.6922,-1.1125 515.7174,-7.8282"/>
<polyline fill="none" stroke="#000000" stroke-width="1.5" points="516.7048,-4.4704 511.9079,-3.0598 "/>
<g id="a_edge4&#45;label"><a xlink:title="mortality [parameter]:&#10;	mortality rate, assumed density&#45;dependent &#160;&#160;&#160;&#160;&#160;&#160;&#160;&#160;&#160;&#160;&#160;&#160;&#160;&#160;&#160;&#160;&#160;&#160;&#160;&#160;&#160;&#160;&#160;&#160;&#160;&#160;&#160;&#160;&#160;&#160;&#10;	mu * total_herd / K">
<text text-anchor="middle" x="294.8643" y="-2.8" font-family="Times" font-size="14.00" fill="#000000">rate: mortality</text>
</a>
</g>
</g>
<!-- A&#45;&gt;J -->
<g id="edge2" class="edge">
<title>A&#45;&gt;J</title>
<path fill="none" stroke="#000000" stroke-width="1.5" stroke-dasharray="5,2" d="M267.836,-54.2406C225.6342,-58.6033 141.699,-64.4745 72,-52 71.0033,-51.8216 69.9979,-51.6278 68.9868,-51.4204"/>
<polygon fill="#000000" stroke="#000000" stroke-width="1.5" points="64.8909,-46.7665 54.3366,-47.6922 63.1645,-53.5503 64.8909,-46.7665"/>
<polyline fill="none" stroke="#000000" stroke-width="1.5" points="64.0277,-50.1584 68.8732,-51.3915 "/>
<g id="a_edge2&#45;label"><a xlink:title="b [parameter]:&#10;	birth rate &#160;&#160;&#160;&#160;&#160;&#160;&#160;&#160;&#160;&#160;&#160;&#160;&#160;&#160;&#160;&#160;&#160;&#160;&#160;&#160;&#160;&#160;&#160;&#160;&#160;&#160;&#160;&#160;&#160;&#160;&#160;&#160;&#160;&#160;&#160;&#160;&#160;&#160;&#160;&#160;&#160;&#160;&#160;&#160;&#160;&#160;&#160;&#160;&#160;&#160;&#160;&#160;&#160;&#160;&#160;&#160;&#160;&#160;&#160;&#160;&#160;&#10;	2 * mu">
<text text-anchor="middle" x="154.5088" y="-62.8" font-family="Times" font-size="14.00" fill="#000000">rate: b</text>
</a>
</g>
</g>
<!-- A&#45;&gt;D -->
<g id="edge1" class="edge">
<title>A&#45;&gt;D</title>
<path fill="none" stroke="#000000" stroke-width="1.5" d="M322.0439,-47.6359C367.1405,-42.0542 457.7474,-30.8396 511.2125,-24.2222"/>
<polygon fill="#000000" stroke="#000000" stroke-width="1.5" points="516.7065,-27.0689 526.2009,-22.367 515.8466,-20.1219 516.7065,-27.0689"/>
<polyline fill="none" stroke="#000000" stroke-width="1.5" points="516.2766,-23.5954 511.3145,-24.2096 "/>
<g id="a_edge1&#45;label"><a xlink:title="mortality [parameter]:&#10;	mortality rate, assumed density&#45;dependent &#160;&#160;&#160;&#160;&#160;&#160;&#160;&#160;&#160;&#160;&#160;&#160;&#160;&#160;&#160;&#160;&#160;&#160;&#160;&#160;&#160;&#160;&#160;&#160;&#160;&#160;&#160;&#160;&#160;&#160;&#10;	mu * total_herd / K">
<text text-anchor="middle" x="430.5576" y="-42.8" font-family="Times" font-size="14.00" fill="#000000">rate: mortality</text>
</a>
</g>
</g>
</g>
</svg>
