<?xml version="1.0" encoding="UTF-8" standalone="no"?>
<!DOCTYPE svg PUBLIC "-//W3C//DTD SVG 1.1//EN"
 "http://www.w3.org/Graphics/SVG/1.1/DTD/svg11.dtd">
<!-- Generated by graphviz version 2.40.1 (20161225.0304)
 -->
<!-- Title: %3 Pages: 1 -->
<svg width="668pt" height="79pt"
 viewBox="0.00 0.00 668.00 78.50" xmlns="http://www.w3.org/2000/svg" xmlns:xlink="http://www.w3.org/1999/xlink">
<g id="graph0" class="graph" transform="scale(1 1) rotate(0) translate(4 74.5)">
<title>%3</title>
<polygon fill="#ffffff" stroke="transparent" points="-4,4 -4,-74.5 664,-74.5 664,4 -4,4"/>
<!-- J -->
<g id="node1" class="node">
<title>J</title>
<g id="a_node1"><a xlink:title="J (Juveniles):&#10;	juvenile individuals">
<path fill="#a020f0" stroke="#000000" stroke-width="2" d="M12,-20C12,-20 42,-20 42,-20 48,-20 54,-26 54,-32 54,-32 54,-44 54,-44 54,-50 48,-56 42,-56 42,-56 12,-56 12,-56 6,-56 0,-50 0,-44 0,-44 0,-32 0,-32 0,-26 6,-20 12,-20"/>
<text text-anchor="middle" x="27" y="-34.2" font-family="Arial" font-size="16.00" fill="#000000">J</text>
</a>
</g>
</g>
<!-- A -->
<g id="node2" class="node">
<title>A</title>
<g id="a_node2"><a xlink:title="A (Adults):&#10;	adult individuals">
<path fill="#b03060" stroke="#000000" d="M321.5,-34C321.5,-34 351.5,-34 351.5,-34 357.5,-34 363.5,-40 363.5,-46 363.5,-46 363.5,-58 363.5,-58 363.5,-64 357.5,-70 351.5,-70 351.5,-70 321.5,-70 321.5,-70 315.5,-70 309.5,-64 309.5,-58 309.5,-58 309.5,-46 309.5,-46 309.5,-40 315.5,-34 321.5,-34"/>
<text text-anchor="middle" x="336.5" y="-48.2" font-family="Arial" font-size="16.00" fill="#000000">A</text>
</a>
</g>
</g>
<!-- J&#45;&gt;A -->
<g id="edge3" class="edge">
<title>J&#45;&gt;A</title>
<path fill="none" stroke="#000000" stroke-width="1.5" d="M54.2825,-36.7656C70.4722,-36.0951 91.4024,-35.336 110,-35 162.4359,-34.0527 175.7138,-30.9287 228,-35 250.049,-36.7169 274.392,-40.3679 294.4235,-43.848"/>
<polygon fill="#000000" stroke="#000000" stroke-width="1.5" points="298.9748,-48.2274 309.4379,-46.562 300.22,-41.339 298.9748,-48.2274"/>
<polyline fill="none" stroke="#000000" stroke-width="1.5" points="299.5974,-44.7832 294.6771,-43.8938 "/>
<g id="a_edge3&#45;label"><a xlink:title="maturation [parameter]:&#10;	maturation rate, i.e. speed at which juveniles become adults &#160;&#160;&#160;&#160;&#160;&#160;&#160;&#160;&#160;&#160;&#160;&#10;	0.05">
<text text-anchor="middle" x="169" y="-38.8" font-family="Times" font-size="14.00" fill="#000000">rate: maturation</text>
</a>
</g>
</g>
<!-- D -->
<g id="node3" class="node">
<title>D</title>
<g id="a_node3"><a xlink:title="D (Deceased):&#10;	decesased individuals (individuals in this state are removed automatically)">
<path fill="#ffffff" stroke="#000000" stroke-dasharray="1,5" d="M618,-1C618,-1 648,-1 648,-1 654,-1 660,-7 660,-13 660,-13 660,-25 660,-25 660,-31 654,-37 648,-37 648,-37 618,-37 618,-37 612,-37 606,-31 606,-25 606,-25 606,-13 606,-13 606,-7 612,-1 618,-1"/>
<text text-anchor="middle" x="633" y="-15.2" font-family="Arial" font-size="16.00" fill="#000000">D</text>
</a>
</g>
</g>
<!-- J&#45;&gt;D -->
<g id="edge4" class="edge">
<title>J&#45;&gt;D</title>
<path fill="none" stroke="#000000" stroke-width="1.5" d="M45.6636,-19.8903C57.7318,-10.103 74.3442,0 91.5,0 91.5,0 91.5,0 568.5,0 575.9857,0 583.7683,-1.1921 591.2293,-2.9792"/>
<polygon fill="#000000" stroke="#000000" stroke-width="1.5" points="595.3131,-7.8282 605.8943,-7.2916 597.2879,-1.1125 595.3131,-7.8282"/>
<polyline fill="none" stroke="#000000" stroke-width="1.5" points="596.3005,-4.4704 591.5036,-3.0598 "/>
<g id="a_edge4&#45;label"><a xlink:title="mortality [parameter]:&#10;	mortality rate, assumed density&#45;dependent &#160;&#160;&#160;&#160;&#160;&#160;&#160;&#160;&#160;&#160;&#160;&#160;&#160;&#160;&#160;&#160;&#160;&#160;&#160;&#160;&#160;&#160;&#160;&#160;&#160;&#160;&#160;&#160;&#160;&#160;&#10;	mu * total_herd / K">
<text text-anchor="middle" x="336.5" y="-3.8" font-family="Times" font-size="14.00" fill="#000000">rate: mortality</text>
</a>
</g>
</g>
<!-- A&#45;&gt;J -->
<g id="edge2" class="edge">
<title>A&#45;&gt;J</title>
<path fill="none" stroke="#000000" stroke-width="1.5" stroke-dasharray="5,2" d="M309.2998,-52.8566C266.7695,-54.0569 181.9389,-55.8918 110,-54 93.0936,-53.5554 88.6477,-54.9795 72,-52 71.0033,-51.8216 69.9979,-51.6278 68.9868,-51.4204"/>
<polygon fill="#000000" stroke="#000000" stroke-width="1.5" points="64.8909,-46.7665 54.3366,-47.6922 63.1645,-53.5503 64.8909,-46.7665"/>
<polyline fill="none" stroke="#000000" stroke-width="1.5" points="64.0277,-50.1584 68.8732,-51.3915 "/>
<g id="a_edge2&#45;label"><a xlink:title="b [parameter]:&#10;	birth rate &#160;&#160;&#160;&#160;&#160;&#160;&#160;&#160;&#160;&#160;&#160;&#160;&#160;&#160;&#160;&#160;&#160;&#160;&#160;&#160;&#160;&#160;&#160;&#160;&#160;&#160;&#160;&#160;&#160;&#160;&#160;&#160;&#160;&#160;&#160;&#160;&#160;&#160;&#160;&#160;&#160;&#160;&#160;&#160;&#160;&#160;&#160;&#160;&#160;&#160;&#160;&#160;&#160;&#160;&#160;&#160;&#160;&#160;&#160;&#160;&#160;&#10;	2 * mu">
<text text-anchor="middle" x="169" y="-58.8" font-family="Times" font-size="14.00" fill="#000000">rate: b</text>
</a>
</g>
</g>
<!-- A&#45;&gt;D -->
<g id="edge1" class="edge">
<title>A&#45;&gt;D</title>
<path fill="none" stroke="#000000" stroke-width="1.5" d="M363.5984,-48.984C415.3034,-43.2293 528.3928,-30.6426 590.3408,-23.7479"/>
<polygon fill="#000000" stroke="#000000" stroke-width="1.5" points="596.0912,-26.6296 605.6426,-22.0448 595.3168,-19.6725 596.0912,-26.6296"/>
<polyline fill="none" stroke="#000000" stroke-width="1.5" points="595.704,-23.151 590.7347,-23.7042 "/>
<g id="a_edge1&#45;label"><a xlink:title="mortality [parameter]:&#10;	mortality rate, assumed density&#45;dependent &#160;&#160;&#160;&#160;&#160;&#160;&#160;&#160;&#160;&#160;&#160;&#160;&#160;&#160;&#160;&#160;&#160;&#160;&#160;&#160;&#160;&#160;&#160;&#160;&#160;&#160;&#160;&#160;&#160;&#160;&#10;	mu * total_herd / K">
<text text-anchor="middle" x="497.5" y="-43.8" font-family="Times" font-size="14.00" fill="#000000">rate: mortality</text>
</a>
</g>
</g>
</g>
</svg>
