<?xml version="1.0" encoding="UTF-8" standalone="no"?>
<!DOCTYPE svg PUBLIC "-//W3C//DTD SVG 1.1//EN"
 "http://www.w3.org/Graphics/SVG/1.1/DTD/svg11.dtd">
<!-- Generated by graphviz version 2.40.1 (20161225.0304)
 -->
<!-- Title: %3 Pages: 1 -->
<svg width="845pt" height="62pt"
 viewBox="0.00 0.00 844.83 62.24" xmlns="http://www.w3.org/2000/svg" xmlns:xlink="http://www.w3.org/1999/xlink">
<g id="graph0" class="graph" transform="scale(1 1) rotate(0) translate(4 58.2422)">
<title>%3</title>
<polygon fill="#ffffff" stroke="transparent" points="-4,4 -4,-58.2422 840.8301,-58.2422 840.8301,4 -4,4"/>
<!-- S -->
<g id="node1" class="node">
<title>S</title>
<g id="a_node1"><a xlink:title="S (Susceptible):&#10;	suceptible of becoming infected">
<path fill="#32cd32" stroke="#000000" d="M12,-9.1211C12,-9.1211 42,-9.1211 42,-9.1211 48,-9.1211 54,-15.1211 54,-21.1211 54,-21.1211 54,-33.1211 54,-33.1211 54,-39.1211 48,-45.1211 42,-45.1211 42,-45.1211 12,-45.1211 12,-45.1211 6,-45.1211 0,-39.1211 0,-33.1211 0,-33.1211 0,-21.1211 0,-21.1211 0,-15.1211 6,-9.1211 12,-9.1211"/>
<text text-anchor="middle" x="27" y="-23.8211" font-family="Arial" font-size="16.00" fill="#000000">S</text>
</a>
</g>
</g>
<!-- E -->
<g id="node2" class="node">
<title>E</title>
<g id="a_node2"><a xlink:title="E (Exposed):&#10;	infected individuals, not yet infectious">
<path fill="#00ffff" stroke="#000000" d="M310.542,-9.1211C310.542,-9.1211 340.542,-9.1211 340.542,-9.1211 346.542,-9.1211 352.542,-15.1211 352.542,-21.1211 352.542,-21.1211 352.542,-33.1211 352.542,-33.1211 352.542,-39.1211 346.542,-45.1211 340.542,-45.1211 340.542,-45.1211 310.542,-45.1211 310.542,-45.1211 304.542,-45.1211 298.542,-39.1211 298.542,-33.1211 298.542,-33.1211 298.542,-21.1211 298.542,-21.1211 298.542,-15.1211 304.542,-9.1211 310.542,-9.1211"/>
<text text-anchor="middle" x="325.542" y="-24.3211" font-family="Arial" font-size="16.00" fill="#000000">E ◷</text>
</a>
</g>
</g>
<!-- S&#45;&gt;E -->
<g id="edge3" class="edge">
<title>S&#45;&gt;E</title>
<path fill="none" stroke="#000000" stroke-width="1.5" d="M54.0202,-27.1211C106.0648,-27.1211 220.574,-27.1211 282.9705,-27.1211"/>
<polygon fill="#000000" stroke="#000000" stroke-width="1.5" points="288.3678,-30.6212 298.3678,-27.1211 288.3678,-23.6212 288.3678,-30.6212"/>
<polyline fill="none" stroke="#000000" stroke-width="1.5" points="288.3678,-27.1212 283.3678,-27.1212 "/>
<g id="a_edge3&#45;label"><a xlink:title="force_of_infection [parameter]:&#10;	infection function assuming frequency dependence &#160;&#160;&#160;&#160;&#160;&#160;&#160;&#160;&#160;&#160;&#160;&#160;&#160;&#160;&#160;&#160;&#160;&#160;&#160;&#160;&#160;&#160;&#160;&#10;	total_beta / total_herd">
<text text-anchor="middle" x="176.271" y="-29.9211" font-family="Times" font-size="14.00" fill="#000000">rate: force_of_infection</text>
</a>
</g>
</g>
<!-- I -->
<g id="node3" class="node">
<title>I</title>
<g id="a_node3"><a xlink:title="I (Infectious):&#10;	infected and able to transmit the disease">
<path fill="#b22222" stroke="#000000" d="M522.8076,-.5C522.8076,-.5 581.4951,-.5 581.4951,-.5 587.4951,-.5 593.4951,-6.5 593.4951,-12.5 593.4951,-12.5 593.4951,-41.7422 593.4951,-41.7422 593.4951,-47.7422 587.4951,-53.7422 581.4951,-53.7422 581.4951,-53.7422 522.8076,-53.7422 522.8076,-53.7422 516.8076,-53.7422 510.8076,-47.7422 510.8076,-41.7422 510.8076,-41.7422 510.8076,-12.5 510.8076,-12.5 510.8076,-6.5 516.8076,-.5 522.8076,-.5"/>
<text text-anchor="middle" x="524.5889" y="-23.743" font-family="Arial" font-size="16.00" fill="#000000">◆</text>
<polyline fill="none" stroke="#000000" points="538.3701,-.5 538.3701,-53.7422 "/>
<text text-anchor="middle" x="552.1514" y="-36.9422" font-family="Arial" font-size="16.00" fill="#000000">I </text>
<polyline fill="none" stroke="#000000" points="538.3701,-27.3438 565.9326,-27.3438 "/>
<text text-anchor="middle" x="552.1514" y="-10.5438" font-family="Arial" font-size="16.00" fill="#000000">◆</text>
<polyline fill="none" stroke="#000000" points="565.9326,-.5 565.9326,-53.7422 "/>
<text text-anchor="middle" x="579.7139" y="-23.743" font-family="Arial" font-size="16.00" fill="#000000">◆</text>
</a>
</g>
</g>
<!-- E&#45;&gt;I -->
<g id="edge1" class="edge">
<title>E&#45;&gt;I</title>
<path fill="none" stroke="#000000" stroke-width="1.5" d="M352.8764,-27.1211C388.0184,-27.1211 449.9267,-27.1211 495.4413,-27.1211"/>
<polygon fill="#000000" stroke="#000000" stroke-width="1.5" points="500.4857,-30.6212 510.4857,-27.1211 500.4856,-23.6212 500.4857,-30.6212"/>
<polyline fill="none" stroke="#000000" stroke-width="1.5" points="500.4857,-27.1212 495.4857,-27.1212 "/>
<g id="a_edge1&#45;label"><a xlink:title="proba: 1">
<text text-anchor="middle" x="431.6748" y="-29.9211" font-family="Times" font-size="14.00" fill="#000000">proba: 1</text>
</a>
</g>
</g>
<!-- R -->
<g id="node4" class="node">
<title>R</title>
<g id="a_node4"><a xlink:title="R (Resistant):&#10;	healthy again and resistant to infection">
<path fill="#00bfff" stroke="#000000" d="M794.8301,-9.1211C794.8301,-9.1211 824.8301,-9.1211 824.8301,-9.1211 830.8301,-9.1211 836.8301,-15.1211 836.8301,-21.1211 836.8301,-21.1211 836.8301,-33.1211 836.8301,-33.1211 836.8301,-39.1211 830.8301,-45.1211 824.8301,-45.1211 824.8301,-45.1211 794.8301,-45.1211 794.8301,-45.1211 788.8301,-45.1211 782.8301,-39.1211 782.8301,-33.1211 782.8301,-33.1211 782.8301,-21.1211 782.8301,-21.1211 782.8301,-15.1211 788.8301,-9.1211 794.8301,-9.1211"/>
<text text-anchor="middle" x="809.8301" y="-23.8211" font-family="Arial" font-size="16.00" fill="#000000">R</text>
</a>
</g>
</g>
<!-- I&#45;&gt;R -->
<g id="edge2" class="edge">
<title>I&#45;&gt;R</title>
<path fill="none" stroke="#000000" stroke-width="1.5" d="M593.5519,-27.1211C641.3553,-27.1211 719.5657,-27.1211 767.683,-27.1211"/>
<polygon fill="#000000" stroke="#000000" stroke-width="1.5" points="772.7599,-30.6212 782.7599,-27.1211 772.7599,-23.6212 772.7599,-30.6212"/>
<polyline fill="none" stroke="#000000" stroke-width="1.5" points="772.7599,-27.1212 767.7599,-27.1212 "/>
<g id="a_edge2&#45;label"><a xlink:title="recovery [parameter]:&#10;	recovery rate (/day) &#160;&#160;&#160;&#160;&#160;&#160;&#160;&#160;&#160;&#160;&#160;&#160;&#160;&#160;&#160;&#160;&#160;&#160;&#160;&#160;&#160;&#160;&#160;&#160;&#160;&#160;&#160;&#160;&#160;&#160;&#160;&#160;&#160;&#160;&#160;&#160;&#160;&#160;&#160;&#160;&#160;&#160;&#160;&#160;&#160;&#160;&#160;&#160;&#160;&#160;&#160;&#10;	0.1">
<text text-anchor="middle" x="688.1626" y="-29.9211" font-family="Times" font-size="14.00" fill="#000000">rate: recovery</text>
</a>
</g>
</g>
</g>
</svg>
