<?xml version="1.0" encoding="UTF-8" standalone="no"?>
<!DOCTYPE svg PUBLIC "-//W3C//DTD SVG 1.1//EN"
 "http://www.w3.org/Graphics/SVG/1.1/DTD/svg11.dtd">
<!-- Generated by graphviz version 2.40.1 (20161225.0304)
 -->
<!-- Title: %3 Pages: 1 -->
<svg width="546pt" height="81pt"
 viewBox="0.00 0.00 545.65 81.00" xmlns="http://www.w3.org/2000/svg" xmlns:xlink="http://www.w3.org/1999/xlink">
<g id="graph0" class="graph" transform="scale(1 1) rotate(0) translate(4 77)">
<title>%3</title>
<polygon fill="#ffffff" stroke="transparent" points="-4,4 -4,-77 541.6523,-77 541.6523,4 -4,4"/>
<!-- J -->
<g id="node1" class="node">
<title>J</title>
<g id="a_node1"><a xlink:title="J (Juveniles):&#10;	juvenile individuals">
<path fill="#ff1493" stroke="#000000" stroke-width="2" d="M12,-20C12,-20 42,-20 42,-20 48,-20 54,-26 54,-32 54,-32 54,-44 54,-44 54,-50 48,-56 42,-56 42,-56 12,-56 12,-56 6,-56 0,-50 0,-44 0,-44 0,-32 0,-32 0,-26 6,-20 12,-20"/>
<text text-anchor="middle" x="27" y="-35.2" font-family="Arial" font-size="16.00" fill="#000000">J ◷</text>
</a>
</g>
</g>
<!-- A -->
<g id="node2" class="node">
<title>A</title>
<g id="a_node2"><a xlink:title="A (Adults):&#10;	adult individuals">
<path fill="#a52a2a" stroke="#000000" d="M237.1123,-33C237.1123,-33 267.1123,-33 267.1123,-33 273.1123,-33 279.1123,-39 279.1123,-45 279.1123,-45 279.1123,-57 279.1123,-57 279.1123,-63 273.1123,-69 267.1123,-69 267.1123,-69 237.1123,-69 237.1123,-69 231.1123,-69 225.1123,-63 225.1123,-57 225.1123,-57 225.1123,-45 225.1123,-45 225.1123,-39 231.1123,-33 237.1123,-33"/>
<text text-anchor="middle" x="252.1123" y="-47.7" font-family="Arial" font-size="16.00" fill="#000000">A</text>
</a>
</g>
</g>
<!-- J&#45;&gt;A -->
<g id="edge3" class="edge">
<title>J&#45;&gt;A</title>
<path fill="none" stroke="#000000" stroke-width="1.5" d="M54.2699,-37.2881C80.4546,-36.8226 121.1078,-36.6711 156.2656,-39 173.8918,-40.1676 193.2402,-42.406 209.9093,-44.6363"/>
<polygon fill="#000000" stroke="#000000" stroke-width="1.5" points="214.5379,-48.8178 224.9264,-46.737 215.5077,-41.8853 214.5379,-48.8178"/>
<polyline fill="none" stroke="#000000" stroke-width="1.5" points="215.0228,-45.3516 210.071,-44.6589 "/>
<g id="a_edge3&#45;label"><a xlink:title="proba: 1">
<text text-anchor="middle" x="133.1328" y="-41.8" font-family="Times" font-size="14.00" fill="#000000">proba: 1</text>
</a>
</g>
</g>
<!-- D -->
<g id="node3" class="node">
<title>D</title>
<g id="a_node3"><a xlink:title="D (Deceased):&#10;	decesased individuals (individuals in this state are removed automatically)">
<path fill="#ffffff" stroke="#000000" stroke-dasharray="1,5" d="M495.6523,-1C495.6523,-1 525.6523,-1 525.6523,-1 531.6523,-1 537.6523,-7 537.6523,-13 537.6523,-13 537.6523,-25 537.6523,-25 537.6523,-31 531.6523,-37 525.6523,-37 525.6523,-37 495.6523,-37 495.6523,-37 489.6523,-37 483.6523,-31 483.6523,-25 483.6523,-25 483.6523,-13 483.6523,-13 483.6523,-7 489.6523,-1 495.6523,-1"/>
<text text-anchor="middle" x="510.6523" y="-15.7" font-family="Arial" font-size="16.00" fill="#000000">D</text>
</a>
</g>
</g>
<!-- J&#45;&gt;D -->
<g id="edge4" class="edge">
<title>J&#45;&gt;D</title>
<g id="a_edge4"><a xlink:title="ESCAPE: True">
<path fill="none" stroke="#000000" stroke-width="1.5" d="M58.1867,-10.9402C68.1676,-4.7753 79.7054,0 91.5,0 91.5,0 91.5,0 446.1523,0 453.6381,0 461.4206,-1.1921 468.8816,-2.9792"/>
<polyline fill="none" stroke="#000000" stroke-width="1.5" points="45.6636,-19.8903 49.7315,-16.9831 "/>
<polygon fill="none" stroke="#000000" stroke-width="1.5" points="47.6964,-14.1355 57.8673,-11.1685 51.7666,-19.8306 47.6964,-14.1355"/>
<polygon fill="#000000" stroke="#000000" stroke-width="1.5" points="472.9654,-7.8282 483.5467,-7.2916 474.9403,-1.1125 472.9654,-7.8282"/>
<polyline fill="none" stroke="#000000" stroke-width="1.5" points="473.9529,-4.4704 469.1559,-3.0598 "/>
</a>
</g>
<g id="a_edge4&#45;label"><a xlink:title="mortality [parameter]:&#10;	mortality rate, assumed density&#45;dependent &#160;&#160;&#160;&#160;&#160;&#160;&#160;&#160;&#160;&#160;&#160;&#160;&#160;&#160;&#160;&#160;&#160;&#160;&#160;&#160;&#160;&#160;&#160;&#160;&#160;&#160;&#160;&#160;&#160;&#160;&#10;	mu * total_herd / K">
<text text-anchor="middle" x="252.1123" y="-2.8" font-family="Times" font-size="14.00" fill="#000000">rate: mortality</text>
</a>
</g>
</g>
<!-- A&#45;&gt;J -->
<g id="edge2" class="edge">
<title>A&#45;&gt;J</title>
<path fill="none" stroke="#000000" stroke-width="1.5" stroke-dasharray="5,2" d="M224.9975,-54.1926C189.5185,-57.6789 125.5587,-61.5857 72,-52 71.0033,-51.8216 69.9979,-51.6278 68.9868,-51.4204"/>
<polygon fill="#000000" stroke="#000000" stroke-width="1.5" points="64.8909,-46.7665 54.3366,-47.6922 63.1645,-53.5503 64.8909,-46.7665"/>
<polyline fill="none" stroke="#000000" stroke-width="1.5" points="64.0277,-50.1584 68.8732,-51.3915 "/>
<g id="a_edge2&#45;label"><a xlink:title="b [parameter]:&#10;	birth rate &#160;&#160;&#160;&#160;&#160;&#160;&#160;&#160;&#160;&#160;&#160;&#160;&#160;&#160;&#160;&#160;&#160;&#160;&#160;&#160;&#160;&#160;&#160;&#160;&#160;&#160;&#160;&#160;&#160;&#160;&#160;&#160;&#160;&#160;&#160;&#160;&#160;&#160;&#160;&#160;&#160;&#160;&#160;&#160;&#160;&#160;&#160;&#160;&#160;&#160;&#160;&#160;&#160;&#160;&#160;&#160;&#160;&#160;&#160;&#160;&#160;&#10;	2 * mu">
<text text-anchor="middle" x="133.1328" y="-61.8" font-family="Times" font-size="14.00" fill="#000000">rate: b</text>
</a>
</g>
</g>
<!-- A&#45;&gt;D -->
<g id="edge1" class="edge">
<title>A&#45;&gt;D</title>
<path fill="none" stroke="#000000" stroke-width="1.5" d="M279.292,-47.6359C324.3885,-42.0542 414.9954,-30.8396 468.4606,-24.2222"/>
<polygon fill="#000000" stroke="#000000" stroke-width="1.5" points="473.9546,-27.0689 483.4489,-22.367 473.0947,-20.1219 473.9546,-27.0689"/>
<polyline fill="none" stroke="#000000" stroke-width="1.5" points="473.5246,-23.5954 468.5625,-24.2096 "/>
<g id="a_edge1&#45;label"><a xlink:title="mortality [parameter]:&#10;	mortality rate, assumed density&#45;dependent &#160;&#160;&#160;&#160;&#160;&#160;&#160;&#160;&#160;&#160;&#160;&#160;&#160;&#160;&#160;&#160;&#160;&#160;&#160;&#160;&#160;&#160;&#160;&#160;&#160;&#160;&#160;&#160;&#160;&#160;&#10;	mu * total_herd / K">
<text text-anchor="middle" x="387.8057" y="-42.8" font-family="Times" font-size="14.00" fill="#000000">rate: mortality</text>
</a>
</g>
</g>
</g>
</svg>
