<?xml version="1.0" encoding="UTF-8" standalone="no"?>
<!DOCTYPE svg PUBLIC "-//W3C//DTD SVG 1.1//EN"
 "http://www.w3.org/Graphics/SVG/1.1/DTD/svg11.dtd">
<!-- Generated by graphviz version 2.40.1 (20161225.0304)
 -->
<!-- Title: %3 Pages: 1 -->
<svg width="816pt" height="45pt"
 viewBox="0.00 0.00 816.14 45.00" xmlns="http://www.w3.org/2000/svg" xmlns:xlink="http://www.w3.org/1999/xlink">
<g id="graph0" class="graph" transform="scale(1 1) rotate(0) translate(4 41)">
<title>%3</title>
<polygon fill="#ffffff" stroke="transparent" points="-4,4 -4,-41 812.1426,-41 812.1426,4 -4,4"/>
<!-- S -->
<g id="node1" class="node">
<title>S</title>
<g id="a_node1"><a xlink:title="S (Susceptible):&#10;	suceptible of becoming infected">
<path fill="#32cd32" stroke="#000000" d="M12,-.5C12,-.5 42,-.5 42,-.5 48,-.5 54,-6.5 54,-12.5 54,-12.5 54,-24.5 54,-24.5 54,-30.5 48,-36.5 42,-36.5 42,-36.5 12,-36.5 12,-36.5 6,-36.5 0,-30.5 0,-24.5 0,-24.5 0,-12.5 0,-12.5 0,-6.5 6,-.5 12,-.5"/>
<text text-anchor="middle" x="27" y="-15.2" font-family="Arial" font-size="16.00" fill="#000000">S</text>
</a>
</g>
</g>
<!-- E -->
<g id="node2" class="node">
<title>E</title>
<g id="a_node2"><a xlink:title="E (Exposed):&#10;	infected individuals, not yet infectious">
<path fill="#00ffff" stroke="#000000" d="M310.542,-.5C310.542,-.5 340.542,-.5 340.542,-.5 346.542,-.5 352.542,-6.5 352.542,-12.5 352.542,-12.5 352.542,-24.5 352.542,-24.5 352.542,-30.5 346.542,-36.5 340.542,-36.5 340.542,-36.5 310.542,-36.5 310.542,-36.5 304.542,-36.5 298.542,-30.5 298.542,-24.5 298.542,-24.5 298.542,-12.5 298.542,-12.5 298.542,-6.5 304.542,-.5 310.542,-.5"/>
<text text-anchor="middle" x="325.542" y="-15.7" font-family="Arial" font-size="16.00" fill="#000000">E ◷</text>
</a>
</g>
</g>
<!-- S&#45;&gt;E -->
<g id="edge3" class="edge">
<title>S&#45;&gt;E</title>
<path fill="none" stroke="#000000" stroke-width="1.5" d="M54.0202,-18.5C106.0648,-18.5 220.574,-18.5 282.9705,-18.5"/>
<polygon fill="#000000" stroke="#000000" stroke-width="1.5" points="288.3678,-22.0001 298.3678,-18.5 288.3678,-15.0001 288.3678,-22.0001"/>
<polyline fill="none" stroke="#000000" stroke-width="1.5" points="288.3678,-18.5001 283.3678,-18.5001 "/>
<g id="a_edge3&#45;label"><a xlink:title="force_of_infection [parameter]:&#10;	infection function assuming frequency dependence &#160;&#160;&#160;&#160;&#160;&#160;&#160;&#160;&#160;&#160;&#160;&#160;&#160;&#160;&#160;&#160;&#160;&#160;&#160;&#160;&#160;&#160;&#160;&#10;	transmission_I * total_I / total_herd">
<text text-anchor="middle" x="176.271" y="-21.3" font-family="Times" font-size="14.00" fill="#000000">rate: force_of_infection</text>
</a>
</g>
</g>
<!-- I -->
<g id="node3" class="node">
<title>I</title>
<g id="a_node3"><a xlink:title="I (Infectious):&#10;	infected and able to transmit the disease">
<path fill="#b22222" stroke="#000000" d="M522.8076,-.5C522.8076,-.5 552.8076,-.5 552.8076,-.5 558.8076,-.5 564.8076,-6.5 564.8076,-12.5 564.8076,-12.5 564.8076,-24.5 564.8076,-24.5 564.8076,-30.5 558.8076,-36.5 552.8076,-36.5 552.8076,-36.5 522.8076,-36.5 522.8076,-36.5 516.8076,-36.5 510.8076,-30.5 510.8076,-24.5 510.8076,-24.5 510.8076,-12.5 510.8076,-12.5 510.8076,-6.5 516.8076,-.5 522.8076,-.5"/>
<text text-anchor="middle" x="537.8076" y="-15.2" font-family="Arial" font-size="16.00" fill="#000000">I</text>
</a>
</g>
</g>
<!-- E&#45;&gt;I -->
<g id="edge1" class="edge">
<title>E&#45;&gt;I</title>
<path fill="none" stroke="#000000" stroke-width="1.5" d="M352.8575,-18.5C388.9981,-18.5 453.0728,-18.5 495.4998,-18.5"/>
<polygon fill="#000000" stroke="#000000" stroke-width="1.5" points="500.597,-22.0001 510.597,-18.5 500.597,-15.0001 500.597,-22.0001"/>
<polyline fill="none" stroke="#000000" stroke-width="1.5" points="500.597,-18.5001 495.597,-18.5001 "/>
<g id="a_edge1&#45;label"><a xlink:title="proba: 1">
<text text-anchor="middle" x="431.6748" y="-21.3" font-family="Times" font-size="14.00" fill="#000000">proba: 1</text>
</a>
</g>
</g>
<!-- R -->
<g id="node4" class="node">
<title>R</title>
<g id="a_node4"><a xlink:title="R (Resistant):&#10;	healthy again and resistant to infection">
<path fill="#00bfff" stroke="#000000" d="M766.1426,-.5C766.1426,-.5 796.1426,-.5 796.1426,-.5 802.1426,-.5 808.1426,-6.5 808.1426,-12.5 808.1426,-12.5 808.1426,-24.5 808.1426,-24.5 808.1426,-30.5 802.1426,-36.5 796.1426,-36.5 796.1426,-36.5 766.1426,-36.5 766.1426,-36.5 760.1426,-36.5 754.1426,-30.5 754.1426,-24.5 754.1426,-24.5 754.1426,-12.5 754.1426,-12.5 754.1426,-6.5 760.1426,-.5 766.1426,-.5"/>
<text text-anchor="middle" x="781.1426" y="-15.2" font-family="Arial" font-size="16.00" fill="#000000">R</text>
</a>
</g>
</g>
<!-- I&#45;&gt;R -->
<g id="edge2" class="edge">
<title>I&#45;&gt;R</title>
<path fill="none" stroke="#000000" stroke-width="1.5" d="M565.2482,-18.5C607.4393,-18.5 688.582,-18.5 738.4829,-18.5"/>
<polygon fill="#000000" stroke="#000000" stroke-width="1.5" points="743.8023,-22.0001 753.8023,-18.5 743.8022,-15.0001 743.8023,-22.0001"/>
<polyline fill="none" stroke="#000000" stroke-width="1.5" points="743.8023,-18.5001 738.8023,-18.5001 "/>
<g id="a_edge2&#45;label"><a xlink:title="recovery [parameter]:&#10;	recovery rate (/day) &#160;&#160;&#160;&#160;&#160;&#160;&#160;&#160;&#160;&#160;&#160;&#160;&#160;&#160;&#160;&#160;&#160;&#160;&#160;&#160;&#160;&#160;&#160;&#160;&#160;&#160;&#160;&#160;&#160;&#160;&#160;&#160;&#160;&#160;&#160;&#160;&#160;&#160;&#160;&#160;&#160;&#160;&#160;&#160;&#160;&#160;&#160;&#160;&#160;&#160;&#160;&#10;	0.1">
<text text-anchor="middle" x="659.4751" y="-21.3" font-family="Times" font-size="14.00" fill="#000000">rate: recovery</text>
</a>
</g>
</g>
</g>
</svg>
