<?xml version="1.0" encoding="UTF-8" standalone="no"?>
<!DOCTYPE svg PUBLIC "-//W3C//DTD SVG 1.1//EN"
 "http://www.w3.org/Graphics/SVG/1.1/DTD/svg11.dtd">
<!-- Generated by graphviz version 2.40.1 (20161225.0304)
 -->
<!-- Title: %3 Pages: 1 -->
<svg width="1490pt" height="45pt"
 viewBox="0.00 0.00 1490.36 45.00" xmlns="http://www.w3.org/2000/svg" xmlns:xlink="http://www.w3.org/1999/xlink">
<g id="graph0" class="graph" transform="scale(1 1) rotate(0) translate(4 41)">
<title>%3</title>
<polygon fill="#ffffff" stroke="transparent" points="-4,4 -4,-41 1486.3613,-41 1486.3613,4 -4,4"/>
<!-- S -->
<g id="node1" class="node">
<title>S</title>
<g id="a_node1"><a xlink:title="S (Susceptible):&#10;	suceptible of becoming infected">
<path fill="#00bfff" stroke="#000000" stroke-width="2" d="M12,-.5C12,-.5 42,-.5 42,-.5 48,-.5 54,-6.5 54,-12.5 54,-12.5 54,-24.5 54,-24.5 54,-30.5 48,-36.5 42,-36.5 42,-36.5 12,-36.5 12,-36.5 6,-36.5 0,-30.5 0,-24.5 0,-24.5 0,-12.5 0,-12.5 0,-6.5 6,-.5 12,-.5"/>
<text text-anchor="middle" x="27" y="-15.2" font-family="Arial" font-size="16.00" fill="#000000">S</text>
</a>
</g>
</g>
<!-- I -->
<g id="node2" class="node">
<title>I</title>
<g id="a_node2"><a xlink:title="I (Infectious):&#10;	infected and able to transmit the disease">
<path fill="#ff0000" stroke="#000000" d="M1033.8115,-.5C1033.8115,-.5 1063.8115,-.5 1063.8115,-.5 1069.8115,-.5 1075.8115,-6.5 1075.8115,-12.5 1075.8115,-12.5 1075.8115,-24.5 1075.8115,-24.5 1075.8115,-30.5 1069.8115,-36.5 1063.8115,-36.5 1063.8115,-36.5 1033.8115,-36.5 1033.8115,-36.5 1027.8115,-36.5 1021.8115,-30.5 1021.8115,-24.5 1021.8115,-24.5 1021.8115,-12.5 1021.8115,-12.5 1021.8115,-6.5 1027.8115,-.5 1033.8115,-.5"/>
<text text-anchor="middle" x="1048.8115" y="-15.2" font-family="Arial" font-size="16.00" fill="#000000">I</text>
</a>
</g>
</g>
<!-- S&#45;&gt;I -->
<g id="edge2" class="edge">
<title>S&#45;&gt;I</title>
<path fill="none" stroke="#000000" stroke-width="1.5" d="M54.0678,-18.5C193.872,-18.5 834.2912,-18.5 1006.2237,-18.5"/>
<polygon fill="#000000" stroke="#000000" stroke-width="1.5" points="1011.3674,-22.0001 1021.3673,-18.5 1011.3673,-15.0001 1011.3674,-22.0001"/>
<polyline fill="none" stroke="#000000" stroke-width="1.5" points="1011.3673,-18.5001 1006.3673,-18.5001 "/>
<g id="a_edge2&#45;label"><a xlink:title="rate: is_H * (is_J * force_infection_juveniles + is_A * force_infection_adults + force_of_infection_due_to_vectors) + is_V * force_of_infection_vectors">
<text text-anchor="middle" x="537.9058" y="-21.3" font-family="Times" font-size="14.00" fill="#000000">rate: is_H * (is_J * force_infection_juveniles + is_A * force_infection_adults + force_of_infection_due_to_vectors) + is_V * force_of_infection_vectors</text>
</a>
</g>
</g>
<!-- R -->
<g id="node3" class="node">
<title>R</title>
<g id="a_node3"><a xlink:title="R (Resistant):&#10;	recovered and resistant to new infections">
<path fill="#32cd32" stroke="#000000" d="M1440.3613,-.5C1440.3613,-.5 1470.3613,-.5 1470.3613,-.5 1476.3613,-.5 1482.3613,-6.5 1482.3613,-12.5 1482.3613,-12.5 1482.3613,-24.5 1482.3613,-24.5 1482.3613,-30.5 1476.3613,-36.5 1470.3613,-36.5 1470.3613,-36.5 1440.3613,-36.5 1440.3613,-36.5 1434.3613,-36.5 1428.3613,-30.5 1428.3613,-24.5 1428.3613,-24.5 1428.3613,-12.5 1428.3613,-12.5 1428.3613,-6.5 1434.3613,-.5 1440.3613,-.5"/>
<text text-anchor="middle" x="1455.3613" y="-15.2" font-family="Arial" font-size="16.00" fill="#000000">R</text>
</a>
</g>
</g>
<!-- I&#45;&gt;R -->
<g id="edge1" class="edge">
<title>I&#45;&gt;R</title>
<path fill="none" stroke="#000000" stroke-width="1.5" d="M1076.1177,-18.5C1145.6234,-18.5 1329.6329,-18.5 1413.1127,-18.5"/>
<polygon fill="#000000" stroke="#000000" stroke-width="1.5" points="1418.174,-22.0001 1428.174,-18.5 1418.174,-15.0001 1418.174,-22.0001"/>
<polyline fill="none" stroke="#000000" stroke-width="1.5" points="1418.174,-18.5001 1413.174,-18.5001 "/>
<g id="a_edge1&#45;label"><a xlink:title="rate: is_H * gamma_H + is_V * gamma_V">
<text text-anchor="middle" x="1252.0864" y="-21.3" font-family="Times" font-size="14.00" fill="#000000">rate: is_H * gamma_H + is_V * gamma_V</text>
</a>
</g>
</g>
</g>
</svg>
