<?xml version="1.0" encoding="UTF-8" standalone="no"?>
<!DOCTYPE svg PUBLIC "-//W3C//DTD SVG 1.1//EN"
 "http://www.w3.org/Graphics/SVG/1.1/DTD/svg11.dtd">
<!-- Generated by graphviz version 2.40.1 (20161225.0304)
 -->
<!-- Title: %3 Pages: 1 -->
<svg width="868pt" height="74pt"
 viewBox="0.00 0.00 868.23 73.50" xmlns="http://www.w3.org/2000/svg" xmlns:xlink="http://www.w3.org/1999/xlink">
<g id="graph0" class="graph" transform="scale(1 1) rotate(0) translate(4 69.5)">
<title>%3</title>
<polygon fill="#ffffff" stroke="transparent" points="-4,4 -4,-69.5 864.2324,-69.5 864.2324,4 -4,4"/>
<!-- S -->
<g id="node1" class="node">
<title>S</title>
<g id="a_node1"><a xlink:title="S (Susceptible):&#10;	suceptible of becoming infected">
<path fill="#f5deb3" stroke="#000000" d="M12,-1C12,-1 42,-1 42,-1 48,-1 54,-7 54,-13 54,-13 54,-25 54,-25 54,-31 48,-37 42,-37 42,-37 12,-37 12,-37 6,-37 0,-31 0,-25 0,-25 0,-13 0,-13 0,-7 6,-1 12,-1"/>
<text text-anchor="middle" x="27" y="-15.7" font-family="Arial" font-size="16.00" fill="#000000">S</text>
</a>
</g>
</g>
<!-- E -->
<g id="node2" class="node">
<title>E</title>
<g id="a_node2"><a xlink:title="E (Latent):&#10;	infected but not yet able to transmit the disease">
<path fill="#ffa500" stroke="#000000" d="M310.542,-29C310.542,-29 340.542,-29 340.542,-29 346.542,-29 352.542,-35 352.542,-41 352.542,-41 352.542,-53 352.542,-53 352.542,-59 346.542,-65 340.542,-65 340.542,-65 310.542,-65 310.542,-65 304.542,-65 298.542,-59 298.542,-53 298.542,-53 298.542,-41 298.542,-41 298.542,-35 304.542,-29 310.542,-29"/>
<text text-anchor="middle" x="325.542" y="-43.7" font-family="Arial" font-size="16.00" fill="#000000">E</text>
</a>
</g>
</g>
<!-- S&#45;&gt;E -->
<g id="edge4" class="edge">
<title>S&#45;&gt;E</title>
<path fill="none" stroke="#000000" stroke-width="1.5" d="M54.0202,-21.5342C106.1756,-26.4258 221.0616,-37.2009 283.368,-43.0445"/>
<polygon fill="#000000" stroke="#000000" stroke-width="1.5" points="288.0846,-47.0022 298.3678,-44.4514 288.7383,-40.0328 288.0846,-47.0022"/>
<polyline fill="none" stroke="#000000" stroke-width="1.5" points="288.4115,-43.5175 283.4333,-43.0506 "/>
<g id="a_edge4&#45;label"><a xlink:title="force_of_infection [parameter]:&#10;	infection function &#160;&#160;&#160;&#160;&#160;&#160;&#160;&#160;&#160;&#160;&#160;&#160;&#160;&#160;&#160;&#160;&#160;&#160;&#160;&#160;&#160;&#160;&#160;&#160;&#160;&#160;&#160;&#160;&#160;&#160;&#160;&#160;&#160;&#160;&#160;&#160;&#160;&#160;&#160;&#160;&#160;&#160;&#160;&#160;&#160;&#160;&#160;&#160;&#160;&#160;&#160;&#160;&#160;&#10;	transmission_I * total_I / total_population">
<text text-anchor="middle" x="176.271" y="-40.8" font-family="Times" font-size="14.00" fill="#000000">rate: force_of_infection</text>
</a>
</g>
</g>
<!-- I -->
<g id="node3" class="node">
<title>I</title>
<g id="a_node3"><a xlink:title="I (Infectious):&#10;	infected and able to transmit the disease">
<path fill="#b03060" stroke="#000000" d="M574.8975,-29C574.8975,-29 604.8975,-29 604.8975,-29 610.8975,-29 616.8975,-35 616.8975,-41 616.8975,-41 616.8975,-53 616.8975,-53 616.8975,-59 610.8975,-65 604.8975,-65 604.8975,-65 574.8975,-65 574.8975,-65 568.8975,-65 562.8975,-59 562.8975,-53 562.8975,-53 562.8975,-41 562.8975,-41 562.8975,-35 568.8975,-29 574.8975,-29"/>
<text text-anchor="middle" x="589.8975" y="-43.7" font-family="Arial" font-size="16.00" fill="#000000">I</text>
</a>
</g>
</g>
<!-- E&#45;&gt;I -->
<g id="edge1" class="edge">
<title>E&#45;&gt;I</title>
<path fill="none" stroke="#000000" stroke-width="1.5" d="M352.837,-47C398.9634,-47 492.6502,-47 547.424,-47"/>
<polygon fill="#000000" stroke="#000000" stroke-width="1.5" points="552.751,-50.5001 562.751,-47 552.7509,-43.5001 552.751,-50.5001"/>
<polyline fill="none" stroke="#000000" stroke-width="1.5" points="552.751,-47.0001 547.751,-47.0001 "/>
<g id="a_edge1&#45;label"><a xlink:title="rate: 1/incubation">
<text text-anchor="middle" x="457.7197" y="-49.8" font-family="Times" font-size="14.00" fill="#000000">rate: 1/incubation</text>
</a>
</g>
</g>
<!-- R -->
<g id="node4" class="node">
<title>R</title>
<g id="a_node4"><a xlink:title="R (Resistant):&#10;	healthy again and resistant to infection">
<path fill="#00bfff" stroke="#000000" d="M818.2324,-1C818.2324,-1 848.2324,-1 848.2324,-1 854.2324,-1 860.2324,-7 860.2324,-13 860.2324,-13 860.2324,-25 860.2324,-25 860.2324,-31 854.2324,-37 848.2324,-37 848.2324,-37 818.2324,-37 818.2324,-37 812.2324,-37 806.2324,-31 806.2324,-25 806.2324,-25 806.2324,-13 806.2324,-13 806.2324,-7 812.2324,-1 818.2324,-1"/>
<text text-anchor="middle" x="833.2324" y="-15.7" font-family="Arial" font-size="16.00" fill="#000000">R</text>
</a>
</g>
</g>
<!-- I&#45;&gt;R -->
<g id="edge2" class="edge">
<title>I&#45;&gt;R</title>
<path fill="none" stroke="#000000" stroke-width="1.5" d="M617.3381,-43.8425C659.6207,-38.9771 741.0241,-29.6102 790.8971,-23.8714"/>
<polygon fill="#000000" stroke="#000000" stroke-width="1.5" points="796.3578,-26.7662 805.8921,-22.146 795.5575,-19.8121 796.3578,-26.7662"/>
<polyline fill="none" stroke="#000000" stroke-width="1.5" points="795.9577,-23.2892 790.9904,-23.8608 "/>
<g id="a_edge2&#45;label"><a xlink:title="recovery [parameter]:&#10;	recovery rate (/day) &#160;&#160;&#160;&#160;&#160;&#160;&#160;&#160;&#160;&#160;&#160;&#160;&#160;&#160;&#160;&#160;&#160;&#160;&#160;&#160;&#160;&#160;&#160;&#160;&#160;&#160;&#160;&#160;&#160;&#160;&#160;&#160;&#160;&#160;&#160;&#160;&#160;&#160;&#160;&#160;&#160;&#160;&#160;&#160;&#160;&#160;&#160;&#160;&#160;&#160;&#160;&#10;	0.1">
<text text-anchor="middle" x="711.5649" y="-39.8" font-family="Times" font-size="14.00" fill="#000000">rate: recovery</text>
</a>
</g>
</g>
<!-- R&#45;&gt;S -->
<g id="edge3" class="edge">
<title>R&#45;&gt;S</title>
<path fill="none" stroke="#000000" stroke-width="1.5" d="M806.1267,-7.2916C794.7895,-3.3816 781.34,0 768.7324,0 91.5,0 91.5,0 91.5,0 84.0143,0 76.2317,-1.1921 68.7707,-2.9792"/>
<polygon fill="#000000" stroke="#000000" stroke-width="1.5" points="62.7121,-1.1125 54.1057,-7.2916 64.6869,-7.8282 62.7121,-1.1125"/>
<polyline fill="none" stroke="#000000" stroke-width="1.5" points="63.6995,-4.4704 68.4964,-3.0598 "/>
<g id="a_edge3&#45;label"><a xlink:title="waning [parameter]:&#10;	rate at which individuals lose immunity (/day) &#160;&#160;&#160;&#160;&#160;&#160;&#160;&#160;&#160;&#160;&#160;&#160;&#160;&#160;&#160;&#160;&#160;&#160;&#160;&#160;&#160;&#160;&#160;&#160;&#160;&#10;	0.05">
<text text-anchor="middle" x="457.7197" y="-2.8" font-family="Times" font-size="14.00" fill="#000000">rate: waning</text>
</a>
</g>
</g>
</g>
</svg>
