<?xml version="1.0" encoding="UTF-8" standalone="no"?>
<!DOCTYPE svg PUBLIC "-//W3C//DTD SVG 1.1//EN"
 "http://www.w3.org/Graphics/SVG/1.1/DTD/svg11.dtd">
<!-- Generated by graphviz version 2.40.1 (20161225.0304)
 -->
<!-- Title: %3 Pages: 1 -->
<svg width="880pt" height="62pt"
 viewBox="0.00 0.00 880.00 62.24" xmlns="http://www.w3.org/2000/svg" xmlns:xlink="http://www.w3.org/1999/xlink">
<g id="graph0" class="graph" transform="scale(1 1) rotate(0) translate(4 58.2422)">
<title>%3</title>
<polygon fill="#ffffff" stroke="transparent" points="-4,4 -4,-58.2422 876.0049,-58.2422 876.0049,4 -4,4"/>
<!-- S -->
<g id="node1" class="node">
<title>S</title>
<g id="a_node1"><a xlink:title="S (Susceptible):&#10;	suceptible of becoming infected">
<path fill="#00bfff" stroke="#000000" stroke-width="2" d="M12,-9.1211C12,-9.1211 42,-9.1211 42,-9.1211 48,-9.1211 54,-15.1211 54,-21.1211 54,-21.1211 54,-33.1211 54,-33.1211 54,-39.1211 48,-45.1211 42,-45.1211 42,-45.1211 12,-45.1211 12,-45.1211 6,-45.1211 0,-39.1211 0,-33.1211 0,-33.1211 0,-21.1211 0,-21.1211 0,-15.1211 6,-9.1211 12,-9.1211"/>
<text text-anchor="middle" x="27" y="-23.8211" font-family="Arial" font-size="16.00" fill="#000000">S</text>
</a>
</g>
</g>
<!-- I -->
<g id="node2" class="node">
<title>I</title>
<g id="a_node2"><a xlink:title="I (Infectious):&#10;	infected and able to transmit the disease">
<path fill="#ff0000" stroke="#000000" d="M565.7412,-.5C565.7412,-.5 624.4287,-.5 624.4287,-.5 630.4287,-.5 636.4287,-6.5 636.4287,-12.5 636.4287,-12.5 636.4287,-41.7422 636.4287,-41.7422 636.4287,-47.7422 630.4287,-53.7422 624.4287,-53.7422 624.4287,-53.7422 565.7412,-53.7422 565.7412,-53.7422 559.7412,-53.7422 553.7412,-47.7422 553.7412,-41.7422 553.7412,-41.7422 553.7412,-12.5 553.7412,-12.5 553.7412,-6.5 559.7412,-.5 565.7412,-.5"/>
<text text-anchor="middle" x="567.5225" y="-23.743" font-family="Arial" font-size="16.00" fill="#000000">◆</text>
<polyline fill="none" stroke="#000000" points="581.3037,-.5 581.3037,-53.7422 "/>
<text text-anchor="middle" x="595.085" y="-36.9422" font-family="Arial" font-size="16.00" fill="#000000">I </text>
<polyline fill="none" stroke="#000000" points="581.3037,-27.3438 608.8662,-27.3438 "/>
<text text-anchor="middle" x="595.085" y="-10.5438" font-family="Arial" font-size="16.00" fill="#000000">◆</text>
<polyline fill="none" stroke="#000000" points="608.8662,-.5 608.8662,-53.7422 "/>
<text text-anchor="middle" x="622.6475" y="-23.743" font-family="Arial" font-size="16.00" fill="#000000">◆</text>
</a>
</g>
</g>
<!-- S&#45;&gt;I -->
<g id="edge2" class="edge">
<title>S&#45;&gt;I</title>
<path fill="none" stroke="#000000" stroke-width="1.5" d="M54.0177,-27.1211C141.4882,-27.1211 418.2147,-27.1211 538.4244,-27.1211"/>
<polygon fill="#000000" stroke="#000000" stroke-width="1.5" points="543.6381,-30.6212 553.6381,-27.1211 543.638,-23.6212 543.6381,-30.6212"/>
<polyline fill="none" stroke="#000000" stroke-width="1.5" points="543.6381,-27.1212 538.6381,-27.1212 "/>
<g id="a_edge2&#45;label"><a xlink:title="rate: is_J * force_infection_juveniles + is_A * force_infection_adults">
<text text-anchor="middle" x="303.8706" y="-29.9211" font-family="Times" font-size="14.00" fill="#000000">rate: is_J * force_infection_juveniles + is_A * force_infection_adults</text>
</a>
</g>
</g>
<!-- R -->
<g id="node3" class="node">
<title>R</title>
<g id="a_node3"><a xlink:title="R (Resistant):&#10;	recovered and resistant to new infections">
<path fill="#32cd32" stroke="#000000" d="M830.0049,-9.1211C830.0049,-9.1211 860.0049,-9.1211 860.0049,-9.1211 866.0049,-9.1211 872.0049,-15.1211 872.0049,-21.1211 872.0049,-21.1211 872.0049,-33.1211 872.0049,-33.1211 872.0049,-39.1211 866.0049,-45.1211 860.0049,-45.1211 860.0049,-45.1211 830.0049,-45.1211 830.0049,-45.1211 824.0049,-45.1211 818.0049,-39.1211 818.0049,-33.1211 818.0049,-33.1211 818.0049,-21.1211 818.0049,-21.1211 818.0049,-15.1211 824.0049,-9.1211 830.0049,-9.1211"/>
<text text-anchor="middle" x="845.0049" y="-23.8211" font-family="Arial" font-size="16.00" fill="#000000">R</text>
</a>
</g>
</g>
<!-- I&#45;&gt;R -->
<g id="edge1" class="edge">
<title>I&#45;&gt;R</title>
<path fill="none" stroke="#000000" stroke-width="1.5" d="M636.6347,-27.1211C682.5744,-27.1211 756.194,-27.1211 802.5094,-27.1211"/>
<polygon fill="#000000" stroke="#000000" stroke-width="1.5" points="807.6629,-30.6212 817.6629,-27.1211 807.6629,-23.6212 807.6629,-30.6212"/>
<polyline fill="none" stroke="#000000" stroke-width="1.5" points="807.6629,-27.1212 802.6629,-27.1212 "/>
<g id="a_edge1&#45;label"><a xlink:title="gamma [parameter]:&#10;	recovery rate &#160;&#160;&#160;&#160;&#160;&#160;&#160;&#160;&#160;&#160;&#160;&#160;&#160;&#160;&#160;&#160;&#160;&#160;&#160;&#160;&#160;&#160;&#160;&#160;&#160;&#160;&#160;&#160;&#160;&#160;&#160;&#160;&#160;&#160;&#160;&#160;&#160;&#160;&#160;&#160;&#160;&#160;&#160;&#160;&#160;&#160;&#160;&#160;&#160;&#160;&#160;&#160;&#160;&#160;&#160;&#160;&#160;&#160;&#10;	1/30">
<text text-anchor="middle" x="727.2168" y="-29.9211" font-family="Times" font-size="14.00" fill="#000000">rate: gamma</text>
</a>
</g>
</g>
</g>
</svg>
