<?xml version="1.0" encoding="UTF-8" standalone="no"?>
<!DOCTYPE svg PUBLIC "-//W3C//DTD SVG 1.1//EN"
 "http://www.w3.org/Graphics/SVG/1.1/DTD/svg11.dtd">
<!-- Generated by graphviz version 2.40.1 (20161225.0304)
 -->
<!-- Title: %3 Pages: 1 -->
<svg width="851pt" height="45pt"
 viewBox="0.00 0.00 851.32 45.00" xmlns="http://www.w3.org/2000/svg" xmlns:xlink="http://www.w3.org/1999/xlink">
<g id="graph0" class="graph" transform="scale(1 1) rotate(0) translate(4 41)">
<title>%3</title>
<polygon fill="#ffffff" stroke="transparent" points="-4,4 -4,-41 847.3174,-41 847.3174,4 -4,4"/>
<!-- S -->
<g id="node1" class="node">
<title>S</title>
<g id="a_node1"><a xlink:title="S (Susceptible):&#10;	suceptible of becoming infected">
<path fill="#00bfff" stroke="#000000" stroke-width="2" d="M12,-.5C12,-.5 42,-.5 42,-.5 48,-.5 54,-6.5 54,-12.5 54,-12.5 54,-24.5 54,-24.5 54,-30.5 48,-36.5 42,-36.5 42,-36.5 12,-36.5 12,-36.5 6,-36.5 0,-30.5 0,-24.5 0,-24.5 0,-12.5 0,-12.5 0,-6.5 6,-.5 12,-.5"/>
<text text-anchor="middle" x="27" y="-15.2" font-family="Arial" font-size="16.00" fill="#000000">S</text>
</a>
</g>
</g>
<!-- I -->
<g id="node2" class="node">
<title>I</title>
<g id="a_node2"><a xlink:title="I (Infectious):&#10;	infected and able to transmit the disease">
<path fill="#ff0000" stroke="#000000" d="M565.7412,-.5C565.7412,-.5 595.7412,-.5 595.7412,-.5 601.7412,-.5 607.7412,-6.5 607.7412,-12.5 607.7412,-12.5 607.7412,-24.5 607.7412,-24.5 607.7412,-30.5 601.7412,-36.5 595.7412,-36.5 595.7412,-36.5 565.7412,-36.5 565.7412,-36.5 559.7412,-36.5 553.7412,-30.5 553.7412,-24.5 553.7412,-24.5 553.7412,-12.5 553.7412,-12.5 553.7412,-6.5 559.7412,-.5 565.7412,-.5"/>
<text text-anchor="middle" x="580.7412" y="-15.2" font-family="Arial" font-size="16.00" fill="#000000">I</text>
</a>
</g>
</g>
<!-- S&#45;&gt;I -->
<g id="edge2" class="edge">
<title>S&#45;&gt;I</title>
<path fill="none" stroke="#000000" stroke-width="1.5" d="M54.0829,-18.5C143.5126,-18.5 429.853,-18.5 538.443,-18.5"/>
<polygon fill="#000000" stroke="#000000" stroke-width="1.5" points="543.7104,-22.0001 553.7104,-18.5 543.7104,-15.0001 543.7104,-22.0001"/>
<polyline fill="none" stroke="#000000" stroke-width="1.5" points="543.7104,-18.5001 538.7104,-18.5001 "/>
<g id="a_edge2&#45;label"><a xlink:title="rate: is_J * force_infection_juveniles + is_A * force_infection_adults">
<text text-anchor="middle" x="303.8706" y="-21.3" font-family="Times" font-size="14.00" fill="#000000">rate: is_J * force_infection_juveniles + is_A * force_infection_adults</text>
</a>
</g>
</g>
<!-- R -->
<g id="node3" class="node">
<title>R</title>
<g id="a_node3"><a xlink:title="R (Resistant):&#10;	recovered and resistant to new infections">
<path fill="#32cd32" stroke="#000000" d="M801.3174,-.5C801.3174,-.5 831.3174,-.5 831.3174,-.5 837.3174,-.5 843.3174,-6.5 843.3174,-12.5 843.3174,-12.5 843.3174,-24.5 843.3174,-24.5 843.3174,-30.5 837.3174,-36.5 831.3174,-36.5 831.3174,-36.5 801.3174,-36.5 801.3174,-36.5 795.3174,-36.5 789.3174,-30.5 789.3174,-24.5 789.3174,-24.5 789.3174,-12.5 789.3174,-12.5 789.3174,-6.5 795.3174,-.5 801.3174,-.5"/>
<text text-anchor="middle" x="816.3174" y="-15.2" font-family="Arial" font-size="16.00" fill="#000000">R</text>
</a>
</g>
</g>
<!-- I&#45;&gt;R -->
<g id="edge1" class="edge">
<title>I&#45;&gt;R</title>
<path fill="none" stroke="#000000" stroke-width="1.5" d="M607.7648,-18.5C648.4829,-18.5 725.9185,-18.5 774.1175,-18.5"/>
<polygon fill="#000000" stroke="#000000" stroke-width="1.5" points="779.2471,-22.0001 789.2471,-18.5 779.2471,-15.0001 779.2471,-22.0001"/>
<polyline fill="none" stroke="#000000" stroke-width="1.5" points="779.2471,-18.5001 774.2471,-18.5001 "/>
<g id="a_edge1&#45;label"><a xlink:title="gamma [parameter]:&#10;	recovery rate &#160;&#160;&#160;&#160;&#160;&#160;&#160;&#160;&#160;&#160;&#160;&#160;&#160;&#160;&#160;&#160;&#160;&#160;&#160;&#160;&#160;&#160;&#160;&#160;&#160;&#160;&#160;&#160;&#160;&#160;&#160;&#160;&#160;&#160;&#160;&#160;&#160;&#160;&#160;&#160;&#160;&#160;&#160;&#160;&#160;&#160;&#160;&#160;&#160;&#160;&#160;&#160;&#160;&#160;&#160;&#160;&#160;&#160;&#10;	1/30">
<text text-anchor="middle" x="698.5293" y="-21.3" font-family="Times" font-size="14.00" fill="#000000">rate: gamma</text>
</a>
</g>
</g>
</g>
</svg>
