<?xml version="1.0" encoding="UTF-8" standalone="no"?>
<!DOCTYPE svg PUBLIC "-//W3C//DTD SVG 1.1//EN"
 "http://www.w3.org/Graphics/SVG/1.1/DTD/svg11.dtd">
<!-- Generated by graphviz version 2.40.1 (20161225.0304)
 -->
<!-- Title: %3 Pages: 1 -->
<svg width="351pt" height="44pt"
 viewBox="0.00 0.00 351.45 44.00" xmlns="http://www.w3.org/2000/svg" xmlns:xlink="http://www.w3.org/1999/xlink">
<g id="graph0" class="graph" transform="scale(1 1) rotate(0) translate(4 40)">
<title>%3</title>
<polygon fill="#ffffff" stroke="transparent" points="-4,4 -4,-40 347.4482,-40 347.4482,4 -4,4"/>
<!-- S -->
<g id="node1" class="node">
<title>S</title>
<g id="a_node1"><a xlink:title="S (Susceptible): not infected">
<polygon fill="none" stroke="#000000" stroke-width="2" points="54,-36 0,-36 0,0 54,0 54,-36"/>
<text text-anchor="middle" x="27" y="-14.3992" font-family="Arial" font-size="16.00" fill="#000000">S</text>
</a>
</g>
</g>
<!-- I -->
<g id="node2" class="node">
<title>I</title>
<g id="a_node2"><a xlink:title="I (Infectious):&#10;	infected and able to transmit the disease">
<polygon fill="none" stroke="#000000" stroke-width="2" points="208.4482,-36 154.4482,-36 154.4482,0 208.4482,0 208.4482,-36"/>
<text text-anchor="middle" x="181.4482" y="-14.3992" font-family="Arial" font-size="16.00" fill="#000000">I</text>
</a>
</g>
</g>
<!-- S&#45;&gt;I -->
<g id="edge2" class="edge">
<title>S&#45;&gt;I</title>
<g id="a_edge2"><a xlink:title="S individuals become I at rate βI/N">
<path fill="none" stroke="#000000" stroke-width="1.5" d="M54.2567,-18C77.6741,-18 111.8344,-18 138.858,-18"/>
<polygon fill="#000000" stroke="#000000" stroke-width="1.5" points="144.2047,-21.5001 154.2047,-18 144.2047,-14.5001 144.2047,-21.5001"/>
<polyline fill="none" stroke="#000000" stroke-width="1.5" points="144.2047,-18.0001 139.2047,-18.0001 "/>
</a>
</g>
<g id="a_edge2&#45;label"><a xlink:title="rate: βI/N">
<text text-anchor="middle" x="104.2241" y="-20.8" font-family="Times,serif" font-size="14.00" fill="#000000">βI/N</text>
</a>
</g>
</g>
<!-- R -->
<g id="node3" class="node">
<title>R</title>
<g id="a_node3"><a xlink:title="R (Resistant):&#10;	healthy again and resistant to infection">
<polygon fill="none" stroke="#000000" stroke-width="2" points="343.4482,-36 289.4482,-36 289.4482,0 343.4482,0 343.4482,-36"/>
<text text-anchor="middle" x="316.4482" y="-14.3992" font-family="Arial" font-size="16.00" fill="#000000">R</text>
</a>
</g>
</g>
<!-- I&#45;&gt;R -->
<g id="edge1" class="edge">
<title>I&#45;&gt;R</title>
<g id="a_edge1"><a xlink:title="I individuals become R at rate γ">
<path fill="none" stroke="#000000" stroke-width="1.5" d="M208.7675,-18C227.5233,-18 252.7867,-18 274.1293,-18"/>
<polygon fill="#000000" stroke="#000000" stroke-width="1.5" points="279.1696,-21.5001 289.1696,-18 279.1696,-14.5001 279.1696,-21.5001"/>
<polyline fill="none" stroke="#000000" stroke-width="1.5" points="279.1696,-18.0001 274.1696,-18.0001 "/>
</a>
</g>
<g id="a_edge1&#45;label"><a xlink:title="rate: γ">
<text text-anchor="middle" x="248.9482" y="-20.8" font-family="Times,serif" font-size="14.00" fill="#000000">γ</text>
</a>
</g>
</g>
</g>
</svg>
