<?xml version="1.0" encoding="UTF-8" standalone="no"?>
<!DOCTYPE svg PUBLIC "-//W3C//DTD SVG 1.1//EN"
 "http://www.w3.org/Graphics/SVG/1.1/DTD/svg11.dtd">
<!-- Generated by graphviz version 2.40.1 (20161225.0304)
 -->
<!-- Title: %3 Pages: 1 -->
<svg width="1768pt" height="312pt"
 viewBox="0.00 0.00 1767.96 312.00" xmlns="http://www.w3.org/2000/svg" xmlns:xlink="http://www.w3.org/1999/xlink">
<g id="graph0" class="graph" transform="scale(1 1) rotate(0) translate(4 308)">
<title>%3</title>
<polygon fill="#ffffff" stroke="transparent" points="-4,4 -4,-308 1763.9648,-308 1763.9648,4 -4,4"/>
<!-- M -->
<g id="node1" class="node">
<title>M</title>
<g id="a_node1"><a xlink:title="M (Maternal protection):&#10;	animal protected by maternal antibodies">
<path fill="#00ffff" stroke="#000000" d="M12,-1C12,-1 42,-1 42,-1 48,-1 54,-7 54,-13 54,-13 54,-25 54,-25 54,-31 48,-37 42,-37 42,-37 12,-37 12,-37 6,-37 0,-31 0,-25 0,-25 0,-13 0,-13 0,-7 6,-1 12,-1"/>
<text text-anchor="middle" x="27" y="-16.2" font-family="Arial" font-size="16.00" fill="#000000">M ◷</text>
</a>
</g>
</g>
<!-- S -->
<g id="node2" class="node">
<title>S</title>
<g id="a_node2"><a xlink:title="S (Susceptible):&#10;	suceptible of becoming infectious">
<path fill="#f5deb3" stroke="#000000" stroke-width="2" d="M246.8105,-45C246.8105,-45 276.8105,-45 276.8105,-45 282.8105,-45 288.8105,-51 288.8105,-57 288.8105,-57 288.8105,-69 288.8105,-69 288.8105,-75 282.8105,-81 276.8105,-81 276.8105,-81 246.8105,-81 246.8105,-81 240.8105,-81 234.8105,-75 234.8105,-69 234.8105,-69 234.8105,-57 234.8105,-57 234.8105,-51 240.8105,-45 246.8105,-45"/>
<text text-anchor="middle" x="261.8105" y="-59.7" font-family="Arial" font-size="16.00" fill="#000000">S</text>
</a>
</g>
</g>
<!-- M&#45;&gt;S -->
<g id="edge7" class="edge">
<title>M&#45;&gt;S</title>
<path fill="none" stroke="#000000" stroke-width="1.5" d="M54.3953,-24.1335C95.0456,-31.7507 171.6745,-46.1098 219.5496,-55.0809"/>
<polygon fill="#000000" stroke="#000000" stroke-width="1.5" points="224.1162,-59.4975 234.5897,-57.8992 225.4055,-52.6173 224.1162,-59.4975"/>
<polyline fill="none" stroke="#000000" stroke-width="1.5" points="224.7608,-56.0574 219.8463,-55.1365 "/>
<g id="a_edge7&#45;label"><a xlink:title="epsilon [parameter]:&#10;	maternal antibodies loss rate &#160;&#160;&#160;&#160;&#160;&#160;&#160;&#160;&#160;&#160;&#160;&#160;&#160;&#160;&#160;&#160;&#160;&#160;&#160;&#160;&#160;&#160;&#160;&#160;&#160;&#160;&#160;&#160;&#160;&#160;&#160;&#160;&#160;&#160;&#160;&#160;&#160;&#160;&#160;&#160;&#160;&#160;&#10;	0.04">
<text text-anchor="middle" x="144.4053" y="-50.8" font-family="Times" font-size="14.00" fill="#000000">rate: epsilon</text>
</a>
</g>
</g>
<!-- D -->
<g id="node7" class="node">
<title>D</title>
<g id="a_node7"><a xlink:title="D (Dead):&#10;	dead animals">
<path fill="#ffffff" stroke="#000000" stroke-dasharray="1,5" d="M1717.9648,-89C1717.9648,-89 1747.9648,-89 1747.9648,-89 1753.9648,-89 1759.9648,-95 1759.9648,-101 1759.9648,-101 1759.9648,-113 1759.9648,-113 1759.9648,-119 1753.9648,-125 1747.9648,-125 1747.9648,-125 1717.9648,-125 1717.9648,-125 1711.9648,-125 1705.9648,-119 1705.9648,-113 1705.9648,-113 1705.9648,-101 1705.9648,-101 1705.9648,-95 1711.9648,-89 1717.9648,-89"/>
<text text-anchor="middle" x="1732.9648" y="-103.7" font-family="Arial" font-size="16.00" fill="#000000">D</text>
</a>
</g>
</g>
<!-- M&#45;&gt;D -->
<g id="edge6" class="edge">
<title>M&#45;&gt;D</title>
<g id="a_edge6"><a xlink:title="ESCAPE: True">
<path fill="none" stroke="#000000" stroke-width="1.5" d="M68.7707,-2.9792C76.2317,-1.1921 84.0143,0 91.5,0 91.5,0 91.5,0 1668.4648,0 1703.5347,0 1720.0343,-42.6811 1727.4318,-74.1306"/>
<polyline fill="none" stroke="#000000" stroke-width="1.5" points="54.1057,-7.2916 58.9026,-5.881 "/>
<polygon fill="none" stroke="#000000" stroke-width="1.5" points="57.9152,-2.5231 68.4964,-3.0598 59.89,-9.2388 57.9152,-2.5231"/>
<polygon fill="#000000" stroke="#000000" stroke-width="1.5" points="1725.0114,-79.7549 1730.4474,-88.8489 1731.8689,-78.3499 1725.0114,-79.7549"/>
<polyline fill="none" stroke="#000000" stroke-width="1.5" points="1728.4401,-79.0524 1727.4365,-74.1542 "/>
</a>
</g>
<g id="a_edge6&#45;label"><a xlink:title="mortality_healthy [parameter]:&#10;	mortality rate for healthy animals &#160;&#160;&#160;&#160;&#160;&#160;&#160;&#160;&#160;&#160;&#160;&#160;&#160;&#160;&#160;&#160;&#160;&#160;&#160;&#160;&#160;&#160;&#160;&#160;&#160;&#160;&#160;&#160;&#160;&#160;&#160;&#160;&#160;&#160;&#160;&#160;&#160;&#10;	0.002">
<text text-anchor="middle" x="722.4785" y="-2.8" font-family="Times" font-size="14.00" fill="#000000">rate: mortality_healthy</text>
</a>
</g>
</g>
<!-- E -->
<g id="node3" class="node">
<title>E</title>
<g id="a_node3"><a xlink:title="E (Exposed):&#10;	already infected but not yet able to transmit the disease">
<path fill="#f08080" stroke="#000000" d="M445.8418,-71C445.8418,-71 475.8418,-71 475.8418,-71 481.8418,-71 487.8418,-77 487.8418,-83 487.8418,-83 487.8418,-95 487.8418,-95 487.8418,-101 481.8418,-107 475.8418,-107 475.8418,-107 445.8418,-107 445.8418,-107 439.8418,-107 433.8418,-101 433.8418,-95 433.8418,-95 433.8418,-83 433.8418,-83 433.8418,-77 439.8418,-71 445.8418,-71"/>
<text text-anchor="middle" x="460.8418" y="-86.2" font-family="Arial" font-size="16.00" fill="#000000">E ◷</text>
</a>
</g>
</g>
<!-- S&#45;&gt;E -->
<g id="edge13" class="edge">
<title>S&#45;&gt;E</title>
<path fill="none" stroke="#000000" stroke-width="1.5" d="M289.0677,-66.5607C322.4729,-70.9245 379.4464,-78.3671 418.5557,-83.4761"/>
<polygon fill="#000000" stroke="#000000" stroke-width="1.5" points="423.2261,-87.6158 433.5952,-85.4407 424.1329,-80.6748 423.2261,-87.6158"/>
<polyline fill="none" stroke="#000000" stroke-width="1.5" points="423.6795,-84.1453 418.7216,-83.4976 "/>
<g id="a_edge13&#45;label"><a xlink:title="f [parameter]:&#10;	force of infection &#160;&#160;&#160;&#160;&#160;&#160;&#160;&#160;&#160;&#160;&#160;&#160;&#160;&#160;&#160;&#160;&#160;&#160;&#160;&#160;&#160;&#160;&#160;&#160;&#160;&#160;&#160;&#160;&#160;&#160;&#160;&#160;&#160;&#160;&#160;&#160;&#160;&#160;&#160;&#160;&#160;&#160;&#160;&#160;&#160;&#160;&#160;&#160;&#160;&#160;&#160;&#160;&#160;&#10;	beta * total_I / total_herd">
<text text-anchor="middle" x="361.3262" y="-81.8" font-family="Times" font-size="14.00" fill="#000000">rate: f</text>
</a>
</g>
</g>
<!-- S&#45;&gt;D -->
<g id="edge12" class="edge">
<title>S&#45;&gt;D</title>
<path fill="none" stroke="#000000" stroke-width="1.5" d="M289.1199,-49.9392C300.3744,-45.6687 313.7097,-42 326.3105,-42 326.3105,-42 326.3105,-42 1668.4648,-42 1689.4138,-42 1705.886,-59.2222 1716.9396,-75.9367"/>
<polygon fill="#000000" stroke="#000000" stroke-width="1.5" points="1716.5129,-82.0784 1724.6246,-88.8939 1722.5336,-78.5074 1716.5129,-82.0784"/>
<polyline fill="none" stroke="#000000" stroke-width="1.5" points="1719.5232,-80.2929 1716.9726,-75.9924 "/>
<g id="a_edge12&#45;label"><a xlink:title="mortality_healthy [parameter]:&#10;	mortality rate for healthy animals &#160;&#160;&#160;&#160;&#160;&#160;&#160;&#160;&#160;&#160;&#160;&#160;&#160;&#160;&#160;&#160;&#160;&#160;&#160;&#160;&#160;&#160;&#160;&#160;&#160;&#160;&#160;&#160;&#160;&#160;&#160;&#160;&#160;&#160;&#160;&#160;&#160;&#10;	0.002">
<text text-anchor="middle" x="906.3789" y="-44.8" font-family="Times" font-size="14.00" fill="#000000">rate: mortality_healthy</text>
</a>
</g>
</g>
<!-- I -->
<g id="node4" class="node">
<title>I</title>
<g id="a_node4"><a xlink:title="I (Infectious):&#10;	sick and able to transmit the disease">
<path fill="#b03060" stroke="#000000" d="M707.4785,-142C707.4785,-142 737.4785,-142 737.4785,-142 743.4785,-142 749.4785,-148 749.4785,-154 749.4785,-154 749.4785,-166 749.4785,-166 749.4785,-172 743.4785,-178 737.4785,-178 737.4785,-178 707.4785,-178 707.4785,-178 701.4785,-178 695.4785,-172 695.4785,-166 695.4785,-166 695.4785,-154 695.4785,-154 695.4785,-148 701.4785,-142 707.4785,-142"/>
<text text-anchor="middle" x="722.4785" y="-156.7" font-family="Arial" font-size="16.00" fill="#000000">I</text>
</a>
</g>
</g>
<!-- E&#45;&gt;I -->
<g id="edge2" class="edge">
<title>E&#45;&gt;I</title>
<path fill="none" stroke="#000000" stroke-width="1.5" d="M487.9448,-96.923C493.8386,-98.6199 500.0444,-100.3867 505.8418,-102 566.6089,-118.9103 637.2219,-137.6451 680.8842,-149.1233"/>
<polygon fill="#000000" stroke="#000000" stroke-width="1.5" points="684.8524,-153.7832 695.4133,-152.9363 686.6293,-147.0125 684.8524,-153.7832"/>
<polyline fill="none" stroke="#000000" stroke-width="1.5" points="685.7408,-150.3978 680.9046,-149.1286 "/>
<g id="a_edge2&#45;label"><a xlink:title="alpha [parameter]:&#10;	rate for E&#45;&gt;I transition &#160;&#160;&#160;&#160;&#160;&#160;&#160;&#160;&#160;&#160;&#160;&#160;&#160;&#160;&#160;&#160;&#160;&#160;&#160;&#160;&#160;&#160;&#160;&#160;&#160;&#160;&#160;&#160;&#160;&#160;&#160;&#160;&#160;&#160;&#160;&#160;&#160;&#160;&#160;&#160;&#160;&#160;&#160;&#160;&#160;&#160;&#160;&#10;	0.3">
<text text-anchor="middle" x="573.1851" y="-131.8" font-family="Times" font-size="14.00" fill="#000000">rate: alpha</text>
</a>
</g>
</g>
<!-- E&#45;&gt;D -->
<g id="edge1" class="edge">
<title>E&#45;&gt;D</title>
<g id="a_edge1"><a xlink:title="ESCAPE: True">
<path fill="none" stroke="#000000" stroke-width="1.5" d="M503.2145,-88.1557C510.5909,-88.0622 518.1891,-88 525.3418,-88 525.3418,-88 525.3418,-88 1668.4648,-88 1675.9506,-88 1683.7331,-89.1921 1691.1941,-90.9792"/>
<polyline fill="none" stroke="#000000" stroke-width="1.5" points="488.1446,-88.3895 493.144,-88.3119 "/>
<polygon fill="none" stroke="#000000" stroke-width="1.5" points="493.0897,-84.8123 503.1428,-88.1567 493.1983,-91.8115 493.0897,-84.8123"/>
<polygon fill="#000000" stroke="#000000" stroke-width="1.5" points="1695.2779,-95.8282 1705.8592,-95.2916 1697.2528,-89.1125 1695.2779,-95.8282"/>
<polyline fill="none" stroke="#000000" stroke-width="1.5" points="1696.2654,-92.4704 1691.4684,-91.0598 "/>
</a>
</g>
<g id="a_edge1&#45;label"><a xlink:title="mortality_sick [parameter]:&#10;	mortality rate for sick animals (E / I / Q) &#160;&#160;&#160;&#160;&#160;&#160;&#160;&#160;&#160;&#160;&#160;&#160;&#160;&#160;&#160;&#160;&#160;&#160;&#160;&#160;&#160;&#160;&#160;&#160;&#160;&#160;&#160;&#160;&#10;	0.004">
<text text-anchor="middle" x="1080.9517" y="-90.8" font-family="Times" font-size="14.00" fill="#000000">rate: mortality_sick</text>
</a>
</g>
</g>
<!-- R -->
<g id="node5" class="node">
<title>R</title>
<g id="a_node5"><a xlink:title="R (Resistant):&#10;	healthy again and resistant to infection">
<path fill="#00bfff" stroke="#000000" d="M1396.4419,-217C1396.4419,-217 1426.4419,-217 1426.4419,-217 1432.4419,-217 1438.4419,-223 1438.4419,-229 1438.4419,-229 1438.4419,-241 1438.4419,-241 1438.4419,-247 1432.4419,-253 1426.4419,-253 1426.4419,-253 1396.4419,-253 1396.4419,-253 1390.4419,-253 1384.4419,-247 1384.4419,-241 1384.4419,-241 1384.4419,-229 1384.4419,-229 1384.4419,-223 1390.4419,-217 1396.4419,-217"/>
<text text-anchor="middle" x="1411.4419" y="-231.7" font-family="Arial" font-size="16.00" fill="#000000">R</text>
</a>
</g>
</g>
<!-- I&#45;&gt;R -->
<g id="edge5" class="edge">
<title>I&#45;&gt;R</title>
<path fill="none" stroke="#000000" stroke-width="1.5" d="M732.6325,-178.2337C748.487,-204.0094 781.7272,-248 823.9287,-248 823.9287,-248 823.9287,-248 1319.3193,-248 1335.6227,-248 1353.3913,-245.979 1368.935,-243.5307"/>
<polygon fill="#000000" stroke="#000000" stroke-width="1.5" points="1374.9172,-246.0467 1384.1732,-240.8914 1373.7226,-239.1494 1374.9172,-246.0467"/>
<polyline fill="none" stroke="#000000" stroke-width="1.5" points="1374.3199,-242.5981 1369.3933,-243.4514 "/>
<g id="a_edge5&#45;label"><a xlink:title="gamma [parameter]:&#10;	recovery rate &#160;&#160;&#160;&#160;&#160;&#160;&#160;&#160;&#160;&#160;&#160;&#160;&#160;&#160;&#160;&#160;&#160;&#160;&#160;&#160;&#160;&#160;&#160;&#160;&#160;&#160;&#160;&#160;&#160;&#160;&#160;&#160;&#160;&#160;&#160;&#160;&#160;&#160;&#160;&#160;&#160;&#160;&#160;&#160;&#160;&#160;&#160;&#160;&#160;&#160;&#160;&#160;&#160;&#160;&#160;&#160;&#160;&#160;&#10;	0.01">
<text text-anchor="middle" x="1080.9517" y="-250.8" font-family="Times" font-size="14.00" fill="#000000">rate: gamma</text>
</a>
</g>
</g>
<!-- Q -->
<g id="node6" class="node">
<title>Q</title>
<g id="a_node6"><a xlink:title="Q (Quarantine):&#10;	sick animals that are put aside for a while">
<path fill="#00ff00" stroke="#000000" d="M1065.9517,-159C1065.9517,-159 1095.9517,-159 1095.9517,-159 1101.9517,-159 1107.9517,-165 1107.9517,-171 1107.9517,-171 1107.9517,-183 1107.9517,-183 1107.9517,-189 1101.9517,-195 1095.9517,-195 1095.9517,-195 1065.9517,-195 1065.9517,-195 1059.9517,-195 1053.9517,-189 1053.9517,-183 1053.9517,-183 1053.9517,-171 1053.9517,-171 1053.9517,-165 1059.9517,-159 1065.9517,-159"/>
<text text-anchor="middle" x="1080.9517" y="-174.2" font-family="Arial" font-size="16.00" fill="#000000">Q ◷</text>
</a>
</g>
</g>
<!-- I&#45;&gt;Q -->
<g id="edge4" class="edge">
<title>I&#45;&gt;Q</title>
<g id="a_edge4"><a xlink:title="WHEN: quarantine_period">
<path fill="none" stroke="#000000" stroke-width="1.5" d="M762.9237,-161.918C831.2012,-165.156 968.6813,-171.6758 1038.3718,-174.9807"/>
<polyline fill="none" stroke="#000000" stroke-width="1.5" points="749.7165,-161.2917 754.7109,-161.5286 "/>
<ellipse fill="none" stroke="#000000" stroke-width="1.5" cx="758.7064" cy="-161.7181" rx="4" ry="4"/>
<polygon fill="#000000" stroke="#000000" stroke-width="1.5" points="1043.6006,-178.7326 1053.7551,-175.7102 1043.9322,-171.7404 1043.6006,-178.7326"/>
<polyline fill="none" stroke="#000000" stroke-width="1.5" points="1043.7664,-175.2365 1038.772,-174.9996 "/>
</a>
</g>
<g id="a_edge4&#45;label"><a xlink:title="detection [parameter]:&#10;	rate at which animals are detected sick (falls to 0 if quarantine zone is full) &#10;	0.01*room_in_quarantine">
<text text-anchor="middle" x="906.3789" y="-174.8" font-family="Times" font-size="14.00" fill="#000000">rate: detection</text>
</a>
</g>
</g>
<!-- I&#45;&gt;D -->
<g id="edge3" class="edge">
<title>I&#45;&gt;D</title>
<path fill="none" stroke="#000000" stroke-width="1.5" d="M749.8245,-147.2773C769.8857,-139.1008 798.0315,-130 823.9287,-130 823.9287,-130 823.9287,-130 1080.9517,-130 1227.847,-130 1264.5466,-126 1411.4419,-126 1411.4419,-126 1411.4419,-126 1668.4648,-126 1675.9506,-126 1683.7331,-124.8079 1691.1941,-123.0208"/>
<polygon fill="#000000" stroke="#000000" stroke-width="1.5" points="1697.2528,-124.8875 1705.8592,-118.7084 1695.2779,-118.1718 1697.2528,-124.8875"/>
<polyline fill="none" stroke="#000000" stroke-width="1.5" points="1696.2654,-121.5296 1691.4684,-122.9402 "/>
<g id="a_edge3&#45;label"><a xlink:title="mortality_sick [parameter]:&#10;	mortality rate for sick animals (E / I / Q) &#160;&#160;&#160;&#160;&#160;&#160;&#160;&#160;&#160;&#160;&#160;&#160;&#160;&#160;&#160;&#160;&#160;&#160;&#160;&#160;&#160;&#160;&#160;&#160;&#160;&#160;&#160;&#160;&#10;	0.004">
<text text-anchor="middle" x="1246.1968" y="-132.8" font-family="Times" font-size="14.00" fill="#000000">rate: mortality_sick</text>
</a>
</g>
</g>
<!-- R&#45;&gt;S -->
<g id="edge11" class="edge">
<title>R&#45;&gt;S</title>
<path fill="none" stroke="#000000" stroke-width="1.5" d="M1394.2164,-253.0091C1376.9436,-269.0494 1348.7501,-290 1319.3193,-290 326.3105,-290 326.3105,-290 326.3105,-290 286.5391,-290 269.9945,-159.4363 264.3216,-96.3479"/>
<polygon fill="#000000" stroke="#000000" stroke-width="1.5" points="267.3748,-90.8657 263.0524,-81.1926 260.3992,-91.4499 267.3748,-90.8657"/>
<polyline fill="none" stroke="#000000" stroke-width="1.5" points="263.887,-91.1578 264.3043,-96.1403 "/>
<g id="a_edge11&#45;label"><a xlink:title="delta [parameter]:&#10;	resistance loss rate &#160;&#160;&#160;&#160;&#160;&#160;&#160;&#160;&#160;&#160;&#160;&#160;&#160;&#160;&#160;&#160;&#160;&#160;&#160;&#160;&#160;&#160;&#160;&#160;&#160;&#160;&#160;&#160;&#160;&#160;&#160;&#160;&#160;&#160;&#160;&#160;&#160;&#160;&#160;&#160;&#160;&#160;&#160;&#160;&#160;&#160;&#160;&#160;&#160;&#160;&#160;&#10;	0.01">
<text text-anchor="middle" x="722.4785" y="-292.8" font-family="Times" font-size="14.00" fill="#000000">rate: delta</text>
</a>
</g>
</g>
<!-- R&#45;&gt;D -->
<g id="edge10" class="edge">
<title>R&#45;&gt;D</title>
<path fill="none" stroke="#000000" stroke-width="1.5" d="M1438.642,-237.3617C1491.7218,-240.5429 1610.6662,-240.5098 1687.9648,-186 1703.9643,-174.7175 1715.0235,-155.8234 1722.1739,-139.3417"/>
<polygon fill="#000000" stroke="#000000" stroke-width="1.5" points="1727.3175,-135.7602 1727.6713,-125.1713 1720.7914,-133.2284 1727.3175,-135.7602"/>
<polyline fill="none" stroke="#000000" stroke-width="1.5" points="1724.0545,-134.4943 1722.246,-139.1558 "/>
<g id="a_edge10&#45;label"><a xlink:title="mortality_healthy [parameter]:&#10;	mortality rate for healthy animals &#160;&#160;&#160;&#160;&#160;&#160;&#160;&#160;&#160;&#160;&#160;&#160;&#160;&#160;&#160;&#160;&#160;&#160;&#160;&#160;&#160;&#160;&#160;&#160;&#160;&#160;&#160;&#160;&#160;&#160;&#160;&#160;&#160;&#160;&#160;&#160;&#160;&#10;	0.002">
<text text-anchor="middle" x="1586.0146" y="-239.8" font-family="Times" font-size="14.00" fill="#000000">rate: mortality_healthy</text>
</a>
</g>
</g>
<!-- Q&#45;&gt;R -->
<g id="edge9" class="edge">
<title>Q&#45;&gt;R</title>
<path fill="none" stroke="#000000" stroke-width="1.5" d="M1107.9971,-181.7464C1165.4915,-191.8365 1300.2311,-215.4829 1369.1766,-227.5826"/>
<polygon fill="#000000" stroke="#000000" stroke-width="1.5" points="1373.5683,-231.9067 1384.0228,-230.188 1374.7783,-225.0121 1373.5683,-231.9067"/>
<polyline fill="none" stroke="#000000" stroke-width="1.5" points="1374.1733,-228.4594 1369.2486,-227.5951 "/>
<g id="a_edge9&#45;label"><a xlink:title="proba: 1">
<text text-anchor="middle" x="1246.1968" y="-218.8" font-family="Times" font-size="14.00" fill="#000000">proba: 1</text>
</a>
</g>
</g>
<!-- Q&#45;&gt;D -->
<g id="edge8" class="edge">
<title>Q&#45;&gt;D</title>
<g id="a_edge8"><a xlink:title="ESCAPE: True">
<path fill="none" stroke="#000000" stroke-width="1.5" d="M1123.6084,-173.719C1139.1673,-172.7773 1156.907,-172 1173.0742,-172 1173.0742,-172 1173.0742,-172 1668.4648,-172 1689.4138,-172 1705.886,-154.7778 1716.9396,-138.0633"/>
<polyline fill="none" stroke="#000000" stroke-width="1.5" points="1108.3413,-174.7341 1113.3303,-174.4023 "/>
<polygon fill="none" stroke="#000000" stroke-width="1.5" points="1113.0981,-170.91 1123.3082,-173.7388 1113.5625,-177.8946 1113.0981,-170.91"/>
<polygon fill="#000000" stroke="#000000" stroke-width="1.5" points="1722.5336,-135.4926 1724.6246,-125.1061 1716.5129,-131.9216 1722.5336,-135.4926"/>
<polyline fill="none" stroke="#000000" stroke-width="1.5" points="1719.5232,-133.7071 1716.9726,-138.0076 "/>
</a>
</g>
<g id="a_edge8&#45;label"><a xlink:title="mortality_sick [parameter]:&#10;	mortality rate for sick animals (E / I / Q) &#160;&#160;&#160;&#160;&#160;&#160;&#160;&#160;&#160;&#160;&#160;&#160;&#160;&#160;&#160;&#160;&#160;&#160;&#160;&#160;&#160;&#160;&#160;&#160;&#160;&#160;&#160;&#160;&#10;	0.004">
<text text-anchor="middle" x="1411.4419" y="-174.8" font-family="Times" font-size="14.00" fill="#000000">rate: mortality_sick</text>
</a>
</g>
</g>
</g>
</svg>
