<?xml version="1.0" encoding="UTF-8" standalone="no"?>
<!DOCTYPE svg PUBLIC "-//W3C//DTD SVG 1.1//EN"
 "http://www.w3.org/Graphics/SVG/1.1/DTD/svg11.dtd">
<!-- Generated by graphviz version 2.40.1 (20161225.0304)
 -->
<!-- Title: %3 Pages: 1 -->
<svg width="610pt" height="62pt"
 viewBox="0.00 0.00 609.68 62.24" xmlns="http://www.w3.org/2000/svg" xmlns:xlink="http://www.w3.org/1999/xlink">
<g id="graph0" class="graph" transform="scale(1 1) rotate(0) translate(4 58.2422)">
<title>%3</title>
<polygon fill="#ffffff" stroke="transparent" points="-4,4 -4,-58.2422 605.6816,-58.2422 605.6816,4 -4,4"/>
<!-- S -->
<g id="node1" class="node">
<title>S</title>
<g id="a_node1"><a xlink:title="S (Susceptible):&#10;	suceptible of becoming infected">
<path fill="#f5deb3" stroke="#000000" d="M12,-9.1211C12,-9.1211 46.6797,-9.1211 46.6797,-9.1211 52.6797,-9.1211 58.6797,-15.1211 58.6797,-21.1211 58.6797,-21.1211 58.6797,-33.1211 58.6797,-33.1211 58.6797,-39.1211 52.6797,-45.1211 46.6797,-45.1211 46.6797,-45.1211 12,-45.1211 12,-45.1211 6,-45.1211 0,-39.1211 0,-33.1211 0,-33.1211 0,-21.1211 0,-21.1211 0,-15.1211 6,-9.1211 12,-9.1211"/>
<text text-anchor="middle" x="13.7813" y="-23.8211" font-family="Arial" font-size="16.00" fill="#000000">◆</text>
<polyline fill="none" stroke="#000000" points="27.5625,-9.2773 27.5625,-45.1211 "/>
<text text-anchor="middle" x="43.1211" y="-23.8211" font-family="Arial" font-size="16.00" fill="#000000">S </text>
</a>
</g>
</g>
<!-- I -->
<g id="node2" class="node">
<title>I</title>
<g id="a_node2"><a xlink:title="I (Infectious):&#10;	infected and able to transmit the disease">
<path fill="#b03060" stroke="#000000" d="M315.2217,-.5C315.2217,-.5 346.3467,-.5 346.3467,-.5 352.3467,-.5 358.3467,-6.5 358.3467,-12.5 358.3467,-12.5 358.3467,-41.7422 358.3467,-41.7422 358.3467,-47.7422 352.3467,-53.7422 346.3467,-53.7422 346.3467,-53.7422 315.2217,-53.7422 315.2217,-53.7422 309.2217,-53.7422 303.2217,-47.7422 303.2217,-41.7422 303.2217,-41.7422 303.2217,-12.5 303.2217,-12.5 303.2217,-6.5 309.2217,-.5 315.2217,-.5"/>
<text text-anchor="middle" x="317.0029" y="-23.743" font-family="Arial" font-size="16.00" fill="#000000">◆</text>
<polyline fill="none" stroke="#000000" points="330.7842,-.5 330.7842,-53.7422 "/>
<text text-anchor="middle" x="344.5654" y="-36.9422" font-family="Arial" font-size="16.00" fill="#000000">I </text>
<polyline fill="none" stroke="#000000" points="330.7842,-27.3438 358.3467,-27.3438 "/>
<text text-anchor="middle" x="344.5654" y="-10.5438" font-family="Arial" font-size="16.00" fill="#000000">◆</text>
</a>
</g>
</g>
<!-- S&#45;&gt;I -->
<g id="edge2" class="edge">
<title>S&#45;&gt;I</title>
<path fill="none" stroke="#000000" stroke-width="1.5" d="M58.7925,-27.1211C112.2382,-27.1211 225.405,-27.1211 287.5978,-27.1211"/>
<polygon fill="#000000" stroke="#000000" stroke-width="1.5" points="292.9706,-30.6212 302.9706,-27.1211 292.9706,-23.6212 292.9706,-30.6212"/>
<polyline fill="none" stroke="#000000" stroke-width="1.5" points="292.9706,-27.1212 287.9706,-27.1212 "/>
<g id="a_edge2&#45;label"><a xlink:title="force_of_infection [parameter]:&#10;	infection function &#160;&#160;&#160;&#160;&#160;&#160;&#160;&#160;&#160;&#160;&#160;&#160;&#160;&#160;&#160;&#160;&#160;&#160;&#160;&#160;&#160;&#160;&#160;&#160;&#160;&#160;&#160;&#160;&#160;&#160;&#160;&#160;&#160;&#160;&#160;&#160;&#160;&#160;&#160;&#160;&#160;&#160;&#160;&#160;&#160;&#160;&#160;&#160;&#160;&#160;&#160;&#160;&#160;&#10;	transmission_I * total_I / total_herd">
<text text-anchor="middle" x="180.9507" y="-29.9211" font-family="Times,serif" font-size="14.00" fill="#000000">rate: force_of_infection</text>
</a>
</g>
</g>
<!-- R -->
<g id="node3" class="node">
<title>R</title>
<g id="a_node3"><a xlink:title="R (Resistant):&#10;	healthy again and resistant to infection">
<path fill="#00bfff" stroke="#000000" d="M559.6816,-9.1211C559.6816,-9.1211 589.6816,-9.1211 589.6816,-9.1211 595.6816,-9.1211 601.6816,-15.1211 601.6816,-21.1211 601.6816,-21.1211 601.6816,-33.1211 601.6816,-33.1211 601.6816,-39.1211 595.6816,-45.1211 589.6816,-45.1211 589.6816,-45.1211 559.6816,-45.1211 559.6816,-45.1211 553.6816,-45.1211 547.6816,-39.1211 547.6816,-33.1211 547.6816,-33.1211 547.6816,-21.1211 547.6816,-21.1211 547.6816,-15.1211 553.6816,-9.1211 559.6816,-9.1211"/>
<text text-anchor="middle" x="574.6816" y="-23.8211" font-family="Arial" font-size="16.00" fill="#000000">R</text>
</a>
</g>
</g>
<!-- I&#45;&gt;R -->
<g id="edge1" class="edge">
<title>I&#45;&gt;R</title>
<path fill="none" stroke="#000000" stroke-width="1.5" d="M358.7623,-27.1211C401.2356,-27.1211 482.2973,-27.1211 532.1116,-27.1211"/>
<polygon fill="#000000" stroke="#000000" stroke-width="1.5" points="537.4024,-30.6212 547.4024,-27.1211 537.4024,-23.6212 537.4024,-30.6212"/>
<polyline fill="none" stroke="#000000" stroke-width="1.5" points="537.4024,-27.1212 532.4024,-27.1212 "/>
<g id="a_edge1&#45;label"><a xlink:title="recovery [parameter]:&#10;	recovery rate (/day) &#160;&#160;&#160;&#160;&#160;&#160;&#160;&#160;&#160;&#160;&#160;&#160;&#160;&#160;&#160;&#160;&#160;&#160;&#160;&#160;&#160;&#160;&#160;&#160;&#160;&#160;&#160;&#160;&#160;&#160;&#160;&#160;&#160;&#160;&#160;&#160;&#160;&#160;&#160;&#160;&#160;&#160;&#160;&#160;&#160;&#160;&#160;&#160;&#160;&#160;&#160;&#10;	0.1">
<text text-anchor="middle" x="453.0142" y="-29.9211" font-family="Times,serif" font-size="14.00" fill="#000000">rate: recovery</text>
</a>
</g>
</g>
</g>
</svg>
