<?xml version="1.0" encoding="UTF-8" standalone="no"?>
<!DOCTYPE svg PUBLIC "-//W3C//DTD SVG 1.1//EN"
 "http://www.w3.org/Graphics/SVG/1.1/DTD/svg11.dtd">
<!-- Generated by graphviz version 2.40.1 (20161225.0304)
 -->
<!-- Title: %3 Pages: 1 -->
<svg width="983pt" height="94pt"
 viewBox="0.00 0.00 982.59 94.50" xmlns="http://www.w3.org/2000/svg" xmlns:xlink="http://www.w3.org/1999/xlink">
<g id="graph0" class="graph" transform="scale(1 1) rotate(0) translate(4 90.4961)">
<title>%3</title>
<polygon fill="#ffffff" stroke="transparent" points="-4,4 -4,-90.4961 978.5879,-90.4961 978.5879,4 -4,4"/>
<!-- J -->
<g id="node1" class="node">
<title>J</title>
<g id="a_node1"><a xlink:title="J (Juvenile):&#10;	juvenile animals">
<path fill="#ffa500" stroke="#000000" d="M12,-11.3789C12,-11.3789 42,-11.3789 42,-11.3789 48,-11.3789 54,-17.3789 54,-23.3789 54,-23.3789 54,-52.6211 54,-52.6211 54,-58.6211 48,-64.6211 42,-64.6211 42,-64.6211 12,-64.6211 12,-64.6211 6,-64.6211 0,-58.6211 0,-52.6211 0,-52.6211 0,-23.3789 0,-23.3789 0,-17.3789 6,-11.3789 12,-11.3789"/>
<text text-anchor="middle" x="26.7227" y="-47.8211" font-family="Arial" font-size="16.00" fill="#000000">J </text>
<polyline fill="none" stroke="#000000" points="0,-38.2227 53.4453,-38.2227 "/>
<text text-anchor="middle" x="26.7227" y="-21.4227" font-family="Arial" font-size="16.00" fill="#000000">◆</text>
</a>
</g>
</g>
<!-- A -->
<g id="node2" class="node">
<title>A</title>
<g id="a_node2"><a xlink:title="A (Non&#45;gestating Adult):&#10;	adult animals">
<path fill="#a52a2a" stroke="#000000" d="M224.2656,-11.3789C224.2656,-11.3789 254.2656,-11.3789 254.2656,-11.3789 260.2656,-11.3789 266.2656,-17.3789 266.2656,-23.3789 266.2656,-23.3789 266.2656,-52.6211 266.2656,-52.6211 266.2656,-58.6211 260.2656,-64.6211 254.2656,-64.6211 254.2656,-64.6211 224.2656,-64.6211 224.2656,-64.6211 218.2656,-64.6211 212.2656,-58.6211 212.2656,-52.6211 212.2656,-52.6211 212.2656,-23.3789 212.2656,-23.3789 212.2656,-17.3789 218.2656,-11.3789 224.2656,-11.3789"/>
<text text-anchor="middle" x="238.8828" y="-47.8211" font-family="Arial" font-size="16.00" fill="#000000">A </text>
<polyline fill="none" stroke="#000000" points="212.2656,-38.2227 265.5,-38.2227 "/>
<text text-anchor="middle" x="238.8828" y="-21.4227" font-family="Arial" font-size="16.00" fill="#000000">◆</text>
</a>
</g>
</g>
<!-- J&#45;&gt;A -->
<g id="edge5" class="edge">
<title>J&#45;&gt;A</title>
<g id="a_edge5"><a xlink:title="COND: GreaterThan(age, adult_age)">
<path fill="none" stroke="#000000" stroke-width="1.5" d="M64.4847,-38C101.5718,-38 158.2475,-38 196.9359,-38"/>
<polyline fill="none" stroke="#000000" stroke-width="1.5" points="54.3155,-38 59.3155,-38 "/>
<polygon fill="#000000" stroke="#000000" stroke-width="1.5" points="60.3154,-43.0001 60.3155,-33.0001 62.3155,-33.0001 62.3154,-43.0001 60.3154,-43.0001"/>
<polyline fill="none" stroke="#000000" stroke-width="1.5" points="59.3155,-38 64.3155,-38.0001 "/>
<polygon fill="#000000" stroke="#000000" stroke-width="1.5" points="202.055,-41.5001 212.055,-38 202.055,-34.5001 202.055,-41.5001"/>
<polyline fill="none" stroke="#000000" stroke-width="1.5" points="202.055,-38.0001 197.055,-38.0001 "/>
</a>
</g>
<g id="a_edge5&#45;label"><a xlink:title="proba: 1">
<text text-anchor="middle" x="133.1328" y="-40.8" font-family="Times" font-size="14.00" fill="#000000">proba: 1</text>
</a>
</g>
</g>
<!-- G -->
<g id="node3" class="node">
<title>G</title>
<g id="a_node3"><a xlink:title="G (Gestating Adult):&#10;	adult animals (producing new juveniles)">
<path fill="#00bfff" stroke="#000000" d="M545.7715,-32.0039C545.7715,-32.0039 575.7715,-32.0039 575.7715,-32.0039 581.7715,-32.0039 587.7715,-38.0039 587.7715,-44.0039 587.7715,-44.0039 587.7715,-73.9961 587.7715,-73.9961 587.7715,-79.9961 581.7715,-85.9961 575.7715,-85.9961 575.7715,-85.9961 545.7715,-85.9961 545.7715,-85.9961 539.7715,-85.9961 533.7715,-79.9961 533.7715,-73.9961 533.7715,-73.9961 533.7715,-44.0039 533.7715,-44.0039 533.7715,-38.0039 539.7715,-32.0039 545.7715,-32.0039"/>
<text text-anchor="middle" x="560.7559" y="-69.1961" font-family="Arial" font-size="16.00" fill="#000000">G ◷ </text>
<polyline fill="none" stroke="#000000" points="533.7715,-58.8477 587.7402,-58.8477 "/>
<text text-anchor="middle" x="560.7559" y="-42.0477" font-family="Arial" font-size="16.00" fill="#000000">◆</text>
</a>
</g>
</g>
<!-- A&#45;&gt;G -->
<g id="edge2" class="edge">
<title>A&#45;&gt;G</title>
<g id="a_edge2"><a xlink:title="COND: is_Female">
<path fill="none" stroke="#000000" stroke-width="1.5" d="M276.5792,-37.043C313.582,-36.4153 371.8678,-36.2922 422.166,-40 454.6652,-42.3957 491.1705,-47.4991 518.5561,-51.8139"/>
<polyline fill="none" stroke="#000000" stroke-width="1.5" points="266.2716,-37.2404 271.2707,-37.1446 "/>
<polygon fill="#000000" stroke="#000000" stroke-width="1.5" points="272.3663,-42.1245 272.1747,-32.1263 274.1743,-32.088 274.3659,-42.0862 272.3663,-42.1245"/>
<polyline fill="none" stroke="#000000" stroke-width="1.5" points="271.2707,-37.1446 276.2697,-37.0488 "/>
<polygon fill="#000000" stroke="#000000" stroke-width="1.5" points="523.0964,-56.0942 533.5272,-54.2369 524.2148,-49.1842 523.0964,-56.0942"/>
<polyline fill="none" stroke="#000000" stroke-width="1.5" points="523.6556,-52.6392 518.7199,-51.8403 "/>
</a>
</g>
<g id="a_edge2&#45;label"><a xlink:title="reproduction [parameter]:&#10;	reproduction rate (/days) &#160;&#160;&#160;&#160;&#160;&#160;&#160;&#160;&#160;&#160;&#160;&#160;&#160;&#160;&#160;&#160;&#160;&#160;&#160;&#160;&#160;&#160;&#160;&#160;&#160;&#160;&#160;&#160;&#160;&#160;&#160;&#160;&#160;&#160;&#160;&#160;&#160;&#160;&#160;&#160;&#160;&#160;&#160;&#160;&#160;&#160;&#10;	1/20">
<text text-anchor="middle" x="372.2158" y="-42.8" font-family="Times" font-size="14.00" fill="#000000">rate: reproduction</text>
</a>
</g>
</g>
<!-- D -->
<g id="node4" class="node">
<title>D</title>
<g id="a_node4"><a xlink:title="D (Dead):&#10;	compartment to put dead animals">
<path fill="#ffffff" stroke="#000000" stroke-dasharray="1,5" d="M932.5879,-1C932.5879,-1 962.5879,-1 962.5879,-1 968.5879,-1 974.5879,-7 974.5879,-13 974.5879,-13 974.5879,-25 974.5879,-25 974.5879,-31 968.5879,-37 962.5879,-37 962.5879,-37 932.5879,-37 932.5879,-37 926.5879,-37 920.5879,-31 920.5879,-25 920.5879,-25 920.5879,-13 920.5879,-13 920.5879,-7 926.5879,-1 932.5879,-1"/>
<text text-anchor="middle" x="947.5879" y="-15.7" font-family="Arial" font-size="16.00" fill="#000000">D</text>
</a>
</g>
</g>
<!-- A&#45;&gt;D -->
<g id="edge1" class="edge">
<title>A&#45;&gt;D</title>
<path fill="none" stroke="#000000" stroke-width="1.5" d="M266.4988,-13.5044C277.323,-6.1515 290.3789,0 303.7656,0 303.7656,0 303.7656,0 883.0879,0 890.5736,0 898.3562,-1.1921 905.8172,-2.9792"/>
<polygon fill="#000000" stroke="#000000" stroke-width="1.5" points="909.901,-7.8282 920.4822,-7.2916 911.8758,-1.1125 909.901,-7.8282"/>
<polyline fill="none" stroke="#000000" stroke-width="1.5" points="910.8884,-4.4704 906.0915,-3.0598 "/>
<g id="a_edge1&#45;label"><a xlink:title="rate: 1 / avg_adult_death_age">
<text text-anchor="middle" x="560.7715" y="-2.8" font-family="Times" font-size="14.00" fill="#000000">rate: 1 / avg_adult_death_age</text>
</a>
</g>
</g>
<!-- G&#45;&gt;A -->
<g id="edge3" class="edge">
<title>G&#45;&gt;A</title>
<path fill="none" stroke="#000000" stroke-width="1.5" d="M533.5556,-59.1796C489.236,-59.3036 398.732,-58.854 322.2656,-54 311.2759,-53.3024 305.5822,-53.1252 293.5994,-51.1676"/>
<polygon fill="#000000" stroke="#000000" stroke-width="1.5" points="277.1954,-44.4798 266.7171,-46.0467 275.8855,-51.3562 277.1954,-44.4798"/>
<polyline fill="none" stroke="#000000" stroke-width="1.5" points="276.5405,-47.918 281.4521,-48.8537 "/>
<polygon fill="#000000" stroke="#000000" stroke-width="1.5" points="293.2402,-51.0992 286.5976,-53.9058 281.4521,-48.8537 288.0947,-46.0471 293.2402,-51.0992"/>
<g id="a_edge3&#45;label"><a xlink:title="proba: 1">
<text text-anchor="middle" x="372.2158" y="-60.8" font-family="Times" font-size="14.00" fill="#000000">proba: 1</text>
</a>
</g>
</g>
<!-- G&#45;&gt;D -->
<g id="edge4" class="edge">
<title>G&#45;&gt;D</title>
<g id="a_edge4"><a xlink:title="ESCAPE: True">
<path fill="none" stroke="#000000" stroke-width="1.5" d="M603.1288,-54.6199C677.5833,-46.9207 831.0564,-31.0503 905.3947,-23.3631"/>
<polyline fill="none" stroke="#000000" stroke-width="1.5" points="587.9717,-56.1873 592.9451,-55.6729 "/>
<polygon fill="none" stroke="#000000" stroke-width="1.5" points="592.5851,-52.1915 602.8921,-54.6443 593.3052,-59.1544 592.5851,-52.1915"/>
<polygon fill="#000000" stroke="#000000" stroke-width="1.5" points="910.8308,-26.3197 920.4178,-21.8096 910.1108,-19.3568 910.8308,-26.3197"/>
<polyline fill="none" stroke="#000000" stroke-width="1.5" points="910.4708,-22.8383 905.4973,-23.3526 "/>
</a>
</g>
<g id="a_edge4&#45;label"><a xlink:title="rate: 1 / avg_adult_death_age">
<text text-anchor="middle" x="781.9824" y="-46.8" font-family="Times" font-size="14.00" fill="#000000">rate: 1 / avg_adult_death_age</text>
</a>
</g>
</g>
</g>
</svg>
