<?xml version="1.0" encoding="UTF-8" standalone="no"?>
<!DOCTYPE svg PUBLIC "-//W3C//DTD SVG 1.1//EN"
 "http://www.w3.org/Graphics/SVG/1.1/DTD/svg11.dtd">
<!-- Generated by graphviz version 2.40.1 (20161225.0304)
 -->
<!-- Title: %3 Pages: 1 -->
<svg width="150pt" height="45pt"
 viewBox="0.00 0.00 149.68 45.00" xmlns="http://www.w3.org/2000/svg" xmlns:xlink="http://www.w3.org/1999/xlink">
<g id="graph0" class="graph" transform="scale(1 1) rotate(0) translate(4 41)">
<title>%3</title>
<polygon fill="#ffffff" stroke="transparent" points="-4,4 -4,-41 145.6758,-41 145.6758,4 -4,4"/>
<!-- Female -->
<g id="node1" class="node">
<title>Female</title>
<g id="a_node1"><a xlink:title="Female (Female animals):&#10;	">
<path fill="#ffa500" stroke="#000000" stroke-width="2" d="M12,-.5C12,-.5 57.3516,-.5 57.3516,-.5 63.3516,-.5 69.3516,-6.5 69.3516,-12.5 69.3516,-12.5 69.3516,-24.5 69.3516,-24.5 69.3516,-30.5 63.3516,-36.5 57.3516,-36.5 57.3516,-36.5 12,-36.5 12,-36.5 6,-36.5 0,-30.5 0,-24.5 0,-24.5 0,-12.5 0,-12.5 0,-6.5 6,-.5 12,-.5"/>
<text text-anchor="middle" x="34.6758" y="-14.8992" font-family="Arial" font-size="16.00" fill="#000000">Female</text>
</a>
</g>
</g>
<!-- Male -->
<g id="node2" class="node">
<title>Male</title>
<g id="a_node2"><a xlink:title="Male (Male animals):&#10;	">
<path fill="#00bfff" stroke="#000000" d="M99.6758,-.5C99.6758,-.5 129.6758,-.5 129.6758,-.5 135.6758,-.5 141.6758,-6.5 141.6758,-12.5 141.6758,-12.5 141.6758,-24.5 141.6758,-24.5 141.6758,-30.5 135.6758,-36.5 129.6758,-36.5 129.6758,-36.5 99.6758,-36.5 99.6758,-36.5 93.6758,-36.5 87.6758,-30.5 87.6758,-24.5 87.6758,-24.5 87.6758,-12.5 87.6758,-12.5 87.6758,-6.5 93.6758,-.5 99.6758,-.5"/>
<text text-anchor="middle" x="114.5156" y="-14.8992" font-family="Arial" font-size="16.00" fill="#000000">Male</text>
</a>
</g>
</g>
</g>
</svg>
