<?xml version="1.0" encoding="UTF-8" standalone="no"?>
<!DOCTYPE svg PUBLIC "-//W3C//DTD SVG 1.1//EN"
 "http://www.w3.org/Graphics/SVG/1.1/DTD/svg11.dtd">
<!-- Generated by graphviz version 2.40.1 (20161225.0304)
 -->
<!-- Title: %3 Pages: 1 -->
<svg width="668pt" height="45pt"
 viewBox="0.00 0.00 668.46 45.00" xmlns="http://www.w3.org/2000/svg" xmlns:xlink="http://www.w3.org/1999/xlink">
<g id="graph0" class="graph" transform="scale(1 1) rotate(0) translate(4 41)">
<title>%3</title>
<polygon fill="#ffffff" stroke="transparent" points="-4,4 -4,-41 664.4629,-41 664.4629,4 -4,4"/>
<!-- S -->
<g id="node1" class="node">
<title>S</title>
<g id="a_node1"><a xlink:title="S (Susceptible):&#10;	suceptible of becoming infected">
<path fill="#00bfff" stroke="#000000" d="M12,-.5C12,-.5 42,-.5 42,-.5 48,-.5 54,-6.5 54,-12.5 54,-12.5 54,-24.5 54,-24.5 54,-30.5 48,-36.5 42,-36.5 42,-36.5 12,-36.5 12,-36.5 6,-36.5 0,-30.5 0,-24.5 0,-24.5 0,-12.5 0,-12.5 0,-6.5 6,-.5 12,-.5"/>
<text text-anchor="middle" x="27" y="-15.2" font-family="Arial" font-size="16.00" fill="#000000">S</text>
</a>
</g>
</g>
<!-- I -->
<g id="node2" class="node">
<title>I</title>
<g id="a_node2"><a xlink:title="I (Infectious):&#10;	infected and able to transmit the disease">
<path fill="#ff0000" stroke="#000000" d="M382.8867,-.5C382.8867,-.5 412.8867,-.5 412.8867,-.5 418.8867,-.5 424.8867,-6.5 424.8867,-12.5 424.8867,-12.5 424.8867,-24.5 424.8867,-24.5 424.8867,-30.5 418.8867,-36.5 412.8867,-36.5 412.8867,-36.5 382.8867,-36.5 382.8867,-36.5 376.8867,-36.5 370.8867,-30.5 370.8867,-24.5 370.8867,-24.5 370.8867,-12.5 370.8867,-12.5 370.8867,-6.5 376.8867,-.5 382.8867,-.5"/>
<text text-anchor="middle" x="397.8867" y="-15.2" font-family="Arial" font-size="16.00" fill="#000000">I</text>
</a>
</g>
</g>
<!-- S&#45;&gt;I -->
<g id="edge2" class="edge">
<title>S&#45;&gt;I</title>
<path fill="none" stroke="#000000" stroke-width="1.5" d="M54.2722,-18.5C118.3839,-18.5 279.0374,-18.5 355.7863,-18.5"/>
<polygon fill="#000000" stroke="#000000" stroke-width="1.5" points="360.8252,-22.0001 370.8252,-18.5 360.8251,-15.0001 360.8252,-22.0001"/>
<polyline fill="none" stroke="#000000" stroke-width="1.5" points="360.8252,-18.5001 355.8252,-18.5001 "/>
<g id="a_edge2&#45;label"><a xlink:title="rate: beta * total_I / total_population">
<text text-anchor="middle" x="212.4434" y="-21.3" font-family="Times" font-size="14.00" fill="#000000">rate: beta * total_I / total_population</text>
</a>
</g>
</g>
<!-- R -->
<g id="node3" class="node">
<title>R</title>
<g id="a_node3"><a xlink:title="R (Resistant):&#10;	recovered and resistant to new infections">
<path fill="#32cd32" stroke="#000000" d="M618.4629,-.5C618.4629,-.5 648.4629,-.5 648.4629,-.5 654.4629,-.5 660.4629,-6.5 660.4629,-12.5 660.4629,-12.5 660.4629,-24.5 660.4629,-24.5 660.4629,-30.5 654.4629,-36.5 648.4629,-36.5 648.4629,-36.5 618.4629,-36.5 618.4629,-36.5 612.4629,-36.5 606.4629,-30.5 606.4629,-24.5 606.4629,-24.5 606.4629,-12.5 606.4629,-12.5 606.4629,-6.5 612.4629,-.5 618.4629,-.5"/>
<text text-anchor="middle" x="633.4629" y="-15.2" font-family="Arial" font-size="16.00" fill="#000000">R</text>
</a>
</g>
</g>
<!-- I&#45;&gt;R -->
<g id="edge1" class="edge">
<title>I&#45;&gt;R</title>
<path fill="none" stroke="#000000" stroke-width="1.5" d="M424.9103,-18.5C465.6284,-18.5 543.064,-18.5 591.263,-18.5"/>
<polygon fill="#000000" stroke="#000000" stroke-width="1.5" points="596.3926,-22.0001 606.3926,-18.5 596.3926,-15.0001 596.3926,-22.0001"/>
<polyline fill="none" stroke="#000000" stroke-width="1.5" points="596.3926,-18.5001 591.3926,-18.5001 "/>
<g id="a_edge1&#45;label"><a xlink:title="gamma [parameter]:&#10;	recovery rate &#160;&#160;&#160;&#160;&#160;&#160;&#160;&#160;&#160;&#160;&#160;&#160;&#160;&#160;&#160;&#160;&#160;&#160;&#160;&#160;&#160;&#160;&#160;&#160;&#160;&#160;&#160;&#160;&#160;&#160;&#160;&#160;&#160;&#160;&#160;&#160;&#160;&#160;&#160;&#160;&#160;&#160;&#160;&#160;&#160;&#160;&#160;&#160;&#160;&#160;&#160;&#160;&#160;&#160;&#160;&#160;&#160;&#160;&#10;	1/30">
<text text-anchor="middle" x="515.6748" y="-21.3" font-family="Times" font-size="14.00" fill="#000000">rate: gamma</text>
</a>
</g>
</g>
</g>
</svg>
