<?xml version="1.0" encoding="UTF-8" standalone="no"?>
<!DOCTYPE svg PUBLIC "-//W3C//DTD SVG 1.1//EN"
 "http://www.w3.org/Graphics/SVG/1.1/DTD/svg11.dtd">
<!-- Generated by graphviz version 2.40.1 (20161225.0304)
 -->
<!-- Title: %3 Pages: 1 -->
<svg width="278pt" height="45pt"
 viewBox="0.00 0.00 278.00 45.00" xmlns="http://www.w3.org/2000/svg" xmlns:xlink="http://www.w3.org/1999/xlink">
<g id="graph0" class="graph" transform="scale(1 1) rotate(0) translate(4 41)">
<title>%3</title>
<polygon fill="#ffffff" stroke="transparent" points="-4,4 -4,-41 274,-41 274,4 -4,4"/>
<!-- P0 -->
<g id="node1" class="node">
<title>P0</title>
<g id="a_node1"><a xlink:title="P0 (Nulliparous):&#10;	Nulliparous animal (no previous farrowing)">
<path fill="#ffa500" stroke="#000000" d="M12,-.5C12,-.5 42,-.5 42,-.5 48,-.5 54,-6.5 54,-12.5 54,-12.5 54,-24.5 54,-24.5 54,-30.5 48,-36.5 42,-36.5 42,-36.5 12,-36.5 12,-36.5 6,-36.5 0,-30.5 0,-24.5 0,-24.5 0,-12.5 0,-12.5 0,-6.5 6,-.5 12,-.5"/>
<text text-anchor="middle" x="26.7852" y="-14.8992" font-family="Arial" font-size="16.00" fill="#000000">P0</text>
</a>
</g>
</g>
<!-- P1 -->
<g id="node2" class="node">
<title>P1</title>
<g id="a_node2"><a xlink:title="P1 (Parity 1):&#10;	Animal with parity 1 (first farrowing)">
<path fill="#ffc0cb" stroke="#000000" d="M84,-.5C84,-.5 114,-.5 114,-.5 120,-.5 126,-6.5 126,-12.5 126,-12.5 126,-24.5 126,-24.5 126,-30.5 120,-36.5 114,-36.5 114,-36.5 84,-36.5 84,-36.5 78,-36.5 72,-30.5 72,-24.5 72,-24.5 72,-12.5 72,-12.5 72,-6.5 78,-.5 84,-.5"/>
<text text-anchor="middle" x="98.7852" y="-14.8992" font-family="Arial" font-size="16.00" fill="#000000">P1</text>
</a>
</g>
</g>
<!-- P2 -->
<g id="node3" class="node">
<title>P2</title>
<g id="a_node3"><a xlink:title="P2 (Parity 2):&#10;	Animal with parity 2">
<path fill="#ff0000" stroke="#000000" d="M156,-.5C156,-.5 186,-.5 186,-.5 192,-.5 198,-6.5 198,-12.5 198,-12.5 198,-24.5 198,-24.5 198,-30.5 192,-36.5 186,-36.5 186,-36.5 156,-36.5 156,-36.5 150,-36.5 144,-30.5 144,-24.5 144,-24.5 144,-12.5 144,-12.5 144,-6.5 150,-.5 156,-.5"/>
<text text-anchor="middle" x="170.7852" y="-14.8992" font-family="Arial" font-size="16.00" fill="#000000">P2</text>
</a>
</g>
</g>
<!-- P3 -->
<g id="node4" class="node">
<title>P3</title>
<g id="a_node4"><a xlink:title="P3 (Parity 3+):&#10;	Animal with parity 3 and more">
<path fill="#a020f0" stroke="#000000" d="M228,-.5C228,-.5 258,-.5 258,-.5 264,-.5 270,-6.5 270,-12.5 270,-12.5 270,-24.5 270,-24.5 270,-30.5 264,-36.5 258,-36.5 258,-36.5 228,-36.5 228,-36.5 222,-36.5 216,-30.5 216,-24.5 216,-24.5 216,-12.5 216,-12.5 216,-6.5 222,-.5 228,-.5"/>
<text text-anchor="middle" x="242.7852" y="-14.8992" font-family="Arial" font-size="16.00" fill="#000000">P3</text>
</a>
</g>
</g>
</g>
</svg>
