<?xml version="1.0" encoding="UTF-8" standalone="no"?>
<!DOCTYPE svg PUBLIC "-//W3C//DTD SVG 1.1//EN"
 "http://www.w3.org/Graphics/SVG/1.1/DTD/svg11.dtd">
<!-- Generated by graphviz version 2.40.1 (20161225.0304)
 -->
<!-- Title: %3 Pages: 1 -->
<svg width="546pt" height="82pt"
 viewBox="0.00 0.00 546.39 82.00" xmlns="http://www.w3.org/2000/svg" xmlns:xlink="http://www.w3.org/1999/xlink">
<g id="graph0" class="graph" transform="scale(1 1) rotate(0) translate(4 78)">
<title>%3</title>
<polygon fill="#ffffff" stroke="transparent" points="-4,4 -4,-78 542.3906,-78 542.3906,4 -4,4"/>
<!-- J -->
<g id="node1" class="node">
<title>J</title>
<g id="a_node1"><a xlink:title="J (Juvenile):&#10;	juvenile animals">
<path fill="#ffa500" stroke="#000000" d="M12,-20C12,-20 42,-20 42,-20 48,-20 54,-26 54,-32 54,-32 54,-44 54,-44 54,-50 48,-56 42,-56 42,-56 12,-56 12,-56 6,-56 0,-50 0,-44 0,-44 0,-32 0,-32 0,-26 6,-20 12,-20"/>
<text text-anchor="middle" x="27" y="-34.7" font-family="Arial" font-size="16.00" fill="#000000">J</text>
</a>
</g>
</g>
<!-- A -->
<g id="node2" class="node">
<title>A</title>
<g id="a_node2"><a xlink:title="A (Adult):&#10;	adult animals (producing new juveniles)">
<path fill="#a52a2a" stroke="#000000" d="M269.3608,-33C269.3608,-33 299.3608,-33 299.3608,-33 305.3608,-33 311.3608,-39 311.3608,-45 311.3608,-45 311.3608,-57 311.3608,-57 311.3608,-63 305.3608,-69 299.3608,-69 299.3608,-69 269.3608,-69 269.3608,-69 263.3608,-69 257.3608,-63 257.3608,-57 257.3608,-57 257.3608,-45 257.3608,-45 257.3608,-39 263.3608,-33 269.3608,-33"/>
<text text-anchor="middle" x="284.3608" y="-47.7" font-family="Arial" font-size="16.00" fill="#000000">A</text>
</a>
</g>
</g>
<!-- J&#45;&gt;A -->
<g id="edge3" class="edge">
<title>J&#45;&gt;A</title>
<path fill="none" stroke="#000000" stroke-width="1.5" d="M54.1559,-37.0381C88.0945,-36.0935 147.9352,-35.277 199.0176,-39 213.0682,-40.024 228.3281,-41.9181 242.007,-43.9037"/>
<polygon fill="#000000" stroke="#000000" stroke-width="1.5" points="246.7564,-48.1731 257.1715,-46.23 247.8178,-41.2541 246.7564,-48.1731"/>
<polyline fill="none" stroke="#000000" stroke-width="1.5" points="247.2871,-44.7136 242.3449,-43.9554 "/>
<g id="a_edge3&#45;label"><a xlink:title="maturation [parameter]:&#10;	rate at which juveniles become adults (/day) &#160;&#160;&#160;&#160;&#160;&#160;&#160;&#160;&#160;&#160;&#160;&#160;&#160;&#160;&#160;&#160;&#160;&#160;&#160;&#160;&#160;&#160;&#160;&#160;&#160;&#160;&#160;&#10;	1/20">
<text text-anchor="middle" x="154.5088" y="-41.8" font-family="Times,serif" font-size="14.00" fill="#000000">rate: maturation</text>
</a>
</g>
</g>
<!-- D -->
<g id="node3" class="node">
<title>D</title>
<g id="a_node3"><a xlink:title="D (Dead):&#10;	compartment to put dead animals">
<path fill="#ffffff" stroke="#000000" stroke-dasharray="1,5" d="M496.3906,-1C496.3906,-1 526.3906,-1 526.3906,-1 532.3906,-1 538.3906,-7 538.3906,-13 538.3906,-13 538.3906,-25 538.3906,-25 538.3906,-31 532.3906,-37 526.3906,-37 526.3906,-37 496.3906,-37 496.3906,-37 490.3906,-37 484.3906,-31 484.3906,-25 484.3906,-25 484.3906,-13 484.3906,-13 484.3906,-7 490.3906,-1 496.3906,-1"/>
<text text-anchor="middle" x="511.3906" y="-15.7" font-family="Arial" font-size="16.00" fill="#000000">D</text>
</a>
</g>
</g>
<!-- J&#45;&gt;D -->
<g id="edge4" class="edge">
<title>J&#45;&gt;D</title>
<path fill="none" stroke="#000000" stroke-width="1.5" d="M45.6636,-19.8903C57.7318,-10.103 74.3442,0 91.5,0 91.5,0 91.5,0 446.8906,0 454.3764,0 462.1589,-1.1921 469.6199,-2.9792"/>
<polygon fill="#000000" stroke="#000000" stroke-width="1.5" points="473.7037,-7.8282 484.2849,-7.2916 475.6785,-1.1125 473.7037,-7.8282"/>
<polyline fill="none" stroke="#000000" stroke-width="1.5" points="474.6911,-4.4704 469.8942,-3.0598 "/>
<g id="a_edge4&#45;label"><a xlink:title="death [parameter]:&#10;	the death rate (/day) &#160;&#160;&#160;&#160;&#160;&#160;&#160;&#160;&#160;&#160;&#160;&#160;&#160;&#160;&#160;&#160;&#160;&#160;&#160;&#160;&#160;&#160;&#160;&#160;&#160;&#160;&#160;&#160;&#160;&#160;&#160;&#160;&#160;&#160;&#160;&#160;&#160;&#160;&#160;&#160;&#160;&#160;&#160;&#160;&#160;&#160;&#160;&#160;&#160;&#160;&#10;	birth">
<text text-anchor="middle" x="284.3608" y="-2.8" font-family="Times,serif" font-size="14.00" fill="#000000">rate: death</text>
</a>
</g>
</g>
<!-- A&#45;&gt;J -->
<g id="edge2" class="edge">
<title>A&#45;&gt;J</title>
<path fill="none" stroke="#000000" stroke-width="1.5" stroke-dasharray="5,2" d="M257.2738,-54.2344C216.647,-58.3888 137.6884,-63.7567 72,-52 71.0033,-51.8216 69.9979,-51.6278 68.9868,-51.4204"/>
<polygon fill="#000000" stroke="#000000" stroke-width="1.5" points="64.8909,-46.7665 54.3366,-47.6922 63.1645,-53.5503 64.8909,-46.7665"/>
<polyline fill="none" stroke="#000000" stroke-width="1.5" points="64.0277,-50.1584 68.8732,-51.3915 "/>
<g id="a_edge2&#45;label"><a xlink:title="birth [parameter]:&#10;	the birth rate (/day) &#160;&#160;&#160;&#160;&#160;&#160;&#160;&#160;&#160;&#160;&#160;&#160;&#160;&#160;&#160;&#160;&#160;&#160;&#160;&#160;&#160;&#160;&#160;&#160;&#160;&#160;&#160;&#160;&#160;&#160;&#160;&#160;&#160;&#160;&#160;&#160;&#160;&#160;&#160;&#160;&#160;&#160;&#160;&#160;&#160;&#160;&#160;&#160;&#160;&#160;&#10;	0.01">
<text text-anchor="middle" x="154.5088" y="-62.8" font-family="Times,serif" font-size="14.00" fill="#000000">rate: birth</text>
</a>
</g>
</g>
<!-- A&#45;&gt;D -->
<g id="edge1" class="edge">
<title>A&#45;&gt;D</title>
<path fill="none" stroke="#000000" stroke-width="1.5" d="M311.7459,-47.1401C350.8853,-41.6233 423.1652,-31.4354 469.179,-24.9498"/>
<polygon fill="#000000" stroke="#000000" stroke-width="1.5" points="474.8482,-27.6853 484.2618,-22.8238 473.8712,-20.7538 474.8482,-27.6853"/>
<polyline fill="none" stroke="#000000" stroke-width="1.5" points="474.3597,-24.2196 469.4086,-24.9175 "/>
<g id="a_edge1&#45;label"><a xlink:title="death [parameter]:&#10;	the death rate (/day) &#160;&#160;&#160;&#160;&#160;&#160;&#160;&#160;&#160;&#160;&#160;&#160;&#160;&#160;&#160;&#160;&#160;&#160;&#160;&#160;&#160;&#160;&#160;&#160;&#160;&#160;&#160;&#160;&#160;&#160;&#160;&#160;&#160;&#160;&#160;&#160;&#160;&#160;&#160;&#160;&#160;&#160;&#160;&#160;&#160;&#160;&#160;&#160;&#160;&#160;&#10;	birth">
<text text-anchor="middle" x="399.0474" y="-41.8" font-family="Times,serif" font-size="14.00" fill="#000000">rate: death</text>
</a>
</g>
</g>
</g>
</svg>
