<?xml version="1.0" encoding="UTF-8" standalone="no"?>
<!DOCTYPE svg PUBLIC "-//W3C//DTD SVG 1.1//EN"
 "http://www.w3.org/Graphics/SVG/1.1/DTD/svg11.dtd">
<!-- Generated by graphviz version 2.40.1 (20161225.0304)
 -->
<!-- Title: %3 Pages: 1 -->
<svg width="604pt" height="45pt"
 viewBox="0.00 0.00 603.88 45.00" xmlns="http://www.w3.org/2000/svg" xmlns:xlink="http://www.w3.org/1999/xlink">
<g id="graph0" class="graph" transform="scale(1 1) rotate(0) translate(4 41)">
<title>%3</title>
<polygon fill="#ffffff" stroke="transparent" points="-4,4 -4,-41 599.877,-41 599.877,4 -4,4"/>
<!-- S -->
<g id="node1" class="node">
<title>S</title>
<g id="a_node1"><a xlink:title="S (Susceptible):&#10;	suceptible of becoming infected">
<path fill="#f5deb3" stroke="#000000" stroke-width="2" d="M12,-.5C12,-.5 42,-.5 42,-.5 48,-.5 54,-6.5 54,-12.5 54,-12.5 54,-24.5 54,-24.5 54,-30.5 48,-36.5 42,-36.5 42,-36.5 12,-36.5 12,-36.5 6,-36.5 0,-30.5 0,-24.5 0,-24.5 0,-12.5 0,-12.5 0,-6.5 6,-.5 12,-.5"/>
<text text-anchor="middle" x="27" y="-15.2" font-family="Arial" font-size="16.00" fill="#000000">S</text>
</a>
</g>
</g>
<!-- I -->
<g id="node2" class="node">
<title>I</title>
<g id="a_node2"><a xlink:title="I (Infectious):&#10;	infected and able to transmit the disease">
<path fill="#b03060" stroke="#000000" d="M310.542,-.5C310.542,-.5 340.542,-.5 340.542,-.5 346.542,-.5 352.542,-6.5 352.542,-12.5 352.542,-12.5 352.542,-24.5 352.542,-24.5 352.542,-30.5 346.542,-36.5 340.542,-36.5 340.542,-36.5 310.542,-36.5 310.542,-36.5 304.542,-36.5 298.542,-30.5 298.542,-24.5 298.542,-24.5 298.542,-12.5 298.542,-12.5 298.542,-6.5 304.542,-.5 310.542,-.5"/>
<text text-anchor="middle" x="325.542" y="-15.2" font-family="Arial" font-size="16.00" fill="#000000">I</text>
</a>
</g>
</g>
<!-- S&#45;&gt;I -->
<g id="edge2" class="edge">
<title>S&#45;&gt;I</title>
<path fill="none" stroke="#000000" stroke-width="1.5" d="M54.0202,-18.5C106.0648,-18.5 220.574,-18.5 282.9705,-18.5"/>
<polygon fill="#000000" stroke="#000000" stroke-width="1.5" points="288.3678,-22.0001 298.3678,-18.5 288.3678,-15.0001 288.3678,-22.0001"/>
<polyline fill="none" stroke="#000000" stroke-width="1.5" points="288.3678,-18.5001 283.3678,-18.5001 "/>
<g id="a_edge2&#45;label"><a xlink:title="force_of_infection [parameter]:&#10;	infection function &#160;&#160;&#160;&#160;&#160;&#160;&#160;&#160;&#160;&#160;&#160;&#160;&#160;&#160;&#160;&#160;&#160;&#160;&#160;&#160;&#160;&#160;&#160;&#160;&#160;&#160;&#160;&#160;&#160;&#160;&#160;&#160;&#160;&#160;&#160;&#160;&#160;&#160;&#160;&#160;&#160;&#160;&#160;&#160;&#160;&#160;&#160;&#160;&#160;&#160;&#160;&#160;&#160;&#10;	is_J * force_of_infection_juveniles + is_A * force_of_infection_adults ">
<text text-anchor="middle" x="176.271" y="-21.3" font-family="Times,serif" font-size="14.00" fill="#000000">rate: force_of_infection</text>
</a>
</g>
</g>
<!-- R -->
<g id="node3" class="node">
<title>R</title>
<g id="a_node3"><a xlink:title="R (Resistant):&#10;	healthy again and resistant to infection">
<path fill="#00bfff" stroke="#000000" d="M553.877,-.5C553.877,-.5 583.877,-.5 583.877,-.5 589.877,-.5 595.877,-6.5 595.877,-12.5 595.877,-12.5 595.877,-24.5 595.877,-24.5 595.877,-30.5 589.877,-36.5 583.877,-36.5 583.877,-36.5 553.877,-36.5 553.877,-36.5 547.877,-36.5 541.877,-30.5 541.877,-24.5 541.877,-24.5 541.877,-12.5 541.877,-12.5 541.877,-6.5 547.877,-.5 553.877,-.5"/>
<text text-anchor="middle" x="568.877" y="-15.2" font-family="Arial" font-size="16.00" fill="#000000">R</text>
</a>
</g>
</g>
<!-- I&#45;&gt;R -->
<g id="edge1" class="edge">
<title>I&#45;&gt;R</title>
<path fill="none" stroke="#000000" stroke-width="1.5" d="M352.9826,-18.5C395.1737,-18.5 476.3164,-18.5 526.2173,-18.5"/>
<polygon fill="#000000" stroke="#000000" stroke-width="1.5" points="531.5367,-22.0001 541.5366,-18.5 531.5366,-15.0001 531.5367,-22.0001"/>
<polyline fill="none" stroke="#000000" stroke-width="1.5" points="531.5366,-18.5001 526.5366,-18.5001 "/>
<g id="a_edge1&#45;label"><a xlink:title="recovery [parameter]:&#10;	recovery rate (/day) &#160;&#160;&#160;&#160;&#160;&#160;&#160;&#160;&#160;&#160;&#160;&#160;&#160;&#160;&#160;&#160;&#160;&#160;&#160;&#160;&#160;&#160;&#160;&#160;&#160;&#160;&#160;&#160;&#160;&#160;&#160;&#160;&#160;&#160;&#160;&#160;&#160;&#160;&#160;&#160;&#160;&#160;&#160;&#160;&#160;&#160;&#160;&#160;&#160;&#160;&#160;&#10;	0.1">
<text text-anchor="middle" x="447.2095" y="-21.3" font-family="Times,serif" font-size="14.00" fill="#000000">rate: recovery</text>
</a>
</g>
</g>
</g>
</svg>
