<?xml version="1.0" encoding="UTF-8" standalone="no"?>
<!DOCTYPE svg PUBLIC "-//W3C//DTD SVG 1.1//EN"
 "http://www.w3.org/Graphics/SVG/1.1/DTD/svg11.dtd">
<!-- Generated by graphviz version 2.40.1 (20161225.0304)
 -->
<!-- Title: %3 Pages: 1 -->
<svg width="754pt" height="82pt"
 viewBox="0.00 0.00 754.10 82.00" xmlns="http://www.w3.org/2000/svg" xmlns:xlink="http://www.w3.org/1999/xlink">
<g id="graph0" class="graph" transform="scale(1 1) rotate(0) translate(4 78)">
<title>%3</title>
<polygon fill="#ffffff" stroke="transparent" points="-4,4 -4,-78 750.1006,-78 750.1006,4 -4,4"/>
<!-- J -->
<g id="node1" class="node">
<title>J</title>
<g id="a_node1"><a xlink:title="J (Juvenile):&#10;	juvenile individuals">
<path fill="#ffa500" stroke="#000000" d="M12,-20C12,-20 42,-20 42,-20 48,-20 54,-26 54,-32 54,-32 54,-44 54,-44 54,-50 48,-56 42,-56 42,-56 12,-56 12,-56 6,-56 0,-50 0,-44 0,-44 0,-32 0,-32 0,-26 6,-20 12,-20"/>
<text text-anchor="middle" x="27" y="-34.7" font-family="Arial" font-size="16.00" fill="#000000">J</text>
</a>
</g>
</g>
<!-- A -->
<g id="node2" class="node">
<title>A</title>
<g id="a_node2"><a xlink:title="A (Adult):&#10;	adult individuals (producing new juveniles)">
<path fill="#a52a2a" stroke="#000000" d="M282.9951,-33C282.9951,-33 312.9951,-33 312.9951,-33 318.9951,-33 324.9951,-39 324.9951,-45 324.9951,-45 324.9951,-57 324.9951,-57 324.9951,-63 318.9951,-69 312.9951,-69 312.9951,-69 282.9951,-69 282.9951,-69 276.9951,-69 270.9951,-63 270.9951,-57 270.9951,-57 270.9951,-45 270.9951,-45 270.9951,-39 276.9951,-33 282.9951,-33"/>
<text text-anchor="middle" x="297.9951" y="-47.7" font-family="Arial" font-size="16.00" fill="#000000">A</text>
</a>
</g>
</g>
<!-- J&#45;&gt;A -->
<g id="edge3" class="edge">
<title>J&#45;&gt;A</title>
<path fill="none" stroke="#000000" stroke-width="1.5" d="M54.2064,-37.9977C78.9914,-38.102 116.6004,-38.5264 149.2588,-40 185.1607,-41.6199 225.854,-44.7168 255.5896,-47.2129"/>
<polygon fill="#000000" stroke="#000000" stroke-width="1.5" points="260.6195,-51.1571 270.8821,-48.5246 261.2178,-44.1827 260.6195,-51.1571"/>
<polyline fill="none" stroke="#000000" stroke-width="1.5" points="260.9186,-47.6699 255.9369,-47.2426 "/>
<g id="a_edge3&#45;label"><a xlink:title="m [parameter]:&#10;	maturation rate, at which juveniles become adults (/day) &#160;&#160;&#160;&#160;&#160;&#160;&#160;&#160;&#160;&#160;&#160;&#160;&#160;&#160;&#160;&#10;	1/50">
<text text-anchor="middle" x="129.6294" y="-42.8" font-family="Times" font-size="14.00" fill="#000000">rate: m</text>
</a>
</g>
</g>
<!-- D -->
<g id="node3" class="node">
<title>D</title>
<g id="a_node3"><a xlink:title="D (Dead):&#10;	compartment to put dead individuals">
<path fill="#ffffff" stroke="#000000" stroke-dasharray="1,5" d="M704.1006,-1C704.1006,-1 734.1006,-1 734.1006,-1 740.1006,-1 746.1006,-7 746.1006,-13 746.1006,-13 746.1006,-25 746.1006,-25 746.1006,-31 740.1006,-37 734.1006,-37 734.1006,-37 704.1006,-37 704.1006,-37 698.1006,-37 692.1006,-31 692.1006,-25 692.1006,-25 692.1006,-13 692.1006,-13 692.1006,-7 698.1006,-1 704.1006,-1"/>
<text text-anchor="middle" x="719.1006" y="-15.7" font-family="Arial" font-size="16.00" fill="#000000">D</text>
</a>
</g>
</g>
<!-- J&#45;&gt;D -->
<g id="edge4" class="edge">
<title>J&#45;&gt;D</title>
<path fill="none" stroke="#000000" stroke-width="1.5" d="M45.6636,-19.8903C57.7318,-10.103 74.3442,0 91.5,0 91.5,0 91.5,0 654.6006,0 662.0863,0 669.8689,-1.1921 677.3299,-2.9792"/>
<polygon fill="#000000" stroke="#000000" stroke-width="1.5" points="681.4137,-7.8282 691.9949,-7.2916 683.3885,-1.1125 681.4137,-7.8282"/>
<polyline fill="none" stroke="#000000" stroke-width="1.5" points="682.4011,-4.4704 677.6042,-3.0598 "/>
<g id="a_edge4&#45;label"><a xlink:title="rate: mu_J * total_population / K">
<text text-anchor="middle" x="297.9951" y="-2.8" font-family="Times" font-size="14.00" fill="#000000">rate: mu_J * total_population / K</text>
</a>
</g>
</g>
<!-- A&#45;&gt;J -->
<g id="edge2" class="edge">
<title>A&#45;&gt;J</title>
<path fill="none" stroke="#000000" stroke-width="1.5" stroke-dasharray="5,2" d="M270.937,-54.2472C228.2577,-58.6707 142.8713,-64.6843 72,-52 71.0033,-51.8216 69.9979,-51.6278 68.9868,-51.4204"/>
<polygon fill="#000000" stroke="#000000" stroke-width="1.5" points="64.8909,-46.7665 54.3366,-47.6922 63.1645,-53.5503 64.8909,-46.7665"/>
<polyline fill="none" stroke="#000000" stroke-width="1.5" points="64.0277,-50.1584 68.8732,-51.3915 "/>
<g id="a_edge2&#45;label"><a xlink:title="b [parameter]:&#10;	the birth rate (/day) &#160;&#160;&#160;&#160;&#160;&#160;&#160;&#160;&#160;&#160;&#160;&#160;&#160;&#160;&#160;&#160;&#160;&#160;&#160;&#160;&#160;&#160;&#160;&#160;&#160;&#160;&#160;&#160;&#160;&#160;&#160;&#160;&#160;&#160;&#160;&#160;&#160;&#160;&#160;&#160;&#160;&#160;&#160;&#160;&#160;&#160;&#160;&#160;&#160;&#160;&#10;	0.005">
<text text-anchor="middle" x="129.6294" y="-62.8" font-family="Times" font-size="14.00" fill="#000000">rate: b</text>
</a>
</g>
</g>
<!-- A&#45;&gt;D -->
<g id="edge1" class="edge">
<title>A&#45;&gt;D</title>
<path fill="none" stroke="#000000" stroke-width="1.5" d="M325.3006,-48.925C396.9451,-43.4807 590.7114,-28.7564 676.8433,-22.2111"/>
<polygon fill="#000000" stroke="#000000" stroke-width="1.5" points="682.151,-25.318 691.8571,-21.0702 681.6206,-18.3381 682.151,-25.318"/>
<polyline fill="none" stroke="#000000" stroke-width="1.5" points="681.8858,-21.828 676.9002,-22.2069 "/>
<g id="a_edge1&#45;label"><a xlink:title="rate: mu_A * total_population / K">
<text text-anchor="middle" x="541.416" y="-42.8" font-family="Times" font-size="14.00" fill="#000000">rate: mu_A * total_population / K</text>
</a>
</g>
</g>
</g>
</svg>
