<?xml version="1.0" encoding="UTF-8" standalone="no"?>
<!DOCTYPE svg PUBLIC "-//W3C//DTD SVG 1.1//EN"
 "http://www.w3.org/Graphics/SVG/1.1/DTD/svg11.dtd">
<!-- Generated by graphviz version 2.40.1 (20161225.0304)
 -->
<!-- Title: %3 Pages: 1 -->
<svg width="834pt" height="140pt"
 viewBox="0.00 0.00 834.47 140.00" xmlns="http://www.w3.org/2000/svg" xmlns:xlink="http://www.w3.org/1999/xlink">
<g id="graph0" class="graph" transform="scale(1 1) rotate(0) translate(4 136)">
<title>%3</title>
<polygon fill="#ffffff" stroke="transparent" points="-4,4 -4,-136 830.4658,-136 830.4658,4 -4,4"/>
<!-- S -->
<g id="node1" class="node">
<title>S</title>
<g id="a_node1"><a xlink:title="S (Susceptible):&#10;	suceptible of becoming infected">
<path fill="#f5deb3" stroke="#000000" d="M12.4053,-41C12.4053,-41 42.4053,-41 42.4053,-41 48.4053,-41 54.4053,-47 54.4053,-53 54.4053,-53 54.4053,-65 54.4053,-65 54.4053,-71 48.4053,-77 42.4053,-77 42.4053,-77 12.4053,-77 12.4053,-77 6.4053,-77 .4053,-71 .4053,-65 .4053,-65 .4053,-53 .4053,-53 .4053,-47 6.4053,-41 12.4053,-41"/>
<text text-anchor="middle" x="27.4053" y="-55.7" font-family="Arial" font-size="16.00" fill="#000000">S</text>
</a>
</g>
</g>
<!-- S&#45;&gt;S -->
<g id="edge8" class="edge">
<title>S&#45;&gt;S</title>
<path fill="none" stroke="#000000" stroke-width="1.5" stroke-dasharray="5,2" d="M19.4957,-77.0287C18.1516,-86.6943 20.7881,-95.5 27.4053,-95.5 29.9901,-95.5 31.9676,-94.1564 33.3376,-91.9427"/>
<polygon fill="#000000" stroke="#000000" stroke-width="1.5" points="37.4702,-87.402 35.3149,-77.0287 30.5309,-86.4819 37.4702,-87.402"/>
<polyline fill="none" stroke="#000000" stroke-width="1.5" points="34.0005,-86.942 33.3434,-91.8986 "/>
<g id="a_edge8&#45;label"><a xlink:title="birth [parameter]:&#10;	the birth rate (/day) &#160;&#160;&#160;&#160;&#160;&#160;&#160;&#160;&#160;&#160;&#160;&#160;&#160;&#160;&#160;&#160;&#160;&#160;&#160;&#160;&#160;&#160;&#160;&#160;&#160;&#160;&#160;&#160;&#160;&#160;&#160;&#160;&#160;&#160;&#160;&#160;&#160;&#160;&#160;&#160;&#160;&#160;&#160;&#160;&#160;&#160;&#160;&#160;&#160;&#160;&#10;	0.01">
<text text-anchor="middle" x="27.4053" y="-98.3" font-family="Times,serif" font-size="14.00" fill="#000000">rate: birth</text>
</a>
</g>
</g>
<!-- I -->
<g id="node2" class="node">
<title>I</title>
<g id="a_node2"><a xlink:title="I (Infectious):&#10;	infected and able to transmit the disease">
<path fill="#b03060" stroke="#000000" d="M311.3525,-43C311.3525,-43 341.3525,-43 341.3525,-43 347.3525,-43 353.3525,-49 353.3525,-55 353.3525,-55 353.3525,-67 353.3525,-67 353.3525,-73 347.3525,-79 341.3525,-79 341.3525,-79 311.3525,-79 311.3525,-79 305.3525,-79 299.3525,-73 299.3525,-67 299.3525,-67 299.3525,-55 299.3525,-55 299.3525,-49 305.3525,-43 311.3525,-43"/>
<text text-anchor="middle" x="326.3525" y="-57.7" font-family="Arial" font-size="16.00" fill="#000000">I</text>
</a>
</g>
</g>
<!-- S&#45;&gt;I -->
<g id="edge7" class="edge">
<title>S&#45;&gt;I</title>
<path fill="none" stroke="#000000" stroke-width="1.5" d="M54.481,-52.0123C70.5996,-48.2151 91.5276,-43.9134 110.4053,-42 169.0125,-36.0597 184.4087,-35.4167 242.9473,-42 256.6307,-43.5389 271.3431,-46.4554 284.5442,-49.5497"/>
<polygon fill="#000000" stroke="#000000" stroke-width="1.5" points="288.6457,-54.1759 299.1947,-53.1921 290.3346,-47.3827 288.6457,-54.1759"/>
<polyline fill="none" stroke="#000000" stroke-width="1.5" points="289.4902,-50.7793 284.6379,-49.573 "/>
<g id="a_edge7&#45;label"><a xlink:title="force_of_infection [parameter]:&#10;	infection function &#160;&#160;&#160;&#160;&#160;&#160;&#160;&#160;&#160;&#160;&#160;&#160;&#160;&#160;&#160;&#160;&#160;&#160;&#160;&#160;&#160;&#160;&#160;&#160;&#160;&#160;&#160;&#160;&#160;&#160;&#160;&#160;&#160;&#160;&#160;&#160;&#160;&#160;&#160;&#160;&#160;&#160;&#160;&#160;&#160;&#160;&#160;&#160;&#160;&#160;&#160;&#160;&#160;&#10;	transmission_I * total_I / total_herd">
<text text-anchor="middle" x="176.6763" y="-44.8" font-family="Times,serif" font-size="14.00" fill="#000000">rate: force_of_infection</text>
</a>
</g>
</g>
<!-- D -->
<g id="node4" class="node">
<title>D</title>
<g id="a_node4"><a xlink:title="D (Dead):&#10;	compartment to put dead animals">
<path fill="#ffffff" stroke="#000000" stroke-dasharray="1,5" d="M784.4658,-58C784.4658,-58 814.4658,-58 814.4658,-58 820.4658,-58 826.4658,-64 826.4658,-70 826.4658,-70 826.4658,-82 826.4658,-82 826.4658,-88 820.4658,-94 814.4658,-94 814.4658,-94 784.4658,-94 784.4658,-94 778.4658,-94 772.4658,-88 772.4658,-82 772.4658,-82 772.4658,-70 772.4658,-70 772.4658,-64 778.4658,-58 784.4658,-58"/>
<text text-anchor="middle" x="799.4658" y="-72.7" font-family="Arial" font-size="16.00" fill="#000000">D</text>
</a>
</g>
</g>
<!-- S&#45;&gt;D -->
<g id="edge6" class="edge">
<title>S&#45;&gt;D</title>
<path fill="none" stroke="#000000" stroke-width="1.5" d="M37.1636,-77.0225C48.0213,-94.3734 67.32,-118 91.9053,-118 91.9053,-118 91.9053,-118 734.9658,-118 748.2659,-118 760.9738,-111.6512 771.5397,-103.8905"/>
<polygon fill="#000000" stroke="#000000" stroke-width="1.5" points="777.8501,-103.1645 783.2611,-94.0555 773.3507,-97.802 777.8501,-103.1645"/>
<polyline fill="none" stroke="#000000" stroke-width="1.5" points="775.6004,-100.4832 771.7701,-103.6971 "/>
<g id="a_edge6&#45;label"><a xlink:title="death [parameter]:&#10;	the death rate (/day) &#160;&#160;&#160;&#160;&#160;&#160;&#160;&#160;&#160;&#160;&#160;&#160;&#160;&#160;&#160;&#160;&#160;&#160;&#160;&#160;&#160;&#160;&#160;&#160;&#160;&#160;&#160;&#160;&#160;&#160;&#160;&#160;&#160;&#160;&#160;&#160;&#160;&#160;&#160;&#160;&#160;&#160;&#160;&#160;&#160;&#160;&#160;&#160;&#160;&#160;&#10;	birth">
<text text-anchor="middle" x="448.4253" y="-120.8" font-family="Times,serif" font-size="14.00" fill="#000000">rate: death</text>
</a>
</g>
</g>
<!-- I&#45;&gt;S -->
<g id="edge3" class="edge">
<title>I&#45;&gt;S</title>
<path fill="none" stroke="#000000" stroke-width="1.5" stroke-dasharray="5,2" d="M299.1415,-60.818C246.903,-60.4685 132.2282,-59.7013 69.85,-59.284"/>
<polygon fill="#000000" stroke="#000000" stroke-width="1.5" points="64.4853,-55.7481 54.4621,-59.181 64.4384,-62.7479 64.4853,-55.7481"/>
<polyline fill="none" stroke="#000000" stroke-width="1.5" points="64.4619,-59.248 69.4618,-59.2815 "/>
<g id="a_edge3&#45;label"><a xlink:title="birth [parameter]:&#10;	the birth rate (/day) &#160;&#160;&#160;&#160;&#160;&#160;&#160;&#160;&#160;&#160;&#160;&#160;&#160;&#160;&#160;&#160;&#160;&#160;&#160;&#160;&#160;&#160;&#160;&#160;&#160;&#160;&#160;&#160;&#160;&#160;&#160;&#160;&#160;&#160;&#160;&#160;&#160;&#160;&#160;&#160;&#160;&#160;&#160;&#160;&#160;&#160;&#160;&#160;&#160;&#160;&#10;	0.01">
<text text-anchor="middle" x="176.6763" y="-63.8" font-family="Times,serif" font-size="14.00" fill="#000000">rate: birth</text>
</a>
</g>
</g>
<!-- R -->
<g id="node3" class="node">
<title>R</title>
<g id="a_node3"><a xlink:title="R (Resistant):&#10;	healthy again and resistant to infection">
<path fill="#00bfff" stroke="#000000" d="M557.436,-3C557.436,-3 587.436,-3 587.436,-3 593.436,-3 599.436,-9 599.436,-15 599.436,-15 599.436,-27 599.436,-27 599.436,-33 593.436,-39 587.436,-39 587.436,-39 557.436,-39 557.436,-39 551.436,-39 545.436,-33 545.436,-27 545.436,-27 545.436,-15 545.436,-15 545.436,-9 551.436,-3 557.436,-3"/>
<text text-anchor="middle" x="572.436" y="-17.7" font-family="Arial" font-size="16.00" fill="#000000">R</text>
</a>
</g>
</g>
<!-- I&#45;&gt;R -->
<g id="edge2" class="edge">
<title>I&#45;&gt;R</title>
<path fill="none" stroke="#000000" stroke-width="1.5" d="M353.628,-56.5665C396.5165,-49.5951 480.0312,-36.0201 530.5648,-27.806"/>
<polygon fill="#000000" stroke="#000000" stroke-width="1.5" points="536.1046,-30.4515 545.4134,-25.3924 534.9814,-23.5422 536.1046,-30.4515"/>
<polyline fill="none" stroke="#000000" stroke-width="1.5" points="535.543,-26.9969 530.6078,-27.7991 "/>
<g id="a_edge2&#45;label"><a xlink:title="recovery [parameter]:&#10;	recovery rate (/day) &#160;&#160;&#160;&#160;&#160;&#160;&#160;&#160;&#160;&#160;&#160;&#160;&#160;&#160;&#160;&#160;&#160;&#160;&#160;&#160;&#160;&#160;&#160;&#160;&#160;&#160;&#160;&#160;&#160;&#160;&#160;&#160;&#160;&#160;&#160;&#160;&#160;&#160;&#160;&#160;&#160;&#160;&#160;&#160;&#160;&#160;&#160;&#160;&#160;&#160;&#160;&#10;	0.1">
<text text-anchor="middle" x="448.4253" y="-50.8" font-family="Times,serif" font-size="14.00" fill="#000000">rate: recovery</text>
</a>
</g>
</g>
<!-- I&#45;&gt;D -->
<g id="edge1" class="edge">
<title>I&#45;&gt;D</title>
<path fill="none" stroke="#000000" stroke-width="1.5" d="M353.5081,-70.1577C365.0138,-73.2807 378.6517,-76 391.2578,-76 391.2578,-76 391.2578,-76 734.9658,-76 742.1176,-76 749.7155,-76 757.0917,-76"/>
<polygon fill="#000000" stroke="#000000" stroke-width="1.5" points="762.1616,-79.5001 772.1616,-76 762.1616,-72.5001 762.1616,-79.5001"/>
<polyline fill="none" stroke="#000000" stroke-width="1.5" points="762.1616,-76.0001 757.1616,-76.0001 "/>
<g id="a_edge1&#45;label"><a xlink:title="death [parameter]:&#10;	the death rate (/day) &#160;&#160;&#160;&#160;&#160;&#160;&#160;&#160;&#160;&#160;&#160;&#160;&#160;&#160;&#160;&#160;&#160;&#160;&#160;&#160;&#160;&#160;&#160;&#160;&#160;&#160;&#160;&#160;&#160;&#160;&#160;&#160;&#160;&#160;&#160;&#160;&#160;&#160;&#160;&#160;&#160;&#160;&#160;&#160;&#160;&#160;&#160;&#160;&#160;&#160;&#10;	birth">
<text text-anchor="middle" x="572.436" y="-78.8" font-family="Times,serif" font-size="14.00" fill="#000000">rate: death</text>
</a>
</g>
</g>
<!-- R&#45;&gt;S -->
<g id="edge5" class="edge">
<title>R&#45;&gt;S</title>
<path fill="none" stroke="#000000" stroke-width="1.5" stroke-dasharray="5,2" d="M545.3903,-8.4205C533.4548,-3.9481 519.0948,0 505.5928,0 91.9053,0 91.9053,0 91.9053,0 72.8901,0 57.0374,-14.1336 45.8066,-28.5657"/>
<polygon fill="#000000" stroke="#000000" stroke-width="1.5" points="40.006,-30.771 37.1636,-40.9775 45.7504,-34.7712 40.006,-30.771"/>
<polyline fill="none" stroke="#000000" stroke-width="1.5" points="42.8782,-32.7711 45.7355,-28.6679 "/>
<g id="a_edge5&#45;label"><a xlink:title="birth [parameter]:&#10;	the birth rate (/day) &#160;&#160;&#160;&#160;&#160;&#160;&#160;&#160;&#160;&#160;&#160;&#160;&#160;&#160;&#160;&#160;&#160;&#160;&#160;&#160;&#160;&#160;&#160;&#160;&#160;&#160;&#160;&#160;&#160;&#160;&#160;&#160;&#160;&#160;&#160;&#160;&#160;&#160;&#160;&#160;&#160;&#160;&#160;&#160;&#160;&#160;&#160;&#160;&#160;&#160;&#10;	0.01">
<text text-anchor="middle" x="326.3525" y="-2.8" font-family="Times,serif" font-size="14.00" fill="#000000">rate: birth</text>
</a>
</g>
</g>
<!-- R&#45;&gt;D -->
<g id="edge4" class="edge">
<title>R&#45;&gt;D</title>
<path fill="none" stroke="#000000" stroke-width="1.5" d="M599.496,-24.9129C628.6311,-29.3946 676.2188,-37.4942 716.4658,-48 730.0032,-51.5337 744.5301,-56.1438 757.5869,-60.6002"/>
<polygon fill="#000000" stroke="#000000" stroke-width="1.5" points="761.4969,-65.6805 772.0918,-65.6873 763.8137,-59.075 761.4969,-65.6805"/>
<polyline fill="none" stroke="#000000" stroke-width="1.5" points="762.6553,-62.3777 757.9371,-60.7229 "/>
<g id="a_edge4&#45;label"><a xlink:title="death [parameter]:&#10;	the death rate (/day) &#160;&#160;&#160;&#160;&#160;&#160;&#160;&#160;&#160;&#160;&#160;&#160;&#160;&#160;&#160;&#160;&#160;&#160;&#160;&#160;&#160;&#160;&#160;&#160;&#160;&#160;&#160;&#160;&#160;&#160;&#160;&#160;&#160;&#160;&#160;&#160;&#160;&#160;&#160;&#160;&#160;&#160;&#160;&#160;&#160;&#160;&#160;&#160;&#160;&#160;&#10;	birth">
<text text-anchor="middle" x="687.1226" y="-50.8" font-family="Times,serif" font-size="14.00" fill="#000000">rate: death</text>
</a>
</g>
</g>
</g>
</svg>
