<?xml version="1.0" encoding="UTF-8" standalone="no"?>
<!DOCTYPE svg PUBLIC "-//W3C//DTD SVG 1.1//EN"
 "http://www.w3.org/Graphics/SVG/1.1/DTD/svg11.dtd">
<!-- Generated by graphviz version 2.40.1 (20161225.0304)
 -->
<!-- Title: %3 Pages: 1 -->
<svg width="614pt" height="62pt"
 viewBox="0.00 0.00 614.02 62.24" xmlns="http://www.w3.org/2000/svg" xmlns:xlink="http://www.w3.org/1999/xlink">
<g id="graph0" class="graph" transform="scale(1 1) rotate(0) translate(4 58.2422)">
<title>%3</title>
<polygon fill="#ffffff" stroke="transparent" points="-4,4 -4,-58.2422 610.0215,-58.2422 610.0215,4 -4,4"/>
<!-- J -->
<g id="node1" class="node">
<title>J</title>
<g id="a_node1"><a xlink:title="J (Juvenile):&#10;	juvenile individuals">
<path fill="#ffa500" stroke="#000000" d="M12,-.5C12,-.5 42,-.5 42,-.5 48,-.5 54,-6.5 54,-12.5 54,-12.5 54,-41.7422 54,-41.7422 54,-47.7422 48,-53.7422 42,-53.7422 42,-53.7422 12,-53.7422 12,-53.7422 6,-53.7422 0,-47.7422 0,-41.7422 0,-41.7422 0,-12.5 0,-12.5 0,-6.5 6,-.5 12,-.5"/>
<text text-anchor="middle" x="26.7227" y="-36.9422" font-family="Arial" font-size="16.00" fill="#000000">J </text>
<polyline fill="none" stroke="#000000" points="0,-27.3438 53.4453,-27.3438 "/>
<text text-anchor="middle" x="26.7227" y="-10.5438" font-family="Arial" font-size="16.00" fill="#000000">◆</text>
</a>
</g>
</g>
<!-- A -->
<g id="node2" class="node">
<title>A</title>
<g id="a_node2"><a xlink:title="A (Adult):&#10;	adult individuals (producing new juveniles)">
<path fill="#a52a2a" stroke="#000000" d="M232.8105,-.5C232.8105,-.5 262.8105,-.5 262.8105,-.5 268.8105,-.5 274.8105,-6.5 274.8105,-12.5 274.8105,-12.5 274.8105,-41.7422 274.8105,-41.7422 274.8105,-47.7422 268.8105,-53.7422 262.8105,-53.7422 262.8105,-53.7422 232.8105,-53.7422 232.8105,-53.7422 226.8105,-53.7422 220.8105,-47.7422 220.8105,-41.7422 220.8105,-41.7422 220.8105,-12.5 220.8105,-12.5 220.8105,-6.5 226.8105,-.5 232.8105,-.5"/>
<text text-anchor="middle" x="247.4277" y="-36.9422" font-family="Arial" font-size="16.00" fill="#000000">A </text>
<polyline fill="none" stroke="#000000" points="220.8105,-27.3438 274.0449,-27.3438 "/>
<text text-anchor="middle" x="247.4277" y="-10.5438" font-family="Arial" font-size="16.00" fill="#000000">◆</text>
</a>
</g>
</g>
<!-- J&#45;&gt;A -->
<g id="edge3" class="edge">
<title>J&#45;&gt;A</title>
<g id="a_edge3"><a xlink:title="COND: age &gt;= adult_age">
<path fill="none" stroke="#000000" stroke-width="1.5" d="M64.2286,-28.9045C66.8582,-28.9909 69.4688,-29.0649 72,-29.1211 130.1237,-30.4121 144.6869,-30.4121 202.8105,-29.1211 203.7145,-29.101 204.6287,-29.0787 205.5502,-29.0543"/>
<polyline fill="none" stroke="#000000" stroke-width="1.5" points="54.121,-28.5215 59.1174,-28.7109 "/>
<polygon fill="#000000" stroke="#000000" stroke-width="1.5" points="59.9273,-33.7452 60.3061,-23.7524 62.3046,-23.8281 61.9259,-33.8209 59.9273,-33.7452"/>
<polyline fill="none" stroke="#000000" stroke-width="1.5" points="59.1174,-28.7109 64.1138,-28.9003 "/>
<polygon fill="#000000" stroke="#000000" stroke-width="1.5" points="210.8189,-32.3711 220.6895,-28.5215 210.5726,-25.3754 210.8189,-32.3711"/>
<polyline fill="none" stroke="#000000" stroke-width="1.5" points="210.6957,-28.8733 205.6988,-29.0492 "/>
</a>
</g>
<g id="a_edge3&#45;label"><a xlink:title="proba: 1">
<text text-anchor="middle" x="137.4053" y="-31.9211" font-family="Times" font-size="14.00" fill="#000000">proba: 1</text>
</a>
</g>
</g>
<!-- A&#45;&gt;J -->
<g id="edge2" class="edge">
<title>A&#45;&gt;J</title>
<path fill="none" stroke="#000000" stroke-width="1.5" stroke-dasharray="5,2" d="M220.7348,-20.1334C204.6163,-16.3362 183.6883,-12.0345 164.8105,-10.1211 140.5745,-7.6646 134.2361,-7.6646 110,-10.1211 96.5791,-11.4814 82.122,-14.0488 69.0934,-16.7839"/>
<polygon fill="#000000" stroke="#000000" stroke-width="1.5" points="63.074,-14.5404 54.0758,-20.1334 64.5979,-21.3726 63.074,-14.5404"/>
<polyline fill="none" stroke="#000000" stroke-width="1.5" points="63.8359,-17.9565 68.716,-16.868 "/>
<g id="a_edge2&#45;label"><a xlink:title="birth [parameter]:&#10;	the birth rate (/day) &#160;&#160;&#160;&#160;&#160;&#160;&#160;&#160;&#160;&#160;&#160;&#160;&#160;&#160;&#160;&#160;&#160;&#160;&#160;&#160;&#160;&#160;&#160;&#160;&#160;&#160;&#160;&#160;&#160;&#160;&#160;&#160;&#160;&#160;&#160;&#160;&#160;&#160;&#160;&#160;&#160;&#160;&#160;&#160;&#160;&#160;&#160;&#160;&#160;&#160;&#10;	0.01">
<text text-anchor="middle" x="137.4053" y="-12.9211" font-family="Times" font-size="14.00" fill="#000000">rate: birth</text>
</a>
</g>
</g>
<!-- D -->
<g id="node3" class="node">
<title>D</title>
<g id="a_node3"><a xlink:title="D (Dead):&#10;	compartment to put dead individuals">
<path fill="#ffffff" stroke="#000000" stroke-dasharray="1,5" d="M564.0215,-9.1211C564.0215,-9.1211 594.0215,-9.1211 594.0215,-9.1211 600.0215,-9.1211 606.0215,-15.1211 606.0215,-21.1211 606.0215,-21.1211 606.0215,-33.1211 606.0215,-33.1211 606.0215,-39.1211 600.0215,-45.1211 594.0215,-45.1211 594.0215,-45.1211 564.0215,-45.1211 564.0215,-45.1211 558.0215,-45.1211 552.0215,-39.1211 552.0215,-33.1211 552.0215,-33.1211 552.0215,-21.1211 552.0215,-21.1211 552.0215,-15.1211 558.0215,-9.1211 564.0215,-9.1211"/>
<text text-anchor="middle" x="579.0215" y="-23.8211" font-family="Arial" font-size="16.00" fill="#000000">D</text>
</a>
</g>
</g>
<!-- A&#45;&gt;D -->
<g id="edge1" class="edge">
<title>A&#45;&gt;D</title>
<path fill="none" stroke="#000000" stroke-width="1.5" d="M274.9149,-27.1211C332.5565,-27.1211 467.67,-27.1211 536.7421,-27.1211"/>
<polygon fill="#000000" stroke="#000000" stroke-width="1.5" points="542.0071,-30.6212 552.0071,-27.1211 542.0071,-23.6212 542.0071,-30.6212"/>
<polyline fill="none" stroke="#000000" stroke-width="1.5" points="542.0071,-27.1212 537.0071,-27.1212 "/>
<g id="a_edge1&#45;label"><a xlink:title="rate: 1 / avg_adult_death_age">
<text text-anchor="middle" x="413.416" y="-29.9211" font-family="Times" font-size="14.00" fill="#000000">rate: 1 / avg_adult_death_age</text>
</a>
</g>
</g>
</g>
</svg>
