<?xml version="1.0" encoding="UTF-8" standalone="no"?>
<!DOCTYPE svg PUBLIC "-//W3C//DTD SVG 1.1//EN"
 "http://www.w3.org/Graphics/SVG/1.1/DTD/svg11.dtd">
<!-- Generated by graphviz version 2.40.1 (20161225.0304)
 -->
<!-- Title: %3 Pages: 1 -->
<svg width="487pt" height="45pt"
 viewBox="0.00 0.00 486.53 45.00" xmlns="http://www.w3.org/2000/svg" xmlns:xlink="http://www.w3.org/1999/xlink">
<g id="graph0" class="graph" transform="scale(1 1) rotate(0) translate(4 41)">
<title>%3</title>
<polygon fill="#ffffff" stroke="transparent" points="-4,4 -4,-41 482.5313,-41 482.5313,4 -4,4"/>
<!-- N -->
<g id="node1" class="node">
<title>N</title>
<g id="a_node1"><a xlink:title="N (Newborn):&#10;	very young animals">
<path fill="#00bfff" stroke="#000000" stroke-width="2" d="M12,-.5C12,-.5 42,-.5 42,-.5 48,-.5 54,-6.5 54,-12.5 54,-12.5 54,-24.5 54,-24.5 54,-30.5 48,-36.5 42,-36.5 42,-36.5 12,-36.5 12,-36.5 6,-36.5 0,-30.5 0,-24.5 0,-24.5 0,-12.5 0,-12.5 0,-6.5 6,-.5 12,-.5"/>
<text text-anchor="middle" x="27" y="-15.7" font-family="Arial" font-size="16.00" fill="#000000">N ◷</text>
</a>
</g>
</g>
<!-- J -->
<g id="node2" class="node">
<title>J</title>
<g id="a_node2"><a xlink:title="J (Juvenile):&#10;	juvenile animals">
<path fill="#ffa500" stroke="#000000" d="M224.2656,-.5C224.2656,-.5 254.2656,-.5 254.2656,-.5 260.2656,-.5 266.2656,-6.5 266.2656,-12.5 266.2656,-12.5 266.2656,-24.5 266.2656,-24.5 266.2656,-30.5 260.2656,-36.5 254.2656,-36.5 254.2656,-36.5 224.2656,-36.5 224.2656,-36.5 218.2656,-36.5 212.2656,-30.5 212.2656,-24.5 212.2656,-24.5 212.2656,-12.5 212.2656,-12.5 212.2656,-6.5 218.2656,-.5 224.2656,-.5"/>
<text text-anchor="middle" x="239.2656" y="-15.7" font-family="Arial" font-size="16.00" fill="#000000">J ◷</text>
</a>
</g>
</g>
<!-- N&#45;&gt;J -->
<g id="edge2" class="edge">
<title>N&#45;&gt;J</title>
<path fill="none" stroke="#000000" stroke-width="1.5" d="M54.3155,-18.5C90.4561,-18.5 154.5309,-18.5 196.9578,-18.5"/>
<polygon fill="#000000" stroke="#000000" stroke-width="1.5" points="202.055,-22.0001 212.055,-18.5 202.055,-15.0001 202.055,-22.0001"/>
<polyline fill="none" stroke="#000000" stroke-width="1.5" points="202.055,-18.5001 197.055,-18.5001 "/>
<g id="a_edge2&#45;label"><a xlink:title="proba: 1">
<text text-anchor="middle" x="133.1328" y="-21.3" font-family="Times,serif" font-size="14.00" fill="#000000">proba: 1</text>
</a>
</g>
</g>
<!-- A -->
<g id="node3" class="node">
<title>A</title>
<g id="a_node3"><a xlink:title="A (Adult):&#10;	adult animals (producing new juveniles)">
<path fill="#a52a2a" stroke="#000000" d="M436.5313,-.5C436.5313,-.5 466.5313,-.5 466.5313,-.5 472.5313,-.5 478.5313,-6.5 478.5313,-12.5 478.5313,-12.5 478.5313,-24.5 478.5313,-24.5 478.5313,-30.5 472.5313,-36.5 466.5313,-36.5 466.5313,-36.5 436.5313,-36.5 436.5313,-36.5 430.5313,-36.5 424.5313,-30.5 424.5313,-24.5 424.5313,-24.5 424.5313,-12.5 424.5313,-12.5 424.5313,-6.5 430.5313,-.5 436.5313,-.5"/>
<text text-anchor="middle" x="451.5313" y="-15.2" font-family="Arial" font-size="16.00" fill="#000000">A</text>
</a>
</g>
</g>
<!-- J&#45;&gt;A -->
<g id="edge1" class="edge">
<title>J&#45;&gt;A</title>
<path fill="none" stroke="#000000" stroke-width="1.5" d="M266.5811,-18.5C302.7217,-18.5 366.7965,-18.5 409.2234,-18.5"/>
<polygon fill="#000000" stroke="#000000" stroke-width="1.5" points="414.3206,-22.0001 424.3206,-18.5 414.3206,-15.0001 414.3206,-22.0001"/>
<polyline fill="none" stroke="#000000" stroke-width="1.5" points="414.3206,-18.5001 409.3206,-18.5001 "/>
<g id="a_edge1&#45;label"><a xlink:title="proba: 1">
<text text-anchor="middle" x="345.3984" y="-21.3" font-family="Times,serif" font-size="14.00" fill="#000000">proba: 1</text>
</a>
</g>
</g>
</g>
</svg>
