<?xml version="1.0" encoding="UTF-8" standalone="no"?>
<!DOCTYPE svg PUBLIC "-//W3C//DTD SVG 1.1//EN"
 "http://www.w3.org/Graphics/SVG/1.1/DTD/svg11.dtd">
<!-- Generated by graphviz version 2.40.1 (20161225.0304)
 -->
<!-- Title: %3 Pages: 1 -->
<svg width="1703pt" height="45pt"
 viewBox="0.00 0.00 1702.63 45.00" xmlns="http://www.w3.org/2000/svg" xmlns:xlink="http://www.w3.org/1999/xlink">
<g id="graph0" class="graph" transform="scale(1 1) rotate(0) translate(4 41)">
<title>%3</title>
<polygon fill="#ffffff" stroke="transparent" points="-4,4 -4,-41 1698.627,-41 1698.627,4 -4,4"/>
<!-- S -->
<g id="node1" class="node">
<title>S</title>
<g id="a_node1"><a xlink:title="S (Susceptible):&#10;	suceptible of becoming infected">
<path fill="#00bfff" stroke="#000000" stroke-width="2" d="M12,-.5C12,-.5 42,-.5 42,-.5 48,-.5 54,-6.5 54,-12.5 54,-12.5 54,-24.5 54,-24.5 54,-30.5 48,-36.5 42,-36.5 42,-36.5 12,-36.5 12,-36.5 6,-36.5 0,-30.5 0,-24.5 0,-24.5 0,-12.5 0,-12.5 0,-6.5 6,-.5 12,-.5"/>
<text text-anchor="middle" x="27" y="-15.2" font-family="Arial" font-size="16.00" fill="#000000">S</text>
</a>
</g>
</g>
<!-- E -->
<g id="node2" class="node">
<title>E</title>
<g id="a_node2"><a xlink:title="E (Exposed):&#10;	infected but not yet able to transit the disease">
<path fill="#ffa500" stroke="#000000" d="M1033.8115,-.5C1033.8115,-.5 1063.8115,-.5 1063.8115,-.5 1069.8115,-.5 1075.8115,-6.5 1075.8115,-12.5 1075.8115,-12.5 1075.8115,-24.5 1075.8115,-24.5 1075.8115,-30.5 1069.8115,-36.5 1063.8115,-36.5 1063.8115,-36.5 1033.8115,-36.5 1033.8115,-36.5 1027.8115,-36.5 1021.8115,-30.5 1021.8115,-24.5 1021.8115,-24.5 1021.8115,-12.5 1021.8115,-12.5 1021.8115,-6.5 1027.8115,-.5 1033.8115,-.5"/>
<text text-anchor="middle" x="1048.8115" y="-15.7" font-family="Arial" font-size="16.00" fill="#000000">E ◷</text>
</a>
</g>
</g>
<!-- S&#45;&gt;E -->
<g id="edge3" class="edge">
<title>S&#45;&gt;E</title>
<path fill="none" stroke="#000000" stroke-width="1.5" d="M54.0678,-18.5C193.872,-18.5 834.2912,-18.5 1006.2237,-18.5"/>
<polygon fill="#000000" stroke="#000000" stroke-width="1.5" points="1011.3674,-22.0001 1021.3673,-18.5 1011.3673,-15.0001 1011.3674,-22.0001"/>
<polyline fill="none" stroke="#000000" stroke-width="1.5" points="1011.3673,-18.5001 1006.3673,-18.5001 "/>
<g id="a_edge3&#45;label"><a xlink:title="rate: is_H * (is_J * force_infection_juveniles + is_A * force_infection_adults + force_of_infection_due_to_vectors) + is_V * force_of_infection_vectors">
<text text-anchor="middle" x="537.9058" y="-21.3" font-family="Times" font-size="14.00" fill="#000000">rate: is_H * (is_J * force_infection_juveniles + is_A * force_infection_adults + force_of_infection_due_to_vectors) + is_V * force_of_infection_vectors</text>
</a>
</g>
</g>
<!-- I -->
<g id="node3" class="node">
<title>I</title>
<g id="a_node3"><a xlink:title="I (Infectious):&#10;	infected and able to transmit the disease">
<path fill="#ff0000" stroke="#000000" d="M1246.0771,-.5C1246.0771,-.5 1276.0771,-.5 1276.0771,-.5 1282.0771,-.5 1288.0771,-6.5 1288.0771,-12.5 1288.0771,-12.5 1288.0771,-24.5 1288.0771,-24.5 1288.0771,-30.5 1282.0771,-36.5 1276.0771,-36.5 1276.0771,-36.5 1246.0771,-36.5 1246.0771,-36.5 1240.0771,-36.5 1234.0771,-30.5 1234.0771,-24.5 1234.0771,-24.5 1234.0771,-12.5 1234.0771,-12.5 1234.0771,-6.5 1240.0771,-.5 1246.0771,-.5"/>
<text text-anchor="middle" x="1261.0771" y="-15.2" font-family="Arial" font-size="16.00" fill="#000000">I</text>
</a>
</g>
</g>
<!-- E&#45;&gt;I -->
<g id="edge1" class="edge">
<title>E&#45;&gt;I</title>
<path fill="none" stroke="#000000" stroke-width="1.5" d="M1076.127,-18.5C1112.2676,-18.5 1176.3424,-18.5 1218.7693,-18.5"/>
<polygon fill="#000000" stroke="#000000" stroke-width="1.5" points="1223.8665,-22.0001 1233.8665,-18.5 1223.8665,-15.0001 1223.8665,-22.0001"/>
<polyline fill="none" stroke="#000000" stroke-width="1.5" points="1223.8665,-18.5001 1218.8665,-18.5001 "/>
<g id="a_edge1&#45;label"><a xlink:title="proba: 1">
<text text-anchor="middle" x="1154.9443" y="-21.3" font-family="Times" font-size="14.00" fill="#000000">proba: 1</text>
</a>
</g>
</g>
<!-- R -->
<g id="node4" class="node">
<title>R</title>
<g id="a_node4"><a xlink:title="R (Resistant):&#10;	recovered and resistant to new infections">
<path fill="#32cd32" stroke="#000000" d="M1652.627,-.5C1652.627,-.5 1682.627,-.5 1682.627,-.5 1688.627,-.5 1694.627,-6.5 1694.627,-12.5 1694.627,-12.5 1694.627,-24.5 1694.627,-24.5 1694.627,-30.5 1688.627,-36.5 1682.627,-36.5 1682.627,-36.5 1652.627,-36.5 1652.627,-36.5 1646.627,-36.5 1640.627,-30.5 1640.627,-24.5 1640.627,-24.5 1640.627,-12.5 1640.627,-12.5 1640.627,-6.5 1646.627,-.5 1652.627,-.5"/>
<text text-anchor="middle" x="1667.627" y="-15.2" font-family="Arial" font-size="16.00" fill="#000000">R</text>
</a>
</g>
</g>
<!-- I&#45;&gt;R -->
<g id="edge2" class="edge">
<title>I&#45;&gt;R</title>
<path fill="none" stroke="#000000" stroke-width="1.5" d="M1288.3833,-18.5C1357.889,-18.5 1541.8985,-18.5 1625.3784,-18.5"/>
<polygon fill="#000000" stroke="#000000" stroke-width="1.5" points="1630.4397,-22.0001 1640.4396,-18.5 1630.4396,-15.0001 1630.4397,-22.0001"/>
<polyline fill="none" stroke="#000000" stroke-width="1.5" points="1630.4396,-18.5001 1625.4396,-18.5001 "/>
<g id="a_edge2&#45;label"><a xlink:title="rate: is_H * gamma_H + is_V * gamma_V">
<text text-anchor="middle" x="1464.3521" y="-21.3" font-family="Times" font-size="14.00" fill="#000000">rate: is_H * gamma_H + is_V * gamma_V</text>
</a>
</g>
</g>
</g>
</svg>
