<?xml version="1.0" encoding="UTF-8" standalone="no"?>
<!DOCTYPE svg PUBLIC "-//W3C//DTD SVG 1.1//EN"
 "http://www.w3.org/Graphics/SVG/1.1/DTD/svg11.dtd">
<!-- Generated by graphviz version 2.40.1 (20161225.0304)
 -->
<!-- Title: %3 Pages: 1 -->
<svg width="619pt" height="78pt"
 viewBox="0.00 0.00 619.46 77.50" xmlns="http://www.w3.org/2000/svg" xmlns:xlink="http://www.w3.org/1999/xlink">
<g id="graph0" class="graph" transform="scale(1 1) rotate(0) translate(4 73.5)">
<title>%3</title>
<polygon fill="#ffffff" stroke="transparent" points="-4,4 -4,-73.5 615.46,-73.5 615.46,4 -4,4"/>
<!-- S -->
<g id="node1" class="node">
<title>S</title>
<g id="a_node1"><a xlink:title="S (Susceptible):&#10;	suceptible of becoming infected">
<path fill="#f5deb3" stroke="#000000" d="M12,-1C12,-1 42,-1 42,-1 48,-1 54,-7 54,-13 54,-13 54,-25 54,-25 54,-31 48,-37 42,-37 42,-37 12,-37 12,-37 6,-37 0,-31 0,-25 0,-25 0,-13 0,-13 0,-7 6,-1 12,-1"/>
<text text-anchor="middle" x="27" y="-15.7" font-family="Arial" font-size="16.00" fill="#000000">S</text>
</a>
</g>
</g>
<!-- I -->
<g id="node2" class="node">
<title>I</title>
<g id="a_node2"><a xlink:title="I (Infectious):&#10;	infected and able to transmit the disease">
<path fill="#b03060" stroke="#000000" d="M318.3335,-33C318.3335,-33 348.3335,-33 348.3335,-33 354.3335,-33 360.3335,-39 360.3335,-45 360.3335,-45 360.3335,-57 360.3335,-57 360.3335,-63 354.3335,-69 348.3335,-69 348.3335,-69 318.3335,-69 318.3335,-69 312.3335,-69 306.3335,-63 306.3335,-57 306.3335,-57 306.3335,-45 306.3335,-45 306.3335,-39 312.3335,-33 318.3335,-33"/>
<text text-anchor="middle" x="333.3335" y="-47.7" font-family="Arial" font-size="16.00" fill="#000000">I</text>
</a>
</g>
</g>
<!-- S&#45;&gt;I -->
<g id="edge3" class="edge">
<title>S&#45;&gt;I</title>
<path fill="none" stroke="#000000" stroke-width="1.5" d="M54.1851,-21.8398C107.7755,-27.4379 227.3848,-39.9325 291.2481,-46.6037"/>
<polygon fill="#000000" stroke="#000000" stroke-width="1.5" points="295.8998,-50.6086 306.2094,-48.1666 296.6271,-43.6465 295.8998,-50.6086"/>
<polyline fill="none" stroke="#000000" stroke-width="1.5" points="296.2635,-47.1276 291.2905,-46.608 "/>
<g id="a_edge3&#45;label"><a xlink:title="force_of_infection [parameter]:&#10;	infection function &#160;&#160;&#160;&#160;&#160;&#160;&#160;&#160;&#160;&#160;&#160;&#160;&#160;&#160;&#160;&#160;&#160;&#160;&#160;&#160;&#160;&#160;&#160;&#160;&#160;&#160;&#160;&#160;&#160;&#160;&#160;&#160;&#160;&#160;&#160;&#160;&#160;&#160;&#160;&#160;&#160;&#160;&#160;&#160;&#160;&#160;&#160;&#160;&#160;&#160;&#160;&#160;&#160;&#10;	 (external_risk + transmission_I * total_I) / total_herd">
<text text-anchor="middle" x="176.271" y="-43.8" font-family="Times,serif" font-size="14.00" fill="#000000">rate: force_of_infection</text>
</a>
</g>
</g>
<!-- R -->
<g id="node3" class="node">
<title>R</title>
<g id="a_node3"><a xlink:title="R (Resistant):&#10;	healthy again and resistant to infection">
<path fill="#00bfff" stroke="#000000" d="M569.46,-1C569.46,-1 599.46,-1 599.46,-1 605.46,-1 611.46,-7 611.46,-13 611.46,-13 611.46,-25 611.46,-25 611.46,-31 605.46,-37 599.46,-37 599.46,-37 569.46,-37 569.46,-37 563.46,-37 557.46,-31 557.46,-25 557.46,-25 557.46,-13 557.46,-13 557.46,-7 563.46,-1 569.46,-1"/>
<text text-anchor="middle" x="584.46" y="-15.7" font-family="Arial" font-size="16.00" fill="#000000">R</text>
</a>
</g>
</g>
<!-- I&#45;&gt;R -->
<g id="edge1" class="edge">
<title>I&#45;&gt;R</title>
<path fill="none" stroke="#000000" stroke-width="1.5" d="M360.6865,-47.5145C404.3698,-41.9481 490.2157,-31.0092 541.9514,-24.4167"/>
<polygon fill="#000000" stroke="#000000" stroke-width="1.5" points="547.6633,-27.2172 557.1407,-22.4812 546.7785,-20.2733 547.6633,-27.2172"/>
<polyline fill="none" stroke="#000000" stroke-width="1.5" points="547.2209,-23.7453 542.261,-24.3773 "/>
<g id="a_edge1&#45;label"><a xlink:title="recovery [parameter]:&#10;	recovery rate (/day) &#160;&#160;&#160;&#160;&#160;&#160;&#160;&#160;&#160;&#160;&#160;&#160;&#160;&#160;&#160;&#160;&#160;&#160;&#160;&#160;&#160;&#160;&#160;&#160;&#160;&#160;&#160;&#160;&#160;&#160;&#160;&#160;&#160;&#160;&#160;&#160;&#160;&#160;&#160;&#160;&#160;&#160;&#160;&#160;&#160;&#160;&#160;&#160;&#160;&#160;&#160;&#10;	0.1">
<text text-anchor="middle" x="462.7925" y="-41.8" font-family="Times,serif" font-size="14.00" fill="#000000">rate: recovery</text>
</a>
</g>
</g>
<!-- R&#45;&gt;S -->
<g id="edge2" class="edge">
<title>R&#45;&gt;S</title>
<path fill="none" stroke="#000000" stroke-width="1.5" d="M557.3543,-7.2916C546.017,-3.3816 532.5675,0 519.96,0 91.5,0 91.5,0 91.5,0 84.0143,0 76.2317,-1.1921 68.7707,-2.9792"/>
<polygon fill="#000000" stroke="#000000" stroke-width="1.5" points="62.7121,-1.1125 54.1057,-7.2916 64.6869,-7.8282 62.7121,-1.1125"/>
<polyline fill="none" stroke="#000000" stroke-width="1.5" points="63.6995,-4.4704 68.4964,-3.0598 "/>
<g id="a_edge2&#45;label"><a xlink:title="waning [parameter]:&#10;	rate at which individuals lose immunity (/day) &#160;&#160;&#160;&#160;&#160;&#160;&#160;&#160;&#160;&#160;&#160;&#160;&#160;&#160;&#160;&#160;&#160;&#160;&#160;&#160;&#160;&#160;&#160;&#160;&#160;&#10;	0.01">
<text text-anchor="middle" x="333.3335" y="-2.8" font-family="Times,serif" font-size="14.00" fill="#000000">rate: waning</text>
</a>
</g>
</g>
</g>
</svg>
