<?xml version="1.0" encoding="UTF-8" standalone="no"?>
<!DOCTYPE svg PUBLIC "-//W3C//DTD SVG 1.1//EN"
 "http://www.w3.org/Graphics/SVG/1.1/DTD/svg11.dtd">
<!-- Generated by graphviz version 2.40.1 (20161225.0304)
 -->
<!-- Title: %3 Pages: 1 -->
<svg width="702pt" height="183pt"
 viewBox="0.00 0.00 702.00 182.50" xmlns="http://www.w3.org/2000/svg" xmlns:xlink="http://www.w3.org/1999/xlink">
<g id="graph0" class="graph" transform="scale(1 1) rotate(0) translate(4 178.5)">
<title>%3</title>
<polygon fill="#ffffff" stroke="transparent" points="-4,4 -4,-178.5 697.9971,-178.5 697.9971,4 -4,4"/>
<!-- J -->
<g id="node1" class="node">
<title>J</title>
<g id="a_node1"><a xlink:title="J (Juvenile):&#10;	juvenile individuals">
<path fill="#ffa500" stroke="#000000" d="M12,-104.5C12,-104.5 42,-104.5 42,-104.5 48,-104.5 54,-110.5 54,-116.5 54,-116.5 54,-128.5 54,-128.5 54,-134.5 48,-140.5 42,-140.5 42,-140.5 12,-140.5 12,-140.5 6,-140.5 0,-134.5 0,-128.5 0,-128.5 0,-116.5 0,-116.5 0,-110.5 6,-104.5 12,-104.5"/>
<text text-anchor="middle" x="27" y="-119.2" font-family="Arial" font-size="16.00" fill="#000000">J</text>
</a>
</g>
</g>
<!-- A -->
<g id="node2" class="node">
<title>A</title>
<g id="a_node2"><a xlink:title="A (Adult):&#10;	adult individuals (producing new juveniles)">
<path fill="#a52a2a" stroke="#000000" d="M279.8848,-87.5C279.8848,-87.5 309.8848,-87.5 309.8848,-87.5 315.8848,-87.5 321.8848,-93.5 321.8848,-99.5 321.8848,-99.5 321.8848,-111.5 321.8848,-111.5 321.8848,-117.5 315.8848,-123.5 309.8848,-123.5 309.8848,-123.5 279.8848,-123.5 279.8848,-123.5 273.8848,-123.5 267.8848,-117.5 267.8848,-111.5 267.8848,-111.5 267.8848,-99.5 267.8848,-99.5 267.8848,-93.5 273.8848,-87.5 279.8848,-87.5"/>
<text text-anchor="middle" x="294.8848" y="-102.2" font-family="Arial" font-size="16.00" fill="#000000">A</text>
</a>
</g>
</g>
<!-- J&#45;&gt;A -->
<g id="edge3" class="edge">
<title>J&#45;&gt;A</title>
<path fill="none" stroke="#000000" stroke-width="1.5" d="M54.1604,-120.7764C100.8916,-117.8108 196.8324,-111.7224 252.4476,-108.1931"/>
<polygon fill="#000000" stroke="#000000" stroke-width="1.5" points="257.8942,-111.3545 267.6524,-107.2282 257.4508,-104.3686 257.8942,-111.3545"/>
<polyline fill="none" stroke="#000000" stroke-width="1.5" points="257.6725,-107.8616 252.6826,-108.1782 "/>
<g id="a_edge3&#45;label"><a xlink:title="m [parameter]:&#10;	maturation rate, at which juveniles become adults (/day) &#160;&#160;&#160;&#160;&#160;&#160;&#160;&#160;&#160;&#160;&#160;&#160;&#160;&#160;&#160;&#10;	1/50">
<text text-anchor="middle" x="136.2397" y="-119.3" font-family="Times" font-size="14.00" fill="#000000">rate: m</text>
</a>
</g>
</g>
<!-- D -->
<g id="node4" class="node">
<title>D</title>
<g id="a_node4"><a xlink:title="D (Dead):&#10;	compartment to put dead individuals">
<path fill="#ffffff" stroke="#000000" stroke-dasharray="1,5" d="M651.9971,-87.5C651.9971,-87.5 681.9971,-87.5 681.9971,-87.5 687.9971,-87.5 693.9971,-93.5 693.9971,-99.5 693.9971,-99.5 693.9971,-111.5 693.9971,-111.5 693.9971,-117.5 687.9971,-123.5 681.9971,-123.5 681.9971,-123.5 651.9971,-123.5 651.9971,-123.5 645.9971,-123.5 639.9971,-117.5 639.9971,-111.5 639.9971,-111.5 639.9971,-99.5 639.9971,-99.5 639.9971,-93.5 645.9971,-87.5 651.9971,-87.5"/>
<text text-anchor="middle" x="666.9971" y="-102.2" font-family="Arial" font-size="16.00" fill="#000000">D</text>
</a>
</g>
</g>
<!-- J&#45;&gt;D -->
<g id="edge4" class="edge">
<title>J&#45;&gt;D</title>
<path fill="none" stroke="#000000" stroke-width="1.5" d="M45.6636,-140.6097C57.7318,-150.397 74.3442,-160.5 91.5,-160.5 91.5,-160.5 91.5,-160.5 602.4971,-160.5 620.1175,-160.5 635.3651,-148.4685 646.6048,-135.66"/>
<polygon fill="#000000" stroke="#000000" stroke-width="1.5" points="652.7003,-133.5437 656.0997,-123.5091 647.1846,-129.2337 652.7003,-133.5437"/>
<polyline fill="none" stroke="#000000" stroke-width="1.5" points="649.9424,-131.3887 646.8638,-135.3285 "/>
<g id="a_edge4&#45;label"><a xlink:title="rate: mu_J * total_H / K_H">
<text text-anchor="middle" x="294.8848" y="-163.3" font-family="Times" font-size="14.00" fill="#000000">rate: mu_J * total_H / K_H</text>
</a>
</g>
</g>
<!-- A&#45;&gt;J -->
<g id="edge2" class="edge">
<title>A&#45;&gt;J</title>
<path fill="none" stroke="#000000" stroke-width="1.5" stroke-dasharray="5,2" d="M267.6752,-97.5512C231.3845,-88.1178 165.2894,-75.0259 110,-86.5 95.8092,-89.445 81.065,-94.9441 68.0101,-100.7734"/>
<polygon fill="#000000" stroke="#000000" stroke-width="1.5" points="61.6391,-99.9247 54.108,-107.3767 64.6425,-106.2477 61.6391,-99.9247"/>
<polyline fill="none" stroke="#000000" stroke-width="1.5" points="63.1408,-103.0862 67.6572,-100.941 "/>
<g id="a_edge2&#45;label"><a xlink:title="b_H [parameter]:&#10;	the birth rate of hosts (/day) &#160;&#160;&#160;&#160;&#160;&#160;&#160;&#160;&#160;&#160;&#160;&#160;&#160;&#160;&#160;&#160;&#160;&#160;&#160;&#160;&#160;&#160;&#160;&#160;&#160;&#160;&#160;&#160;&#160;&#160;&#160;&#160;&#160;&#160;&#160;&#160;&#160;&#160;&#160;&#160;&#160;&#10;	0.005">
<text text-anchor="middle" x="136.2397" y="-89.3" font-family="Times" font-size="14.00" fill="#000000">rate: b_H</text>
</a>
</g>
</g>
<!-- A&#45;&gt;D -->
<g id="edge1" class="edge">
<title>A&#45;&gt;D</title>
<path fill="none" stroke="#000000" stroke-width="1.5" d="M321.9459,-105.5C386.0409,-105.5 547.5076,-105.5 624.6666,-105.5"/>
<polygon fill="#000000" stroke="#000000" stroke-width="1.5" points="629.7864,-109.0001 639.7864,-105.5 629.7864,-102.0001 629.7864,-109.0001"/>
<polyline fill="none" stroke="#000000" stroke-width="1.5" points="629.7864,-105.5001 624.7864,-105.5001 "/>
<g id="a_edge1&#45;label"><a xlink:title="rate: mu_A * total_H / K_H">
<text text-anchor="middle" x="505.6436" y="-108.3" font-family="Times" font-size="14.00" fill="#000000">rate: mu_A * total_H / K_H</text>
</a>
</g>
</g>
<!-- U -->
<g id="node3" class="node">
<title>U</title>
<g id="a_node3"><a xlink:title="U (Undefined):&#10;	no age group is defined for vectors">
<path fill="#d3d3d3" stroke="#000000" d="M279.8848,-.5C279.8848,-.5 309.8848,-.5 309.8848,-.5 315.8848,-.5 321.8848,-6.5 321.8848,-12.5 321.8848,-12.5 321.8848,-24.5 321.8848,-24.5 321.8848,-30.5 315.8848,-36.5 309.8848,-36.5 309.8848,-36.5 279.8848,-36.5 279.8848,-36.5 273.8848,-36.5 267.8848,-30.5 267.8848,-24.5 267.8848,-24.5 267.8848,-12.5 267.8848,-12.5 267.8848,-6.5 273.8848,-.5 279.8848,-.5"/>
<text text-anchor="middle" x="294.8848" y="-15.2" font-family="Arial" font-size="16.00" fill="#000000">U</text>
</a>
</g>
</g>
<!-- U&#45;&gt;U -->
<g id="edge6" class="edge">
<title>U&#45;&gt;U</title>
<path fill="none" stroke="#000000" stroke-width="1.5" stroke-dasharray="5,2" d="M277.987,-36.5287C275.1154,-46.1943 280.748,-55 294.8848,-55 300.6278,-55 304.9673,-53.5467 307.9034,-51.1729"/>
<polygon fill="#000000" stroke="#000000" stroke-width="1.5" points="312.6052,-47.0915 311.7826,-36.5287 305.8385,-45.2991 312.6052,-47.0915"/>
<polyline fill="none" stroke="#000000" stroke-width="1.5" points="309.2219,-46.1953 307.9415,-51.0286 "/>
<g id="a_edge6&#45;label"><a xlink:title="b_V [parameter]:&#10;	the birth rate of vectors (/day) &#160;&#160;&#160;&#160;&#160;&#160;&#160;&#160;&#160;&#160;&#160;&#160;&#160;&#160;&#160;&#160;&#160;&#160;&#160;&#160;&#160;&#160;&#160;&#160;&#160;&#160;&#160;&#160;&#160;&#160;&#160;&#160;&#160;&#160;&#160;&#160;&#160;&#160;&#160;&#10;	0.05">
<text text-anchor="middle" x="294.8848" y="-57.8" font-family="Times" font-size="14.00" fill="#000000">rate: b_V</text>
</a>
</g>
</g>
<!-- U&#45;&gt;D -->
<g id="edge5" class="edge">
<title>U&#45;&gt;D</title>
<path fill="none" stroke="#000000" stroke-width="1.5" d="M321.9459,-24.8269C386.175,-39.8437 548.1837,-77.7214 625.1497,-95.7161"/>
<polygon fill="#000000" stroke="#000000" stroke-width="1.5" points="629.2522,-100.2696 639.7864,-99.1381 630.8458,-93.4534 629.2522,-100.2696"/>
<polyline fill="none" stroke="#000000" stroke-width="1.5" points="630.049,-96.8615 625.1803,-95.7231 "/>
<g id="a_edge5&#45;label"><a xlink:title="rate: b_V * total_V / K_V">
<text text-anchor="middle" x="505.6436" y="-88.3" font-family="Times" font-size="14.00" fill="#000000">rate: b_V * total_V / K_V</text>
</a>
</g>
</g>
</g>
</svg>
