<?xml version="1.0" encoding="UTF-8" standalone="no"?>
<!DOCTYPE svg PUBLIC "-//W3C//DTD SVG 1.1//EN"
 "http://www.w3.org/Graphics/SVG/1.1/DTD/svg11.dtd">
<!-- Generated by graphviz version 2.40.1 (20161225.0304)
 -->
<!-- Title: %3 Pages: 1 -->
<svg width="910pt" height="103pt"
 viewBox="0.00 0.00 909.88 102.60" xmlns="http://www.w3.org/2000/svg" xmlns:xlink="http://www.w3.org/1999/xlink">
<g id="graph0" class="graph" transform="scale(1 1) rotate(0) translate(4 98.5999)">
<title>%3</title>
<polygon fill="#ffffff" stroke="transparent" points="-4,4 -4,-98.5999 905.877,-98.5999 905.877,4 -4,4"/>
<!-- S -->
<g id="node1" class="node">
<title>S</title>
<g id="a_node1"><a xlink:title="S (Susceptible):&#10;	suceptible of becoming infected">
<path fill="#f5deb3" stroke="#000000" d="M12,-1C12,-1 42,-1 42,-1 48,-1 54,-7 54,-13 54,-13 54,-25 54,-25 54,-31 48,-37 42,-37 42,-37 12,-37 12,-37 6,-37 0,-31 0,-25 0,-25 0,-13 0,-13 0,-7 6,-1 12,-1"/>
<text text-anchor="middle" x="27" y="-15.7" font-family="Arial" font-size="16.00" fill="#000000">S</text>
</a>
</g>
</g>
<!-- E -->
<g id="node2" class="node">
<title>E</title>
<g id="a_node2"><a xlink:title="E (Latent):&#10;	infected but not yet able to transmit the disease">
<path fill="#ffa500" stroke="#000000" d="M310.542,-29C310.542,-29 340.542,-29 340.542,-29 346.542,-29 352.542,-35 352.542,-41 352.542,-41 352.542,-53 352.542,-53 352.542,-59 346.542,-65 340.542,-65 340.542,-65 310.542,-65 310.542,-65 304.542,-65 298.542,-59 298.542,-53 298.542,-53 298.542,-41 298.542,-41 298.542,-35 304.542,-29 310.542,-29"/>
<text text-anchor="middle" x="325.542" y="-43.7" font-family="Arial" font-size="16.00" fill="#000000">E</text>
</a>
</g>
</g>
<!-- S&#45;&gt;E -->
<g id="edge4" class="edge">
<title>S&#45;&gt;E</title>
<path fill="none" stroke="#000000" stroke-width="1.5" d="M54.0202,-21.5342C106.1756,-26.4258 221.0616,-37.2009 283.368,-43.0445"/>
<polygon fill="#000000" stroke="#000000" stroke-width="1.5" points="288.0846,-47.0022 298.3678,-44.4514 288.7383,-40.0328 288.0846,-47.0022"/>
<polyline fill="none" stroke="#000000" stroke-width="1.5" points="288.4115,-43.5175 283.4333,-43.0506 "/>
<g id="a_edge4&#45;label"><a xlink:title="force_of_infection [parameter]:&#10;	infection function &#160;&#160;&#160;&#160;&#160;&#160;&#160;&#160;&#160;&#160;&#160;&#160;&#160;&#160;&#160;&#160;&#160;&#160;&#160;&#160;&#160;&#160;&#160;&#160;&#160;&#160;&#160;&#160;&#160;&#160;&#160;&#160;&#160;&#160;&#160;&#160;&#160;&#160;&#160;&#160;&#160;&#160;&#160;&#160;&#160;&#160;&#160;&#160;&#160;&#160;&#160;&#160;&#160;&#10;	transmission_I * total_I / total_herd">
<text text-anchor="middle" x="176.271" y="-40.8" font-family="Times,serif" font-size="14.00" fill="#000000">rate: force_of_infection</text>
</a>
</g>
</g>
<!-- I -->
<g id="node3" class="node">
<title>I</title>
<g id="a_node3"><a xlink:title="I (Infectious):&#10;	infected and able to transmit the disease">
<path fill="#b03060" stroke="#000000" d="M616.542,-29C616.542,-29 646.542,-29 646.542,-29 652.542,-29 658.542,-35 658.542,-41 658.542,-41 658.542,-53 658.542,-53 658.542,-59 652.542,-65 646.542,-65 646.542,-65 616.542,-65 616.542,-65 610.542,-65 604.542,-59 604.542,-53 604.542,-53 604.542,-41 604.542,-41 604.542,-35 610.542,-29 616.542,-29"/>
<text text-anchor="middle" x="631.542" y="-43.7" font-family="Arial" font-size="16.00" fill="#000000">I</text>
</a>
</g>
</g>
<!-- E&#45;&gt;I -->
<g id="edge1" class="edge">
<title>E&#45;&gt;I</title>
<path fill="none" stroke="#000000" stroke-width="1.5" d="M352.6975,-47C406.1162,-47 525.2026,-47 589.0962,-47"/>
<polygon fill="#000000" stroke="#000000" stroke-width="1.5" points="594.4474,-50.5001 604.4474,-47 594.4474,-43.5001 594.4474,-50.5001"/>
<polyline fill="none" stroke="#000000" stroke-width="1.5" points="594.4474,-47.0001 589.4474,-47.0001 "/>
<g id="a_edge1&#45;label"><a xlink:title="rate: &#160;&#160;&#160;&#160;1 &#160;&#160;&#160;&#160;&#10;──────────&#10;incubation">
<text text-anchor="middle" x="478.542" y="-83.3999" font-family="Times,serif" font-size="14.00" fill="#000000">rate: &#160;&#160;&#160;&#160;1 &#160;&#160;&#160;&#160;</text>
<text text-anchor="middle" x="478.542" y="-69.3999" font-family="Times,serif" font-size="14.00" fill="#000000">──────────</text>
<text text-anchor="middle" x="478.542" y="-49.8" font-family="Times,serif" font-size="14.00" fill="#000000">incubation</text>
</a>
</g>
</g>
<!-- R -->
<g id="node4" class="node">
<title>R</title>
<g id="a_node4"><a xlink:title="R (Resistant):&#10;	healthy again and resistant to infection">
<path fill="#00bfff" stroke="#000000" d="M859.877,-1C859.877,-1 889.877,-1 889.877,-1 895.877,-1 901.877,-7 901.877,-13 901.877,-13 901.877,-25 901.877,-25 901.877,-31 895.877,-37 889.877,-37 889.877,-37 859.877,-37 859.877,-37 853.877,-37 847.877,-31 847.877,-25 847.877,-25 847.877,-13 847.877,-13 847.877,-7 853.877,-1 859.877,-1"/>
<text text-anchor="middle" x="874.877" y="-15.7" font-family="Arial" font-size="16.00" fill="#000000">R</text>
</a>
</g>
</g>
<!-- I&#45;&gt;R -->
<g id="edge2" class="edge">
<title>I&#45;&gt;R</title>
<path fill="none" stroke="#000000" stroke-width="1.5" d="M658.9826,-43.8425C701.2652,-38.9771 782.6686,-29.6102 832.5416,-23.8714"/>
<polygon fill="#000000" stroke="#000000" stroke-width="1.5" points="838.0023,-26.7662 847.5366,-22.146 837.2021,-19.8121 838.0023,-26.7662"/>
<polyline fill="none" stroke="#000000" stroke-width="1.5" points="837.6022,-23.2892 832.635,-23.8608 "/>
<g id="a_edge2&#45;label"><a xlink:title="recovery [parameter]:&#10;	recovery rate (/day) &#160;&#160;&#160;&#160;&#160;&#160;&#160;&#160;&#160;&#160;&#160;&#160;&#160;&#160;&#160;&#160;&#160;&#160;&#160;&#160;&#160;&#160;&#160;&#160;&#160;&#160;&#160;&#160;&#160;&#160;&#160;&#160;&#160;&#160;&#160;&#160;&#160;&#160;&#160;&#160;&#160;&#160;&#160;&#160;&#160;&#160;&#160;&#160;&#160;&#160;&#160;&#10;	0.1">
<text text-anchor="middle" x="753.2095" y="-39.8" font-family="Times,serif" font-size="14.00" fill="#000000">rate: recovery</text>
</a>
</g>
</g>
<!-- R&#45;&gt;S -->
<g id="edge3" class="edge">
<title>R&#45;&gt;S</title>
<path fill="none" stroke="#000000" stroke-width="1.5" d="M847.7713,-7.2916C836.434,-3.3816 822.9845,0 810.377,0 91.5,0 91.5,0 91.5,0 84.0143,0 76.2317,-1.1921 68.7707,-2.9792"/>
<polygon fill="#000000" stroke="#000000" stroke-width="1.5" points="62.7121,-1.1125 54.1057,-7.2916 64.6869,-7.8282 62.7121,-1.1125"/>
<polyline fill="none" stroke="#000000" stroke-width="1.5" points="63.6995,-4.4704 68.4964,-3.0598 "/>
<g id="a_edge3&#45;label"><a xlink:title="waning [parameter]:&#10;	rate at which individuals lose immunity (/day) &#160;&#160;&#160;&#160;&#160;&#160;&#160;&#160;&#160;&#160;&#160;&#160;&#160;&#160;&#160;&#160;&#160;&#160;&#160;&#160;&#160;&#160;&#160;&#160;&#160;&#10;	0.05">
<text text-anchor="middle" x="478.542" y="-2.8" font-family="Times,serif" font-size="14.00" fill="#000000">rate: waning</text>
</a>
</g>
</g>
</g>
</svg>
