<?xml version="1.0" encoding="UTF-8" standalone="no"?>
<!DOCTYPE svg PUBLIC "-//W3C//DTD SVG 1.1//EN"
 "http://www.w3.org/Graphics/SVG/1.1/DTD/svg11.dtd">
<!-- Generated by graphviz version 2.40.1 (20161225.0304)
 -->
<!-- Title: %3 Pages: 1 -->
<svg width="554pt" height="81pt"
 viewBox="0.00 0.00 554.20 81.00" xmlns="http://www.w3.org/2000/svg" xmlns:xlink="http://www.w3.org/1999/xlink">
<g id="graph0" class="graph" transform="scale(1 1) rotate(0) translate(4 77)">
<title>%3</title>
<polygon fill="#ffffff" stroke="transparent" points="-4,4 -4,-77 550.1973,-77 550.1973,4 -4,4"/>
<!-- J -->
<g id="node1" class="node">
<title>J</title>
<g id="a_node1"><a xlink:title="J (Juvenile):&#10;	Young animals">
<path fill="#ffa500" stroke="#000000" stroke-width="2" d="M12,-20C12,-20 42,-20 42,-20 48,-20 54,-26 54,-32 54,-32 54,-44 54,-44 54,-50 48,-56 42,-56 42,-56 12,-56 12,-56 6,-56 0,-50 0,-44 0,-44 0,-32 0,-32 0,-26 6,-20 12,-20"/>
<text text-anchor="middle" x="27" y="-35.2" font-family="Arial" font-size="16.00" fill="#000000">J ◷</text>
</a>
</g>
</g>
<!-- A -->
<g id="node2" class="node">
<title>A</title>
<g id="a_node2"><a xlink:title="A (Adult):&#10;	Adult animals">
<path fill="#a52a2a" stroke="#000000" d="M245.6572,-33C245.6572,-33 275.6572,-33 275.6572,-33 281.6572,-33 287.6572,-39 287.6572,-45 287.6572,-45 287.6572,-57 287.6572,-57 287.6572,-63 281.6572,-69 275.6572,-69 275.6572,-69 245.6572,-69 245.6572,-69 239.6572,-69 233.6572,-63 233.6572,-57 233.6572,-57 233.6572,-45 233.6572,-45 233.6572,-39 239.6572,-33 245.6572,-33"/>
<text text-anchor="middle" x="260.6572" y="-47.7" font-family="Arial" font-size="16.00" fill="#000000">A</text>
</a>
</g>
</g>
<!-- J&#45;&gt;A -->
<g id="edge3" class="edge">
<title>J&#45;&gt;A</title>
<path fill="none" stroke="#000000" stroke-width="1.5" d="M54.2286,-37.2578C82.0525,-36.7201 126.4926,-36.471 164.8105,-39 182.437,-40.1633 201.7854,-42.401 218.4545,-44.6319"/>
<polygon fill="#000000" stroke="#000000" stroke-width="1.5" points="223.083,-48.8137 233.4715,-46.7335 224.0532,-41.8813 223.083,-48.8137"/>
<polyline fill="none" stroke="#000000" stroke-width="1.5" points="223.5681,-45.3475 218.6163,-44.6545 "/>
<g id="a_edge3&#45;label"><a xlink:title="proba: 1">
<text text-anchor="middle" x="137.4053" y="-41.8" font-family="Times,serif" font-size="14.00" fill="#000000">proba: 1</text>
</a>
</g>
</g>
<!-- D -->
<g id="node3" class="node">
<title>D</title>
<g id="a_node3"><a xlink:title="D (Dead):&#10;	compartment to represent deceased animals">
<path fill="#ffffff" stroke="#000000" stroke-dasharray="1,5" d="M504.1973,-1C504.1973,-1 534.1973,-1 534.1973,-1 540.1973,-1 546.1973,-7 546.1973,-13 546.1973,-13 546.1973,-25 546.1973,-25 546.1973,-31 540.1973,-37 534.1973,-37 534.1973,-37 504.1973,-37 504.1973,-37 498.1973,-37 492.1973,-31 492.1973,-25 492.1973,-25 492.1973,-13 492.1973,-13 492.1973,-7 498.1973,-1 504.1973,-1"/>
<text text-anchor="middle" x="519.1973" y="-15.7" font-family="Arial" font-size="16.00" fill="#000000">D</text>
</a>
</g>
</g>
<!-- J&#45;&gt;D -->
<g id="edge4" class="edge">
<title>J&#45;&gt;D</title>
<g id="a_edge4"><a xlink:title="ESCAPE: True">
<path fill="none" stroke="#000000" stroke-width="1.5" d="M58.1867,-10.9402C68.1676,-4.7753 79.7054,0 91.5,0 91.5,0 91.5,0 454.6973,0 462.183,0 469.9656,-1.1921 477.4266,-2.9792"/>
<polyline fill="none" stroke="#000000" stroke-width="1.5" points="45.6636,-19.8903 49.7315,-16.9831 "/>
<polygon fill="none" stroke="#000000" stroke-width="1.5" points="47.6964,-14.1355 57.8673,-11.1685 51.7666,-19.8306 47.6964,-14.1355"/>
<polygon fill="#000000" stroke="#000000" stroke-width="1.5" points="481.5104,-7.8282 492.0916,-7.2916 483.4852,-1.1125 481.5104,-7.8282"/>
<polyline fill="none" stroke="#000000" stroke-width="1.5" points="482.4978,-4.4704 477.7009,-3.0598 "/>
</a>
</g>
<g id="a_edge4&#45;label"><a xlink:title="mortality [parameter]:&#10;	density&#45;dependent mortality rate &#160;&#160;&#160;&#160;&#160;&#160;&#160;&#160;&#160;&#160;&#160;&#160;&#160;&#160;&#160;&#160;&#160;&#160;&#160;&#160;&#160;&#160;&#160;&#160;&#160;&#160;&#160;&#160;&#160;&#160;&#160;&#160;&#160;&#160;&#160;&#160;&#160;&#160;&#160;&#10;	b * total_herd / carrying_capacity">
<text text-anchor="middle" x="260.6572" y="-2.8" font-family="Times,serif" font-size="14.00" fill="#000000">rate: mortality</text>
</a>
</g>
</g>
<!-- A&#45;&gt;J -->
<g id="edge2" class="edge">
<title>A&#45;&gt;J</title>
<path fill="none" stroke="#000000" stroke-width="1.5" stroke-dasharray="5,2" d="M233.5256,-54.2073C196.6353,-57.8748 128.7444,-62.1559 72,-52 71.0033,-51.8216 69.9979,-51.6278 68.9868,-51.4204"/>
<polygon fill="#000000" stroke="#000000" stroke-width="1.5" points="64.8909,-46.7665 54.3366,-47.6922 63.1645,-53.5503 64.8909,-46.7665"/>
<polyline fill="none" stroke="#000000" stroke-width="1.5" points="64.0277,-50.1584 68.8732,-51.3915 "/>
<g id="a_edge2&#45;label"><a xlink:title="birth [parameter]:&#10;	birth rate (/day) &#160;&#160;&#160;&#160;&#160;&#160;&#160;&#160;&#160;&#160;&#160;&#160;&#160;&#160;&#160;&#160;&#160;&#160;&#160;&#160;&#160;&#160;&#160;&#160;&#160;&#160;&#160;&#160;&#160;&#160;&#160;&#160;&#160;&#160;&#160;&#160;&#160;&#160;&#160;&#160;&#160;&#160;&#160;&#160;&#160;&#160;&#160;&#160;&#160;&#160;&#160;&#160;&#160;&#160;&#10;	b * 2">
<text text-anchor="middle" x="137.4053" y="-61.8" font-family="Times,serif" font-size="14.00" fill="#000000">rate: birth</text>
</a>
</g>
</g>
<!-- A&#45;&gt;D -->
<g id="edge1" class="edge">
<title>A&#45;&gt;D</title>
<path fill="none" stroke="#000000" stroke-width="1.5" d="M287.8369,-47.6359C332.9335,-42.0542 423.5403,-30.8396 477.0055,-24.2222"/>
<polygon fill="#000000" stroke="#000000" stroke-width="1.5" points="482.4995,-27.0689 491.9938,-22.367 481.6396,-20.1219 482.4995,-27.0689"/>
<polyline fill="none" stroke="#000000" stroke-width="1.5" points="482.0696,-23.5954 477.1074,-24.2096 "/>
<g id="a_edge1&#45;label"><a xlink:title="mortality [parameter]:&#10;	density&#45;dependent mortality rate &#160;&#160;&#160;&#160;&#160;&#160;&#160;&#160;&#160;&#160;&#160;&#160;&#160;&#160;&#160;&#160;&#160;&#160;&#160;&#160;&#160;&#160;&#160;&#160;&#160;&#160;&#160;&#160;&#160;&#160;&#160;&#160;&#160;&#160;&#160;&#160;&#160;&#160;&#160;&#10;	b * total_herd / carrying_capacity">
<text text-anchor="middle" x="396.3506" y="-42.8" font-family="Times,serif" font-size="14.00" fill="#000000">rate: mortality</text>
</a>
</g>
</g>
</g>
</svg>
