<?xml version="1.0" encoding="UTF-8" standalone="no"?>
<!DOCTYPE svg PUBLIC "-//W3C//DTD SVG 1.1//EN"
 "http://www.w3.org/Graphics/SVG/1.1/DTD/svg11.dtd">
<!-- Generated by graphviz version 2.40.1 (20161225.0304)
 -->
<!-- Title: %3 Pages: 1 -->
<svg width="274pt" height="62pt"
 viewBox="0.00 0.00 274.27 62.24" xmlns="http://www.w3.org/2000/svg" xmlns:xlink="http://www.w3.org/1999/xlink">
<g id="graph0" class="graph" transform="scale(1 1) rotate(0) translate(4 58.2422)">
<title>%3</title>
<polygon fill="#ffffff" stroke="transparent" points="-4,4 -4,-58.2422 270.2656,-58.2422 270.2656,4 -4,4"/>
<!-- J -->
<g id="node1" class="node">
<title>J</title>
<g id="a_node1"><a xlink:title="J (Juvenile):&#10;	juvenile animals">
<path fill="#ffa500" stroke="#000000" stroke-width="2" d="M12,-.5C12,-.5 42,-.5 42,-.5 48,-.5 54,-6.5 54,-12.5 54,-12.5 54,-41.7422 54,-41.7422 54,-47.7422 48,-53.7422 42,-53.7422 42,-53.7422 12,-53.7422 12,-53.7422 6,-53.7422 0,-47.7422 0,-41.7422 0,-41.7422 0,-12.5 0,-12.5 0,-6.5 6,-.5 12,-.5"/>
<text text-anchor="middle" x="26.7227" y="-36.9422" font-family="Arial" font-size="16.00" fill="#000000">J </text>
<polyline fill="none" stroke="#000000" stroke-width="2" points="0,-27.3438 53.4453,-27.3438 "/>
<text text-anchor="middle" x="26.7227" y="-10.5438" font-family="Arial" font-size="16.00" fill="#000000">◆</text>
</a>
</g>
</g>
<!-- A -->
<g id="node2" class="node">
<title>A</title>
<g id="a_node2"><a xlink:title="A (Adult):&#10;	adult animals">
<path fill="#a52a2a" stroke="#000000" d="M224.2656,-.5C224.2656,-.5 254.2656,-.5 254.2656,-.5 260.2656,-.5 266.2656,-6.5 266.2656,-12.5 266.2656,-12.5 266.2656,-41.7422 266.2656,-41.7422 266.2656,-47.7422 260.2656,-53.7422 254.2656,-53.7422 254.2656,-53.7422 224.2656,-53.7422 224.2656,-53.7422 218.2656,-53.7422 212.2656,-47.7422 212.2656,-41.7422 212.2656,-41.7422 212.2656,-12.5 212.2656,-12.5 212.2656,-6.5 218.2656,-.5 224.2656,-.5"/>
<text text-anchor="middle" x="238.8828" y="-36.9422" font-family="Arial" font-size="16.00" fill="#000000">A </text>
<polyline fill="none" stroke="#000000" points="212.2656,-27.3438 265.5,-27.3438 "/>
<text text-anchor="middle" x="238.8828" y="-10.5438" font-family="Arial" font-size="16.00" fill="#000000">◆</text>
</a>
</g>
</g>
<!-- J&#45;&gt;A -->
<g id="edge1" class="edge">
<title>J&#45;&gt;A</title>
<g id="a_edge1"><a xlink:title="COND: GreaterThan(age, adult_age)">
<path fill="none" stroke="#000000" stroke-width="1.5" d="M64.4847,-27.1211C101.5718,-27.1211 158.2475,-27.1211 196.9359,-27.1211"/>
<polyline fill="none" stroke="#000000" stroke-width="1.5" points="54.3155,-27.1211 59.3155,-27.1211 "/>
<polygon fill="#000000" stroke="#000000" stroke-width="1.5" points="60.3154,-32.1212 60.3155,-22.1212 62.3155,-22.1212 62.3154,-32.1212 60.3154,-32.1212"/>
<polyline fill="none" stroke="#000000" stroke-width="1.5" points="59.3155,-27.1211 64.3155,-27.1212 "/>
<polygon fill="#000000" stroke="#000000" stroke-width="1.5" points="202.055,-30.6212 212.055,-27.1211 202.055,-23.6212 202.055,-30.6212"/>
<polyline fill="none" stroke="#000000" stroke-width="1.5" points="202.055,-27.1212 197.055,-27.1212 "/>
</a>
</g>
<g id="a_edge1&#45;label"><a xlink:title="proba: 1">
<text text-anchor="middle" x="133.1328" y="-29.9211" font-family="Times,serif" font-size="14.00" fill="#000000">proba: 1</text>
</a>
</g>
</g>
</g>
</svg>
