<?xml version="1.0" encoding="UTF-8" standalone="no"?>
<!DOCTYPE svg PUBLIC "-//W3C//DTD SVG 1.1//EN"
 "http://www.w3.org/Graphics/SVG/1.1/DTD/svg11.dtd">
<!-- Generated by graphviz version 2.40.1 (20161225.0304)
 -->
<!-- Title: %3 Pages: 1 -->
<svg width="349pt" height="68pt"
 viewBox="0.00 0.00 348.99 67.98" xmlns="http://www.w3.org/2000/svg" xmlns:xlink="http://www.w3.org/1999/xlink">
<g id="graph0" class="graph" transform="scale(1 1) rotate(0) translate(4 63.9805)">
<title>%3</title>
<polygon fill="#ffffff" stroke="transparent" points="-4,4 -4,-63.9805 344.9922,-63.9805 344.9922,4 -4,4"/>
<!-- G -->
<g id="node1" class="node">
<title>G</title>
<g id="a_node1"><a xlink:title="G (Gestating):&#10;	state for gestating animals">
<path fill="#00ff00" stroke="#000000" d="M12,-7.9805C12,-7.9805 42,-7.9805 42,-7.9805 48,-7.9805 54,-13.9805 54,-19.9805 54,-19.9805 54,-31.9805 54,-31.9805 54,-37.9805 48,-43.9805 42,-43.9805 42,-43.9805 12,-43.9805 12,-43.9805 6,-43.9805 0,-37.9805 0,-31.9805 0,-31.9805 0,-19.9805 0,-19.9805 0,-13.9805 6,-7.9805 12,-7.9805"/>
<text text-anchor="middle" x="27" y="-23.1805" font-family="Arial" font-size="16.00" fill="#000000">G ◷</text>
</a>
</g>
</g>
<!-- NG -->
<g id="node2" class="node">
<title>NG</title>
<g id="a_node2"><a xlink:title="NG (NonGestating):&#10;	state for empty animals">
<path fill="#00ffff" stroke="#000000" stroke-width="2" d="M298.9141,-7.9805C298.9141,-7.9805 328.9922,-7.9805 328.9922,-7.9805 334.9922,-7.9805 340.9922,-13.9805 340.9922,-19.9805 340.9922,-19.9805 340.9922,-31.9805 340.9922,-31.9805 340.9922,-37.9805 334.9922,-43.9805 328.9922,-43.9805 328.9922,-43.9805 298.9141,-43.9805 298.9141,-43.9805 292.9141,-43.9805 286.9141,-37.9805 286.9141,-31.9805 286.9141,-31.9805 286.9141,-19.9805 286.9141,-19.9805 286.9141,-13.9805 292.9141,-7.9805 298.9141,-7.9805"/>
<text text-anchor="middle" x="313.9531" y="-23.1805" font-family="Arial" font-size="16.00" fill="#000000">NG ◷</text>
</a>
</g>
</g>
<!-- G&#45;&gt;NG -->
<g id="edge1" class="edge">
<title>G&#45;&gt;NG</title>
<path fill="none" stroke="#000000" stroke-width="1.5" d="M54.3366,-35.6727C60.1047,-37.3811 66.2012,-38.9426 72,-39.9805 88.6477,-42.96 93.0936,-41.5359 110,-41.9805 172.7488,-43.6306 194.5608,-50.5892 259.8445,-40.3673"/>
<polygon fill="#000000" stroke="#000000" stroke-width="1.5" points="277.348,-40.8486 286.5924,-35.6725 276.1378,-33.954 277.348,-40.8486"/>
<polyline fill="none" stroke="#000000" stroke-width="1.5" points="276.7429,-37.4013 271.8182,-38.2657 "/>
<polygon fill="#000000" stroke="#000000" stroke-width="1.5" points="259.9989,-40.3402 265.217,-35.3632 271.8182,-38.2657 266.6001,-43.2427 259.9989,-40.3402"/>
<g id="a_edge1&#45;label"><a xlink:title="proba: 1">
<text text-anchor="middle" x="170.457" y="-48.7805" font-family="Times,serif" font-size="14.00" fill="#000000">proba: 1</text>
</a>
</g>
</g>
<!-- G&#45;&gt;NG -->
<g id="edge2" class="edge">
<title>G&#45;&gt;NG</title>
<g id="a_edge2"><a xlink:title="ESCAPE: is_I">
<path fill="none" stroke="#000000" stroke-width="1.5" d="M69.3439,-24.7633C82.3821,-24.4415 96.7818,-24.1397 110,-23.9805 163.7357,-23.3331 177.1784,-23.3334 230.9141,-23.9805 240.0694,-24.0907 249.7913,-24.2693 259.2356,-24.4755"/>
<polyline fill="none" stroke="#000000" stroke-width="1.5" points="54.2863,-25.1576 59.2846,-25.0267 "/>
<polygon fill="none" stroke="#000000" stroke-width="1.5" points="59.1929,-21.5279 69.2811,-24.7649 59.3762,-28.5255 59.1929,-21.5279"/>
<polygon fill="#000000" stroke="#000000" stroke-width="1.5" points="276.5701,-28.4078 286.654,-25.1576 276.7441,-21.4099 276.5701,-28.4078"/>
<polyline fill="none" stroke="#000000" stroke-width="1.5" points="276.6571,-24.9088 271.6586,-24.7845 "/>
<polygon fill="#000000" stroke="#000000" stroke-width="1.5" points="259.6624,-24.486 265.76,-20.6365 271.6586,-24.7845 265.561,-28.634 259.6624,-24.486"/>
</a>
</g>
<g id="a_edge2&#45;label"><a xlink:title="daily_abortion [parameter]:&#10;	daily probability that an infected animal aborts during gestation &#160;&#160;&#160;&#160;&#160;&#160;&#10;	1 &#45; (1 &#45; global_abortion)**(1/gestation_duration)">
<text text-anchor="middle" x="170.457" y="-26.7805" font-family="Times,serif" font-size="14.00" fill="#000000">proba: daily_abortion</text>
</a>
</g>
</g>
<!-- NG&#45;&gt;G -->
<g id="edge3" class="edge">
<title>NG&#45;&gt;G</title>
<g id="a_edge3"><a xlink:title="COND: is_A">
<path fill="none" stroke="#000000" stroke-width="1.5" d="M276.7114,-14.4709C262.5242,-10.6416 246.1132,-6.8726 230.9141,-4.9805 177.5861,1.6582 163.3276,1.6612 110,-4.9805 96.4302,-6.6705 81.8941,-9.858 68.839,-13.2484"/>
<polyline fill="none" stroke="#000000" stroke-width="1.5" points="286.5998,-17.244 281.7855,-15.8939 "/>
<polygon fill="#000000" stroke="#000000" stroke-width="1.5" points="282.1728,-10.8096 279.4725,-20.4381 277.5468,-19.8981 280.2471,-10.2695 282.1728,-10.8096"/>
<polyline fill="none" stroke="#000000" stroke-width="1.5" points="281.7855,-15.8939 276.9712,-14.5437 "/>
<polygon fill="#000000" stroke="#000000" stroke-width="1.5" points="63.0509,-11.2129 54.3402,-17.244 64.9107,-17.9614 63.0509,-11.2129"/>
<polyline fill="none" stroke="#000000" stroke-width="1.5" points="63.9808,-14.5871 68.8011,-13.2587 "/>
</a>
</g>
<g id="a_edge3&#45;label"><a xlink:title="reproduction [parameter]:&#10;	reproduction rate of the animals &#160;&#160;&#160;&#160;&#160;&#160;&#160;&#160;&#160;&#160;&#160;&#160;&#160;&#160;&#160;&#160;&#160;&#160;&#160;&#160;&#160;&#160;&#160;&#160;&#160;&#160;&#160;&#160;&#160;&#160;&#160;&#160;&#160;&#160;&#160;&#160;&#160;&#160;&#160;&#10;	0.05">
<text text-anchor="middle" x="170.457" y="-7.7805" font-family="Times,serif" font-size="14.00" fill="#000000">rate: reproduction</text>
</a>
</g>
</g>
</g>
</svg>
