<?xml version="1.0" encoding="UTF-8" standalone="no"?>
<!DOCTYPE svg PUBLIC "-//W3C//DTD SVG 1.1//EN"
 "http://www.w3.org/Graphics/SVG/1.1/DTD/svg11.dtd">
<!-- Generated by graphviz version 2.40.1 (20161225.0304)
 -->
<!-- Title: %3 Pages: 1 -->
<svg width="1239pt" height="206pt"
 viewBox="0.00 0.00 1239.08 206.20" xmlns="http://www.w3.org/2000/svg" xmlns:xlink="http://www.w3.org/1999/xlink">
<g id="graph0" class="graph" transform="scale(1 1) rotate(0) translate(4 202.1953)">
<title>%3</title>
<polygon fill="#ffffff" stroke="transparent" points="-4,4 -4,-202.1953 1235.0781,-202.1953 1235.0781,4 -4,4"/>
<!-- s1 -->
<g id="node1" class="node">
<title>s1</title>
<polygon fill="none" stroke="#000000" points="53.3803,-188.895 .2056,-188.895 .2056,-144.3003 59.3803,-144.3003 59.3803,-182.895 53.3803,-188.895"/>
<polyline fill="none" stroke="#000000" points="53.3803,-188.895 53.3803,-182.895 "/>
<polyline fill="none" stroke="#000000" points="59.3803,-182.895 53.3803,-182.895 "/>
<text text-anchor="middle" x="29.793" y="-172.1961" font-family="Arial" font-size="16.00" fill="#000000">step 1</text>
<text text-anchor="middle" x="29.793" y="-153.7977" font-family="Arial" font-size="16.00" fill="#000000">(SIR)</text>
</g>
<!-- s2 -->
<g id="node2" class="node">
<title>s2</title>
<polygon fill="none" stroke="#000000" points="148.9663,-188.895 95.7915,-188.895 95.7915,-144.3003 154.9663,-144.3003 154.9663,-182.895 148.9663,-188.895"/>
<polyline fill="none" stroke="#000000" points="148.9663,-188.895 148.9663,-182.895 "/>
<polyline fill="none" stroke="#000000" points="154.9663,-182.895 148.9663,-182.895 "/>
<text text-anchor="middle" x="125.3789" y="-172.1961" font-family="Arial" font-size="16.00" fill="#000000">step 2</text>
<text text-anchor="middle" x="125.3789" y="-153.7977" font-family="Arial" font-size="16.00" fill="#000000">(+ JA)</text>
</g>
<!-- s1&#45;&gt;s2 -->
<g id="edge1" class="edge">
<title>s1&#45;&gt;s2</title>
<path fill="none" stroke="#000000" stroke-width="1.5" d="M59.513,-166.5977C67.7849,-166.5977 76.9039,-166.5977 85.6517,-166.5977"/>
<polygon fill="#000000" stroke="#000000" stroke-width="1.5" points="85.6773,-170.0978 95.6773,-166.5977 85.6772,-163.0978 85.6773,-170.0978"/>
</g>
<!-- s3 -->
<g id="node3" class="node">
<title>s3</title>
<polygon fill="none" stroke="#000000" points="282.7468,-198.2933 190.9797,-198.2933 190.9797,-134.902 288.7468,-134.902 288.7468,-192.2933 282.7468,-198.2933"/>
<polyline fill="none" stroke="#000000" points="282.7468,-198.2933 282.7468,-192.2933 "/>
<polyline fill="none" stroke="#000000" points="288.7468,-192.2933 282.7468,-192.2933 "/>
<text text-anchor="middle" x="239.8633" y="-181.3953" font-family="Arial" font-size="16.00" fill="#000000">step 3</text>
<text text-anchor="middle" x="239.8633" y="-162.9969" font-family="Arial" font-size="16.00" fill="#000000">(+ non&#45;exp.</text>
<text text-anchor="middle" x="239.8633" y="-144.5984" font-family="Arial" font-size="16.00" fill="#000000">durations)</text>
</g>
<!-- s2&#45;&gt;s3 -->
<g id="edge2" class="edge">
<title>s2&#45;&gt;s3</title>
<path fill="none" stroke="#000000" stroke-width="1.5" d="M155.1595,-166.5977C163.1501,-166.5977 172.0764,-166.5977 181.0542,-166.5977"/>
<polygon fill="#000000" stroke="#000000" stroke-width="1.5" points="181.1651,-170.0978 191.1651,-166.5977 181.165,-163.0978 181.1651,-170.0978"/>
</g>
<!-- s4 -->
<g id="node4" class="node">
<title>s4</title>
<polygon fill="none" stroke="#000000" points="408.4419,-198.2933 328.0346,-198.2933 328.0346,-134.902 414.4419,-134.902 414.4419,-192.2933 408.4419,-198.2933"/>
<polyline fill="none" stroke="#000000" points="408.4419,-198.2933 408.4419,-192.2933 "/>
<polyline fill="none" stroke="#000000" points="414.4419,-192.2933 408.4419,-192.2933 "/>
<text text-anchor="middle" x="371.2383" y="-181.3953" font-family="Arial" font-size="16.00" fill="#000000">step 4</text>
<text text-anchor="middle" x="371.2383" y="-162.9969" font-family="Arial" font-size="16.00" fill="#000000">(+ contact</text>
<text text-anchor="middle" x="371.2383" y="-144.5984" font-family="Arial" font-size="16.00" fill="#000000"> struct.)</text>
</g>
<!-- s3&#45;&gt;s4 -->
<g id="edge3" class="edge">
<title>s3&#45;&gt;s4</title>
<path fill="none" stroke="#000000" stroke-width="1.5" d="M288.7825,-166.5977C298.2116,-166.5977 308.1348,-166.5977 317.7016,-166.5977"/>
<polygon fill="#000000" stroke="#000000" stroke-width="1.5" points="317.9027,-170.0978 327.9026,-166.5977 317.9026,-163.0978 317.9027,-170.0978"/>
</g>
<!-- s5 -->
<g id="node5" class="node">
<title>s5</title>
<polygon fill="none" stroke="#000000" points="404.473,-116.895 332.0036,-116.895 332.0036,-72.3003 410.473,-72.3003 410.473,-110.895 404.473,-116.895"/>
<polyline fill="none" stroke="#000000" points="404.473,-116.895 404.473,-110.895 "/>
<polyline fill="none" stroke="#000000" points="410.473,-110.895 404.473,-110.895 "/>
<text text-anchor="middle" x="371.2383" y="-100.1961" font-family="Arial" font-size="16.00" fill="#000000">step 5</text>
<text text-anchor="middle" x="371.2383" y="-81.7977" font-family="Arial" font-size="16.00" fill="#000000">(=&gt; IBM)</text>
</g>
<!-- s4&#45;&gt;s5 -->
<g id="edge4" class="edge">
<title>s4&#45;&gt;s5</title>
<path fill="none" stroke="#000000" stroke-width="1.5" d="M371.2383,-134.8867C371.2383,-132.2925 371.2383,-129.6982 371.2383,-127.104"/>
<polygon fill="#000000" stroke="#000000" stroke-width="1.5" points="374.7384,-127.0976 371.2383,-117.0977 367.7384,-127.0977 374.7384,-127.0976"/>
</g>
<!-- s6 -->
<g id="node6" class="node">
<title>s6</title>
<polygon fill="none" stroke="#000000" points="412.1062,-53.895 324.3704,-53.895 324.3704,-9.3003 418.1062,-9.3003 418.1062,-47.895 412.1062,-53.895"/>
<polyline fill="none" stroke="#000000" points="412.1062,-53.895 412.1062,-47.895 "/>
<polyline fill="none" stroke="#000000" points="418.1062,-47.895 412.1062,-47.895 "/>
<text text-anchor="middle" x="371.2383" y="-37.1961" font-family="Arial" font-size="16.00" fill="#000000">step 6</text>
<text text-anchor="middle" x="371.2383" y="-18.7977" font-family="Arial" font-size="16.00" fill="#000000">(=&gt; hybrid)</text>
</g>
<!-- s5&#45;&gt;s6 -->
<g id="edge5" class="edge">
<title>s5&#45;&gt;s6</title>
<path fill="none" stroke="#000000" stroke-width="1.5" d="M371.2383,-72.2108C371.2383,-69.5898 371.2383,-66.9688 371.2383,-64.3478"/>
<polygon fill="#000000" stroke="#000000" stroke-width="1.5" points="374.7384,-64.2382 371.2383,-54.2383 367.7384,-64.2383 374.7384,-64.2382"/>
</g>
<!-- s7 -->
<g id="node7" class="node">
<title>s7</title>
<polygon fill="none" stroke="#000000" points="539.1447,-63.2933 453.8475,-63.2933 453.8475,.098 545.1447,.098 545.1447,-57.2933 539.1447,-63.2933"/>
<polyline fill="none" stroke="#000000" points="539.1447,-63.2933 539.1447,-57.2933 "/>
<polyline fill="none" stroke="#000000" points="545.1447,-57.2933 539.1447,-57.2933 "/>
<text text-anchor="middle" x="499.4961" y="-46.3953" font-family="Arial" font-size="16.00" fill="#000000">step 7</text>
<text text-anchor="middle" x="499.4961" y="-27.9969" font-family="Arial" font-size="16.00" fill="#000000">(+ variable</text>
<text text-anchor="middle" x="499.4961" y="-9.5984" font-family="Arial" font-size="16.00" fill="#000000">shedding)</text>
</g>
<!-- s6&#45;&gt;s7 -->
<g id="edge6" class="edge">
<title>s6&#45;&gt;s7</title>
<path fill="none" stroke="#000000" stroke-width="1.5" d="M418.2685,-31.5977C426.5025,-31.5977 435.1423,-31.5977 443.5886,-31.5977"/>
<polygon fill="#000000" stroke="#000000" stroke-width="1.5" points="443.7551,-35.0978 453.7551,-31.5977 443.755,-28.0978 443.7551,-35.0978"/>
</g>
<!-- s8 -->
<g id="node8" class="node">
<title>s8</title>
<polygon fill="none" stroke="#000000" points="651.7867,-63.2933 580.8305,-63.2933 580.8305,.098 657.7867,.098 657.7867,-57.2933 651.7867,-63.2933"/>
<polyline fill="none" stroke="#000000" points="651.7867,-63.2933 651.7867,-57.2933 "/>
<polyline fill="none" stroke="#000000" points="657.7867,-57.2933 651.7867,-57.2933 "/>
<text text-anchor="middle" x="619.3086" y="-46.3953" font-family="Arial" font-size="16.00" fill="#000000">step 8</text>
<text text-anchor="middle" x="619.3086" y="-27.9969" font-family="Arial" font-size="16.00" fill="#000000">(+ test</text>
<text text-anchor="middle" x="619.3086" y="-9.5984" font-family="Arial" font-size="16.00" fill="#000000">and cull)</text>
</g>
<!-- s7&#45;&gt;s8 -->
<g id="edge7" class="edge">
<title>s7&#45;&gt;s8</title>
<path fill="none" stroke="#000000" stroke-width="1.5" d="M545.1339,-31.5977C553.5025,-31.5977 562.2656,-31.5977 570.7169,-31.5977"/>
<polygon fill="#000000" stroke="#000000" stroke-width="1.5" points="570.8236,-35.0978 580.8235,-31.5977 570.8235,-28.0978 570.8236,-35.0978"/>
</g>
<!-- s9 -->
<g id="node9" class="node">
<title>s9</title>
<polygon fill="none" stroke="#000000" points="803.6406,-53.895 693.5156,-53.895 693.5156,-9.3003 809.6406,-9.3003 809.6406,-47.895 803.6406,-53.895"/>
<polyline fill="none" stroke="#000000" points="803.6406,-53.895 803.6406,-47.895 "/>
<polyline fill="none" stroke="#000000" points="809.6406,-47.895 803.6406,-47.895 "/>
<text text-anchor="middle" x="751.5781" y="-37.1961" font-family="Arial" font-size="16.00" fill="#000000">step 9</text>
<text text-anchor="middle" x="751.5781" y="-18.7977" font-family="Arial" font-size="16.00" fill="#000000">(+ quarantine)</text>
</g>
<!-- s8&#45;&gt;s9 -->
<g id="edge8" class="edge">
<title>s8&#45;&gt;s9</title>
<path fill="none" stroke="#000000" stroke-width="1.5" d="M657.5664,-31.5977C665.5729,-31.5977 674.2465,-31.5977 682.9776,-31.5977"/>
<polygon fill="#000000" stroke="#000000" stroke-width="1.5" points="683.2169,-35.0978 693.2169,-31.5977 683.2168,-28.0978 683.2169,-35.0978"/>
</g>
<!-- s10 -->
<g id="node10" class="node">
<title>s10</title>
<polygon fill="none" stroke="#000000" points="942.1762,-53.895 845.7535,-53.895 845.7535,-9.3003 948.1762,-9.3003 948.1762,-47.895 942.1762,-53.895"/>
<polyline fill="none" stroke="#000000" points="942.1762,-53.895 942.1762,-47.895 "/>
<polyline fill="none" stroke="#000000" points="948.1762,-47.895 942.1762,-47.895 "/>
<text text-anchor="middle" x="896.9648" y="-37.1961" font-family="Arial" font-size="16.00" fill="#000000">step 10</text>
<text text-anchor="middle" x="896.9648" y="-18.7977" font-family="Arial" font-size="16.00" fill="#000000">(+ metapop)</text>
</g>
<!-- s9&#45;&gt;s10 -->
<g id="edge9" class="edge">
<title>s9&#45;&gt;s10</title>
<path fill="none" stroke="#000000" stroke-width="1.5" d="M809.8748,-31.5977C818.2993,-31.5977 826.9926,-31.5977 835.4772,-31.5977"/>
<polygon fill="#000000" stroke="#000000" stroke-width="1.5" points="835.691,-35.0978 845.6909,-31.5977 835.6909,-28.0978 835.691,-35.0978"/>
</g>
<!-- s11 -->
<g id="node11" class="node">
<title>s11</title>
<polygon fill="none" stroke="#000000" points="1080.9105,-53.895 984.4567,-53.895 984.4567,-9.3003 1086.9105,-9.3003 1086.9105,-47.895 1080.9105,-53.895"/>
<polyline fill="none" stroke="#000000" points="1080.9105,-53.895 1080.9105,-47.895 "/>
<polyline fill="none" stroke="#000000" points="1086.9105,-47.895 1080.9105,-47.895 "/>
<text text-anchor="middle" x="1035.6836" y="-37.1961" font-family="Arial" font-size="16.00" fill="#000000">step 11</text>
<text text-anchor="middle" x="1035.6836" y="-18.7977" font-family="Arial" font-size="16.00" fill="#000000">(+ pop data)</text>
</g>
<!-- s10&#45;&gt;s11 -->
<g id="edge10" class="edge">
<title>s10&#45;&gt;s11</title>
<path fill="none" stroke="#000000" stroke-width="1.5" d="M948.2245,-31.5977C956.6563,-31.5977 965.4718,-31.5977 974.1234,-31.5977"/>
<polygon fill="#000000" stroke="#000000" stroke-width="1.5" points="974.1716,-35.0978 984.1716,-31.5977 974.1715,-28.0978 974.1716,-35.0978"/>
</g>
<!-- s12 -->
<g id="node12" class="node">
<title>s12</title>
<polygon fill="none" stroke="#000000" points="1225.0938,-53.895 1123.0312,-53.895 1123.0312,-9.3003 1231.0938,-9.3003 1231.0938,-47.895 1225.0938,-53.895"/>
<polyline fill="none" stroke="#000000" points="1225.0938,-53.895 1225.0938,-47.895 "/>
<polyline fill="none" stroke="#000000" points="1231.0938,-47.895 1225.0938,-47.895 "/>
<text text-anchor="middle" x="1177.0625" y="-37.1961" font-family="Arial" font-size="16.00" fill="#000000">step 12</text>
<text text-anchor="middle" x="1177.0625" y="-18.7977" font-family="Arial" font-size="16.00" fill="#000000">(+ treatment)</text>
</g>
<!-- s11&#45;&gt;s12 -->
<g id="edge11" class="edge">
<title>s11&#45;&gt;s12</title>
<path fill="none" stroke="#000000" stroke-width="1.5" d="M1087.1246,-31.5977C1095.5231,-31.5977 1104.3141,-31.5977 1112.9719,-31.5977"/>
<polygon fill="#000000" stroke="#000000" stroke-width="1.5" points="1113.0428,-35.0978 1123.0427,-31.5977 1113.0427,-28.0978 1113.0428,-35.0978"/>
</g>
</g>
</svg>
