<?xml version="1.0" encoding="UTF-8" standalone="no"?>
<!DOCTYPE svg PUBLIC "-//W3C//DTD SVG 1.1//EN"
 "http://www.w3.org/Graphics/SVG/1.1/DTD/svg11.dtd">
<!-- Generated by graphviz version 2.40.1 (20161225.0304)
 -->
<!-- Title: %3 Pages: 1 -->
<svg width="1079pt" height="125pt"
 viewBox="0.00 0.00 1079.02 125.00" xmlns="http://www.w3.org/2000/svg" xmlns:xlink="http://www.w3.org/1999/xlink">
<g id="graph0" class="graph" transform="scale(1 1) rotate(0) translate(4 120.9961)">
<title>%3</title>
<polygon fill="#ffffff" stroke="transparent" points="-4,4 -4,-120.9961 1075.0234,-120.9961 1075.0234,4 -4,4"/>
<!-- s1 -->
<g id="node1" class="node">
<title>s1</title>
<polygon fill="none" stroke="#000000" points="53.3803,-84.895 .2056,-84.895 .2056,-40.3003 59.3803,-40.3003 59.3803,-78.895 53.3803,-84.895"/>
<polyline fill="none" stroke="#000000" points="53.3803,-84.895 53.3803,-78.895 "/>
<polyline fill="none" stroke="#000000" points="59.3803,-78.895 53.3803,-78.895 "/>
<text text-anchor="middle" x="29.793" y="-68.1961" font-family="Arial" font-size="16.00" fill="#000000">step 1</text>
<text text-anchor="middle" x="29.793" y="-49.7977" font-family="Arial" font-size="16.00" fill="#000000">(SIR)</text>
</g>
<!-- s2 -->
<g id="node2" class="node">
<title>s2</title>
<polygon fill="none" stroke="#000000" points="148.9663,-84.895 95.7915,-84.895 95.7915,-40.3003 154.9663,-40.3003 154.9663,-78.895 148.9663,-84.895"/>
<polyline fill="none" stroke="#000000" points="148.9663,-84.895 148.9663,-78.895 "/>
<polyline fill="none" stroke="#000000" points="154.9663,-78.895 148.9663,-78.895 "/>
<text text-anchor="middle" x="125.3789" y="-68.1961" font-family="Arial" font-size="16.00" fill="#000000">step 2</text>
<text text-anchor="middle" x="125.3789" y="-49.7977" font-family="Arial" font-size="16.00" fill="#000000">(+ JA)</text>
</g>
<!-- s1&#45;&gt;s2 -->
<g id="edge1" class="edge">
<title>s1&#45;&gt;s2</title>
<path fill="none" stroke="#000000" stroke-width="1.5" d="M59.513,-62.5977C67.7849,-62.5977 76.9039,-62.5977 85.6517,-62.5977"/>
<polygon fill="#000000" stroke="#000000" stroke-width="1.5" points="85.6773,-66.0978 95.6773,-62.5977 85.6772,-59.0978 85.6773,-66.0978"/>
</g>
<!-- s3 -->
<g id="node3" class="node">
<title>s3</title>
<polygon fill="none" stroke="#000000" points="282.7468,-94.2933 190.9797,-94.2933 190.9797,-30.902 288.7468,-30.902 288.7468,-88.2933 282.7468,-94.2933"/>
<polyline fill="none" stroke="#000000" points="282.7468,-94.2933 282.7468,-88.2933 "/>
<polyline fill="none" stroke="#000000" points="288.7468,-88.2933 282.7468,-88.2933 "/>
<text text-anchor="middle" x="239.8633" y="-77.3953" font-family="Arial" font-size="16.00" fill="#000000">step 3</text>
<text text-anchor="middle" x="239.8633" y="-58.9969" font-family="Arial" font-size="16.00" fill="#000000">(+ non&#45;exp.</text>
<text text-anchor="middle" x="239.8633" y="-40.5984" font-family="Arial" font-size="16.00" fill="#000000">durations)</text>
</g>
<!-- s2&#45;&gt;s3 -->
<g id="edge2" class="edge">
<title>s2&#45;&gt;s3</title>
<path fill="none" stroke="#000000" stroke-width="1.5" d="M155.1595,-62.5977C163.1501,-62.5977 172.0764,-62.5977 181.0542,-62.5977"/>
<polygon fill="#000000" stroke="#000000" stroke-width="1.5" points="181.1651,-66.0978 191.1651,-62.5977 181.165,-59.0978 181.1651,-66.0978"/>
</g>
<!-- s4 -->
<g id="node4" class="node">
<title>s4</title>
<polygon fill="none" stroke="#000000" points="405.1099,-94.2933 324.7026,-94.2933 324.7026,-30.902 411.1099,-30.902 411.1099,-88.2933 405.1099,-94.2933"/>
<polyline fill="none" stroke="#000000" points="405.1099,-94.2933 405.1099,-88.2933 "/>
<polyline fill="none" stroke="#000000" points="411.1099,-88.2933 405.1099,-88.2933 "/>
<text text-anchor="middle" x="367.9063" y="-77.3953" font-family="Arial" font-size="16.00" fill="#000000">step 4</text>
<text text-anchor="middle" x="367.9063" y="-58.9969" font-family="Arial" font-size="16.00" fill="#000000">(+ contact</text>
<text text-anchor="middle" x="367.9063" y="-40.5984" font-family="Arial" font-size="16.00" fill="#000000"> struct.)</text>
</g>
<!-- s3&#45;&gt;s4 -->
<g id="edge3" class="edge">
<title>s3&#45;&gt;s4</title>
<path fill="none" stroke="#000000" stroke-width="1.5" d="M288.6361,-62.5977C296.9767,-62.5977 305.6839,-62.5977 314.1456,-62.5977"/>
<polygon fill="#000000" stroke="#000000" stroke-width="1.5" points="314.3041,-66.0978 324.304,-62.5977 314.304,-59.0978 314.3041,-66.0978"/>
</g>
<!-- s5 -->
<g id="node5" class="node">
<title>s5</title>
<polygon fill="none" stroke="#000000" points="527.1761,-116.895 454.7067,-116.895 454.7067,-72.3003 533.1761,-72.3003 533.1761,-110.895 527.1761,-116.895"/>
<polyline fill="none" stroke="#000000" points="527.1761,-116.895 527.1761,-110.895 "/>
<polyline fill="none" stroke="#000000" points="533.1761,-110.895 527.1761,-110.895 "/>
<text text-anchor="middle" x="493.9414" y="-100.1961" font-family="Arial" font-size="16.00" fill="#000000">step 5</text>
<text text-anchor="middle" x="493.9414" y="-81.7977" font-family="Arial" font-size="16.00" fill="#000000">(=&gt; IBM)</text>
</g>
<!-- s4&#45;&gt;s5 -->
<g id="edge4" class="edge">
<title>s4&#45;&gt;s5</title>
<path fill="none" stroke="#000000" stroke-width="1.5" d="M411.2804,-73.6102C422.0748,-76.3509 433.7236,-79.3085 444.7745,-82.1143"/>
<polygon fill="#000000" stroke="#000000" stroke-width="1.5" points="444.1598,-85.5692 454.7136,-84.6378 445.8824,-78.7845 444.1598,-85.5692"/>
</g>
<!-- s6 -->
<g id="node6" class="node">
<title>s6</title>
<polygon fill="none" stroke="#000000" points="534.8093,-53.895 447.0735,-53.895 447.0735,-9.3003 540.8093,-9.3003 540.8093,-47.895 534.8093,-53.895"/>
<polyline fill="none" stroke="#000000" points="534.8093,-53.895 534.8093,-47.895 "/>
<polyline fill="none" stroke="#000000" points="540.8093,-47.895 534.8093,-47.895 "/>
<text text-anchor="middle" x="493.9414" y="-37.1961" font-family="Arial" font-size="16.00" fill="#000000">step 6</text>
<text text-anchor="middle" x="493.9414" y="-18.7977" font-family="Arial" font-size="16.00" fill="#000000">(=&gt; hybrid)</text>
</g>
<!-- s4&#45;&gt;s6 -->
<g id="edge5" class="edge">
<title>s4&#45;&gt;s6</title>
<path fill="none" stroke="#000000" stroke-width="1.5" d="M411.2804,-51.9292C419.6616,-49.8678 428.5578,-47.6796 437.2894,-45.532"/>
<polygon fill="#000000" stroke="#000000" stroke-width="1.5" points="438.1668,-48.9206 447.0414,-43.1333 436.4948,-42.1232 438.1668,-48.9206"/>
</g>
<!-- s7 -->
<g id="node7" class="node">
<title>s7</title>
<polygon fill="none" stroke="#000000" points="661.8478,-63.2933 576.5507,-63.2933 576.5507,.098 667.8478,.098 667.8478,-57.2933 661.8478,-63.2933"/>
<polyline fill="none" stroke="#000000" points="661.8478,-63.2933 661.8478,-57.2933 "/>
<polyline fill="none" stroke="#000000" points="667.8478,-57.2933 661.8478,-57.2933 "/>
<text text-anchor="middle" x="622.1992" y="-46.3953" font-family="Arial" font-size="16.00" fill="#000000">step 7</text>
<text text-anchor="middle" x="622.1992" y="-27.9969" font-family="Arial" font-size="16.00" fill="#000000">(+ variable</text>
<text text-anchor="middle" x="622.1992" y="-9.5984" font-family="Arial" font-size="16.00" fill="#000000">shedding)</text>
</g>
<!-- s6&#45;&gt;s7 -->
<g id="edge6" class="edge">
<title>s6&#45;&gt;s7</title>
<path fill="none" stroke="#000000" stroke-width="1.5" d="M540.9716,-31.5977C549.2056,-31.5977 557.8454,-31.5977 566.2917,-31.5977"/>
<polygon fill="#000000" stroke="#000000" stroke-width="1.5" points="566.4582,-35.0978 576.4582,-31.5977 566.4581,-28.0978 566.4582,-35.0978"/>
</g>
<!-- s8 -->
<g id="node8" class="node">
<title>s8</title>
<polygon fill="none" stroke="#000000" points="774.4898,-63.2933 703.5337,-63.2933 703.5337,.098 780.4898,.098 780.4898,-57.2933 774.4898,-63.2933"/>
<polyline fill="none" stroke="#000000" points="774.4898,-63.2933 774.4898,-57.2933 "/>
<polyline fill="none" stroke="#000000" points="780.4898,-57.2933 774.4898,-57.2933 "/>
<text text-anchor="middle" x="742.0117" y="-46.3953" font-family="Arial" font-size="16.00" fill="#000000">step 8</text>
<text text-anchor="middle" x="742.0117" y="-27.9969" font-family="Arial" font-size="16.00" fill="#000000">(+ test</text>
<text text-anchor="middle" x="742.0117" y="-9.5984" font-family="Arial" font-size="16.00" fill="#000000">and cull)</text>
</g>
<!-- s7&#45;&gt;s8 -->
<g id="edge7" class="edge">
<title>s7&#45;&gt;s8</title>
<path fill="none" stroke="#000000" stroke-width="1.5" d="M667.837,-31.5977C676.2056,-31.5977 684.9687,-31.5977 693.42,-31.5977"/>
<polygon fill="#000000" stroke="#000000" stroke-width="1.5" points="693.5267,-35.0978 703.5267,-31.5977 693.5266,-28.0978 693.5267,-35.0978"/>
</g>
<!-- s9 -->
<g id="node9" class="node">
<title>s9</title>
<polygon fill="none" stroke="#000000" points="926.3438,-53.895 816.2187,-53.895 816.2187,-9.3003 932.3438,-9.3003 932.3438,-47.895 926.3438,-53.895"/>
<polyline fill="none" stroke="#000000" points="926.3438,-53.895 926.3438,-47.895 "/>
<polyline fill="none" stroke="#000000" points="932.3438,-47.895 926.3438,-47.895 "/>
<text text-anchor="middle" x="874.2813" y="-37.1961" font-family="Arial" font-size="16.00" fill="#000000">step 9</text>
<text text-anchor="middle" x="874.2813" y="-18.7977" font-family="Arial" font-size="16.00" fill="#000000">(+ quarantine)</text>
</g>
<!-- s8&#45;&gt;s9 -->
<g id="edge8" class="edge">
<title>s8&#45;&gt;s9</title>
<path fill="none" stroke="#000000" stroke-width="1.5" d="M780.2695,-31.5977C788.276,-31.5977 796.9497,-31.5977 805.6807,-31.5977"/>
<polygon fill="#000000" stroke="#000000" stroke-width="1.5" points="805.92,-35.0978 815.92,-31.5977 805.92,-28.0978 805.92,-35.0978"/>
</g>
<!-- s10 -->
<g id="node10" class="node">
<title>s10</title>
<polygon fill="none" stroke="#000000" points="1064.8793,-53.895 968.4566,-53.895 968.4566,-9.3003 1070.8793,-9.3003 1070.8793,-47.895 1064.8793,-53.895"/>
<polyline fill="none" stroke="#000000" points="1064.8793,-53.895 1064.8793,-47.895 "/>
<polyline fill="none" stroke="#000000" points="1070.8793,-47.895 1064.8793,-47.895 "/>
<text text-anchor="middle" x="1019.668" y="-37.1961" font-family="Arial" font-size="16.00" fill="#000000">step 10</text>
<text text-anchor="middle" x="1019.668" y="-18.7977" font-family="Arial" font-size="16.00" fill="#000000">(+ metapop)</text>
</g>
<!-- s9&#45;&gt;s10 -->
<g id="edge9" class="edge">
<title>s9&#45;&gt;s10</title>
<path fill="none" stroke="#000000" stroke-width="1.5" d="M932.5779,-31.5977C941.0024,-31.5977 949.6957,-31.5977 958.1803,-31.5977"/>
<polygon fill="#000000" stroke="#000000" stroke-width="1.5" points="958.3941,-35.0978 968.3941,-31.5977 958.394,-28.0978 958.3941,-35.0978"/>
</g>
</g>
</svg>
